NotoSansOldHungarian-Regular.ufo
<glyph name="uni10C80" format="2">
  <advance width="529"/>
  <unicode hex="10C80"/>
  <outline>
    <contour>
      <point x="310" y="-135" type="line"/>
      <point x="400" y="-135" type="line"/>
      <point x="400" y="714" type="line"/>
      <point x="303" y="714" type="line"/>
      <point x="10" y="476" type="line"/>
      <point x="10" y="371" type="line"/>
      <point x="310" y="339" type="line"/>
    </contour>
    <contour>
      <point x="310" y="422" type="line"/>
      <point x="92" y="442" type="line"/>
      <point x="310" y="619" type="line"/>
    </contour>
  </outline>
</glyph>
<glyph name="uni10C81" format="2">
  <advance width="529"/>
  <unicode hex="10C81"/>
  <outline>
    <contour>
      <point x="310" y="-135" type="line"/>
      <point x="400" y="-135" type="line"/>
      <point x="400" y="714" type="line"/>
      <point x="307" y="714" type="line"/>
      <point x="23" y="438" type="line"/>
      <point x="23" y="362" type="line"/>
      <point x="310" y="117" type="line"/>
    </contour>
    <contour>
      <point x="310" y="232" type="line"/>
      <point x="107" y="401" type="line"/>
      <point x="310" y="609" type="line"/>
    </contour>
  </outline>
</glyph>
<glyph name="uni10C82" format="2">
  <advance width="691"/>
  <unicode hex="10C82"/>
  <outline>
    <contour>
      <point x="4" y="-135" type="line"/>
      <point x="108" y="-135" type="line"/>
      <point x="343" y="240" type="line"/>
      <point x="575" y="-135" type="line"/>
      <point x="687" y="-135" type="line"/>
      <point x="404" y="310" type="line"/>
      <point x="667" y="714" type="line"/>
      <point x="563" y="714" type="line"/>
      <point x="346" y="374" type="line"/>
      <point x="132" y="714" type="line"/>
      <point x="22" y="714" type="line"/>
      <point x="286" y="308" type="line"/>
    </contour>
  </outline>
</glyph>
<glyph name="uni10C83" format="2">
  <advance width="1018"/>
  <unicode hex="10C83"/>
  <outline>
    <contour>
      <point x="464" y="-135" type="curve"/>
      <point x="557" y="-135" type="line"/>
      <point x="603" y="-99"/>
      <point x="643" y="-62"/>
      <point x="678" y="-25" type="curve"/>
      <point x="765" y="-134" type="line"/>
      <point x="963" y="-46" type="line"/>
      <point x="931" y="29" type="line"/>
      <point x="791" y="-39" type="line"/>
      <point x="731" y="41" type="line"/>
      <point x="781" y="114"/>
      <point x="809" y="194"/>
      <point x="809" y="289" type="curve" smooth="yes"/>
      <point x="809" y="384"/>
      <point x="781" y="465"/>
      <point x="731" y="538" type="curve"/>
      <point x="791" y="618" type="line"/>
      <point x="931" y="550" type="line"/>
      <point x="963" y="626" type="line"/>
      <point x="765" y="713" type="line"/>
      <point x="678" y="604" type="line"/>
      <point x="643" y="642"/>
      <point x="603" y="678"/>
      <point x="557" y="714" type="curve"/>
      <point x="463" y="714" type="line"/>
      <point x="417" y="678"/>
      <point x="376" y="641"/>
      <point x="341" y="602" type="curve"/>
      <point x="251" y="713" type="line"/>
      <point x="55" y="626" type="line"/>
      <point x="85" y="550" type="line"/>
      <point x="226" y="618" type="line"/>
      <point x="288" y="536" type="line"/>
      <point x="239" y="463"/>
      <point x="211" y="383"/>
      <point x="211" y="289" type="curve" smooth="yes"/>
      <point x="211" y="195"/>
      <point x="239" y="116"/>
      <point x="288" y="44" type="curve"/>
      <point x="226" y="-39" type="line"/>
      <point x="85" y="29" type="line"/>
      <point x="55" y="-46" type="line"/>
      <point x="251" y="-134" type="line"/>
      <point x="341" y="-23" type="line"/>
      <point x="376" y="-61"/>
      <point x="417" y="-98"/>
    </contour>
    <contour>
      <point x="508" y="-63" type="line"/>
      <point x="371" y="57"/>
      <point x="304" y="148"/>
      <point x="304" y="289" type="curve" smooth="yes"/>
      <point x="304" y="430"/>
      <point x="371" y="523"/>
      <point x="508" y="643" type="curve"/>
      <point x="512" y="643" type="line"/>
      <point x="650" y="523"/>
      <point x="716" y="430"/>
      <point x="716" y="289" type="curve" smooth="yes"/>
      <point x="716" y="148"/>
      <point x="650" y="57"/>
      <point x="512" y="-63" type="curve"/>
    </contour>
  </outline>
</glyph>
<glyph name="uni10C84" format="2">
  <advance width="620"/>
  <unicode hex="10C84"/>
  <outline>
    <contour>
      <point x="265" y="-135" type="line"/>
      <point x="355" y="-135" type="line"/>
      <point x="355" y="590" type="line"/>
      <point x="537" y="427" type="line"/>
      <point x="596" y="491" type="line"/>
      <point x="347" y="714" type="line"/>
      <point x="273" y="714" type="line"/>
      <point x="24" y="491" type="line"/>
      <point x="83" y="427" type="line"/>
      <point x="265" y="590" type="line"/>
    </contour>
  </outline>
</glyph>
<glyph name="uni10C85" format="2">
  <advance width="620"/>
  <unicode hex="10C85"/>
  <outline>
    <contour>
      <point x="273" y="-135" type="line"/>
      <point x="347" y="-135" type="line"/>
      <point x="596" y="88" type="line"/>
      <point x="537" y="152" type="line"/>
      <point x="355" y="-11" type="line"/>
      <point x="355" y="590" type="line"/>
      <point x="537" y="427" type="line"/>
      <point x="589" y="491" type="line"/>
      <point x="347" y="714" type="line"/>
      <point x="273" y="714" type="line"/>
      <point x="31" y="491" type="line"/>
      <point x="83" y="427" type="line"/>
      <point x="265" y="590" type="line"/>
      <point x="265" y="-11" type="line"/>
      <point x="83" y="152" type="line"/>
      <point x="24" y="88" type="line"/>
    </contour>
  </outline>
</glyph>
<glyph name="uni10C86" format="2">
  <advance width="832"/>
  <unicode hex="10C86"/>
  <outline>
    <contour>
      <point x="124" y="-135" type="line"/>
      <point x="211" y="-135" type="line"/>
      <point x="618" y="124" type="line"/>
      <point x="618" y="-135" type="line"/>
      <point x="708" y="-135" type="line"/>
      <point x="708" y="714" type="line"/>
      <point x="621" y="714" type="line"/>
      <point x="214" y="456" type="line"/>
      <point x="214" y="714" type="line"/>
      <point x="124" y="714" type="line"/>
    </contour>
    <contour>
      <point x="214" y="-30" type="line"/>
      <point x="214" y="357" type="line"/>
      <point x="618" y="614" type="line"/>
      <point x="618" y="221" type="line"/>
    </contour>
  </outline>
</glyph>
<glyph name="uni10C87" format="2">
  <advance width="627"/>
  <unicode hex="10C87"/>
  <outline>
    <contour>
      <point x="265" y="-135" type="line"/>
      <point x="361" y="-135" type="line"/>
      <point x="361" y="285" type="line"/>
      <point x="569" y="398" type="line"/>
      <point x="530" y="472" type="line"/>
      <point x="361" y="377" type="line"/>
      <point x="361" y="714" type="line"/>
      <point x="265" y="714" type="line"/>
      <point x="265" y="327" type="line"/>
      <point x="57" y="216" type="line"/>
      <point x="96" y="144" type="line"/>
      <point x="265" y="236" type="line"/>
    </contour>
  </outline>
</glyph>
<glyph name="uni10C88" format="2">
  <advance width="691"/>
  <unicode hex="10C88"/>
  <outline>
    <contour>
      <point x="54" y="187" type="line"/>
      <point x="652" y="364" type="line"/>
      <point x="636" y="434" type="line"/>
      <point x="30" y="254" type="line"/>
    </contour>
    <component base="uni10C82"/>
  </outline>
</glyph>
<glyph name="uni10C89" format="2">
  <advance width="563"/>
  <unicode hex="10C89"/>
  <outline>
    <contour>
      <point x="137" y="-159" type="line"/>
      <point x="200" y="-119"/>
      <point x="252" y="-81"/>
      <point x="295" y="-45" type="curve"/>
      <point x="418" y="-151" type="line"/>
      <point x="467" y="-88" type="line"/>
      <point x="354" y="10" type="line"/>
      <point x="437" y="97"/>
      <point x="468" y="182"/>
      <point x="468" y="289" type="curve" smooth="yes"/>
      <point x="468" y="397"/>
      <point x="436" y="483"/>
      <point x="352" y="572" type="curve"/>
      <point x="467" y="672" type="line"/>
      <point x="418" y="735" type="line"/>
      <point x="293" y="627" type="line"/>
      <point x="252" y="663"/>
      <point x="202" y="699"/>
      <point x="142" y="738" type="curve"/>
      <point x="81" y="671" type="line"/>
      <point x="138" y="633"/>
      <point x="185" y="599"/>
      <point x="224" y="567" type="curve"/>
      <point x="98" y="459" type="line"/>
      <point x="153" y="399" type="line"/>
      <point x="283" y="512" type="line"/>
      <point x="350" y="441"/>
      <point x="374" y="375"/>
      <point x="374" y="289" type="curve" smooth="yes"/>
      <point x="374" y="204"/>
      <point x="349" y="136"/>
      <point x="287" y="68" type="curve"/>
      <point x="153" y="184" type="line"/>
      <point x="98" y="125" type="line"/>
      <point x="228" y="13" type="line"/>
      <point x="190" y="-19"/>
      <point x="143" y="-52"/>
      <point x="86" y="-88" type="curve"/>
    </contour>
  </outline>
</glyph>
<glyph name="uni10C8A" format="2">
  <advance width="586"/>
  <unicode hex="10C8A"/>
  <outline>
    <contour>
      <point x="150" y="-159" type="line"/>
      <point x="205" y="-123"/>
      <point x="253" y="-90"/>
      <point x="293" y="-58" type="curve"/>
      <point x="333" y="-90"/>
      <point x="381" y="-123"/>
      <point x="436" y="-159" type="curve"/>
      <point x="488" y="-88" type="line"/>
      <point x="438" y="-56"/>
      <point x="395" y="-27"/>
      <point x="359" y="1" type="curve"/>
      <point x="449" y="91"/>
      <point x="484" y="179"/>
      <point x="484" y="289" type="curve" smooth="yes"/>
      <point x="484" y="399"/>
      <point x="449" y="486"/>
      <point x="361" y="577" type="curve"/>
      <point x="397" y="606"/>
      <point x="441" y="637"/>
      <point x="493" y="671" type="curve"/>
      <point x="432" y="738" type="line"/>
      <point x="378" y="703"/>
      <point x="332" y="670"/>
      <point x="293" y="638" type="curve"/>
      <point x="254" y="670"/>
      <point x="208" y="703"/>
      <point x="154" y="738" type="curve"/>
      <point x="93" y="671" type="line"/>
      <point x="145" y="637"/>
      <point x="189" y="606"/>
      <point x="226" y="576" type="curve"/>
      <point x="137" y="486"/>
      <point x="102" y="398"/>
      <point x="102" y="289" type="curve" smooth="yes"/>
      <point x="102" y="179"/>
      <point x="137" y="91"/>
      <point x="227" y="1" type="curve"/>
      <point x="191" y="-27"/>
      <point x="148" y="-56"/>
      <point x="98" y="-88" type="curve"/>
    </contour>
    <contour>
      <point x="293" y="60" type="curve"/>
      <point x="224" y="131"/>
      <point x="196" y="201"/>
      <point x="196" y="289" type="curve" smooth="yes"/>
      <point x="196" y="377"/>
      <point x="222" y="444"/>
      <point x="293" y="516" type="curve"/>
      <point x="364" y="444"/>
      <point x="390" y="377"/>
      <point x="390" y="289" type="curve" smooth="yes"/>
      <point x="390" y="201"/>
      <point x="362" y="131"/>
    </contour>
  </outline>
</glyph>
<glyph name="uni10C8B" format="2">
  <advance width="512"/>
  <unicode hex="10C8B"/>
  <outline>
    <contour>
      <point x="280" y="-174" type="line"/>
      <point x="338" y="-105" type="line"/>
      <point x="231" y="-16" type="line"/>
      <point x="372" y="83"/>
      <point x="430" y="171"/>
      <point x="430" y="289" type="curve" smooth="yes"/>
      <point x="430" y="409"/>
      <point x="372" y="497"/>
      <point x="231" y="595" type="curve"/>
      <point x="338" y="684" type="line"/>
      <point x="280" y="752" type="line"/>
      <point x="88" y="586" type="line"/>
      <point x="260" y="482"/>
      <point x="336" y="406"/>
      <point x="336" y="289" type="curve" smooth="yes"/>
      <point x="336" y="173"/>
      <point x="259" y="96"/>
      <point x="88" y="-7" type="curve"/>
    </contour>
  </outline>
</glyph>
<glyph name="uni10C8C" format="2">
  <advance width="769"/>
  <unicode hex="10C8C"/>
  <outline>
    <contour>
      <point x="338" y="-135" type="curve"/>
      <point x="431" y="-135" type="line"/>
      <point x="590" y="-12"/>
      <point x="687" y="113"/>
      <point x="687" y="289" type="curve" smooth="yes"/>
      <point x="687" y="466"/>
      <point x="590" y="592"/>
      <point x="431" y="714" type="curve"/>
      <point x="337" y="714" type="line"/>
      <point x="178" y="592"/>
      <point x="81" y="466"/>
      <point x="81" y="289" type="curve" smooth="yes"/>
      <point x="81" y="113"/>
      <point x="178" y="-12"/>
    </contour>
    <contour>
      <point x="382" y="-63" type="line"/>
      <point x="327" y="-16"/>
      <point x="284" y="26"/>
      <point x="251" y="68" type="curve"/>
      <point x="386" y="231" type="line"/>
      <point x="519" y="71" type="line"/>
      <point x="486" y="27"/>
      <point x="442" y="-16"/>
      <point x="386" y="-63" type="curve"/>
    </contour>
    <contour>
      <point x="210" y="132" type="line"/>
      <point x="186" y="180"/>
      <point x="174" y="230"/>
      <point x="174" y="289" type="curve" smooth="yes"/>
      <point x="174" y="347"/>
      <point x="185" y="397"/>
      <point x="209" y="445" type="curve"/>
      <point x="339" y="287" type="line"/>
    </contour>
    <contour>
      <point x="560" y="135" type="curve"/>
      <point x="432" y="287" type="line"/>
      <point x="560" y="442" type="line"/>
      <point x="583" y="396"/>
      <point x="594" y="346"/>
      <point x="594" y="289" type="curve" smooth="yes"/>
      <point x="594" y="231"/>
      <point x="583" y="182"/>
    </contour>
    <contour>
      <point x="386" y="342" type="line"/>
      <point x="247" y="507" type="line"/>
      <point x="281" y="551"/>
      <point x="325" y="595"/>
      <point x="382" y="643" type="curve"/>
      <point x="386" y="643" type="line"/>
      <point x="444" y="594"/>
      <point x="489" y="550"/>
      <point x="522" y="505" type="curve"/>
    </contour>
  </outline>
</glyph>
<glyph name="uni10C8D" format="2">
  <advance width="801"/>
  <unicode hex="10C8D"/>
  <outline>
    <contour>
      <point x="21" y="-135" type="line"/>
      <point x="121" y="-135" type="line"/>
      <point x="333" y="411" type="line" smooth="yes"/>
      <point x="361" y="483"/>
      <point x="385" y="546"/>
      <point x="399" y="602" type="curve"/>
      <point x="403" y="602" type="line"/>
      <point x="417" y="546"/>
      <point x="440" y="485"/>
      <point x="468" y="413" type="curve" smooth="yes"/>
      <point x="480" y="383" type="line"/>
      <point x="286" y="-135" type="line"/>
      <point x="380" y="-135" type="line"/>
      <point x="524" y="269" type="line"/>
      <point x="681" y="-135" type="line"/>
      <point x="780" y="-135" type="line"/>
      <point x="447" y="714" type="line"/>
      <point x="360" y="714" type="line"/>
    </contour>
  </outline>
</glyph>
<glyph name="uni10C8E" format="2">
  <advance width="624"/>
  <unicode hex="10C8E"/>
  <outline>
    <contour>
      <point x="265" y="-135" type="line"/>
      <point x="361" y="-135" type="line"/>
      <point x="361" y="131" type="line"/>
      <point x="569" y="243" type="line"/>
      <point x="530" y="317" type="line"/>
      <point x="361" y="226" type="line"/>
      <point x="361" y="388" type="line"/>
      <point x="569" y="500" type="line"/>
      <point x="530" y="574" type="line"/>
      <point x="361" y="483" type="line"/>
      <point x="361" y="714" type="line"/>
      <point x="265" y="714" type="line"/>
      <point x="265" y="431" type="line"/>
      <point x="57" y="318" type="line"/>
      <point x="96" y="246" type="line"/>
      <point x="265" y="337" type="line"/>
      <point x="265" y="174" type="line"/>
      <point x="57" y="61" type="line"/>
      <point x="96" y="-11" type="line"/>
      <point x="265" y="80" type="line"/>
    </contour>
  </outline>
</glyph>
<glyph name="uni10C8F" format="2">
  <advance width="710"/>
  <unicode hex="10C8F"/>
  <outline>
    <contour>
      <point x="64" y="-135" type="line"/>
      <point x="186" y="-135" type="line"/>
      <point x="354" y="24" type="line"/>
      <point x="523" y="-135" type="line"/>
      <point x="645" y="-135" type="line"/>
      <point x="414" y="78" type="line"/>
      <point x="659" y="305" type="line"/>
      <point x="414" y="515" type="line"/>
      <point x="645" y="714" type="line"/>
      <point x="523" y="714" type="line"/>
      <point x="354" y="566" type="line"/>
      <point x="184" y="714" type="line"/>
      <point x="64" y="714" type="line"/>
      <point x="295" y="515" type="line"/>
      <point x="51" y="305" type="line"/>
      <point x="295" y="78" type="line"/>
    </contour>
    <contour>
      <point x="354" y="136" type="line"/>
      <point x="174" y="306" type="line"/>
      <point x="354" y="462" type="line"/>
      <point x="534" y="306" type="line"/>
    </contour>
  </outline>
</glyph>
<glyph name="uni10C90" format="2">
  <advance width="627"/>
  <unicode hex="10C90"/>
  <outline>
    <contour>
      <point x="265" y="-135" type="line"/>
      <point x="361" y="-135" type="line"/>
      <point x="361" y="388" type="line"/>
      <point x="569" y="500" type="line"/>
      <point x="530" y="574" type="line"/>
      <point x="361" y="483" type="line"/>
      <point x="361" y="714" type="line"/>
      <point x="265" y="714" type="line"/>
      <point x="265" y="431" type="line"/>
      <point x="57" y="318" type="line"/>
      <point x="96" y="246" type="line"/>
      <point x="265" y="337" type="line"/>
    </contour>
  </outline>
</glyph>
<glyph name="uni10C91" format="2">
  <advance width="627"/>
  <unicode hex="10C91"/>
  <outline>
    <contour>
      <point x="278" y="-135" type="line"/>
      <point x="374" y="-135" type="line"/>
      <point x="374" y="675" type="line"/>
      <point x="569" y="780" type="line"/>
      <point x="530" y="854" type="line"/>
      <point x="57" y="598" type="line"/>
      <point x="96" y="526" type="line"/>
      <point x="278" y="624" type="line"/>
    </contour>
  </outline>
</glyph>
<glyph name="uni10C92" format="2">
  <advance width="547"/>
  <unicode hex="10C92"/>
  <outline>
    <contour>
      <point x="324" y="-135" type="line"/>
      <point x="413" y="-135" type="line"/>
      <point x="413" y="714" type="line"/>
      <point x="337" y="714" type="line"/>
      <point x="31" y="413" type="line"/>
      <point x="86" y="353" type="line"/>
      <point x="324" y="588" type="line"/>
    </contour>
  </outline>
</glyph>
<glyph name="uni10C93" format="2">
  <advance width="684"/>
  <unicode hex="10C93"/>
  <outline>
    <contour>
      <point x="297" y="-135" type="line"/>
      <point x="389" y="-135" type="line"/>
      <point x="629" y="295" type="line"/>
      <point x="389" y="714" type="line"/>
      <point x="297" y="714" type="line"/>
      <point x="56" y="295" type="line"/>
    </contour>
    <contour>
      <point x="343" y="-49" type="line"/>
      <point x="156" y="295" type="line"/>
      <point x="343" y="629" type="line"/>
      <point x="528" y="295" type="line"/>
    </contour>
  </outline>
</glyph>
<glyph name="uni10C95" format="2">
  <advance width="907"/>
  <unicode hex="10C95"/>
  <outline>
    <contour>
      <point x="240" y="-165" type="line"/>
      <point x="453" y="211" type="line"/>
      <point x="667" y="-165" type="line"/>
      <point x="874" y="-65" type="line"/>
      <point x="841" y="6" type="line"/>
      <point x="707" y="-63" type="line"/>
      <point x="499" y="294" type="line"/>
      <point x="701" y="640" type="line"/>
      <point x="835" y="572" type="line"/>
      <point x="868" y="642" type="line"/>
      <point x="661" y="744" type="line"/>
      <point x="453" y="378" type="line"/>
      <point x="246" y="744" type="line"/>
      <point x="38" y="642" type="line"/>
      <point x="72" y="572" type="line"/>
      <point x="205" y="640" type="line"/>
      <point x="408" y="294" type="line"/>
      <point x="199" y="-63" type="line"/>
      <point x="66" y="6" type="line"/>
      <point x="32" y="-65" type="line"/>
    </contour>
  </outline>
</glyph>
<glyph name="uni10C96" format="2">
  <advance width="801"/>
  <unicode hex="10C96"/>
  <outline>
    <contour>
      <point x="18" y="-135" type="line"/>
      <point x="118" y="-135" type="line"/>
      <point x="332" y="413" type="line" smooth="yes"/>
      <point x="360" y="485"/>
      <point x="384" y="549"/>
      <point x="400" y="602" type="curve"/>
      <point x="404" y="602" type="line"/>
      <point x="419" y="550"/>
      <point x="439" y="495"/>
      <point x="463" y="430" type="curve"/>
      <point x="242" y="-135" type="line"/>
      <point x="332" y="-135" type="line"/>
      <point x="509" y="314" type="line"/>
      <point x="569" y="160" type="line"/>
      <point x="453" y="-135" type="line"/>
      <point x="541" y="-135" type="line"/>
      <point x="613" y="49" type="line"/>
      <point x="685" y="-135" type="line"/>
      <point x="784" y="-135" type="line"/>
      <point x="446" y="714" type="line"/>
      <point x="360" y="714" type="line"/>
    </contour>
  </outline>
</glyph>
<glyph name="uni10C97" format="2">
  <advance width="768"/>
  <unicode hex="10C97"/>
  <outline>
    <contour>
      <point x="338" y="-135" type="curve"/>
      <point x="431" y="-135" type="line"/>
      <point x="586" y="-12"/>
      <point x="683" y="113"/>
      <point x="683" y="289" type="curve" smooth="yes"/>
      <point x="683" y="466"/>
      <point x="586" y="592"/>
      <point x="431" y="714" type="curve"/>
      <point x="337" y="714" type="line"/>
      <point x="182" y="592"/>
      <point x="85" y="466"/>
      <point x="85" y="289" type="curve" smooth="yes"/>
      <point x="85" y="113"/>
      <point x="182" y="-12"/>
    </contour>
    <contour>
      <point x="382" y="-63" type="line"/>
      <point x="327" y="-14"/>
      <point x="283" y="29"/>
      <point x="250" y="74" type="curve"/>
      <point x="558" y="439" type="line"/>
      <point x="580" y="394"/>
      <point x="590" y="345"/>
      <point x="590" y="289" type="curve" smooth="yes"/>
      <point x="590" y="148"/>
      <point x="524" y="57"/>
      <point x="386" y="-63" type="curve"/>
    </contour>
    <contour>
      <point x="208" y="143" type="line"/>
      <point x="188" y="187"/>
      <point x="178" y="234"/>
      <point x="178" y="289" type="curve" smooth="yes"/>
      <point x="178" y="430"/>
      <point x="245" y="523"/>
      <point x="382" y="643" type="curve"/>
      <point x="386" y="643" type="line"/>
      <point x="442" y="594"/>
      <point x="486" y="550"/>
      <point x="519" y="506" type="curve"/>
    </contour>
  </outline>
</glyph>
<glyph name="uni10C98" format="2">
  <advance width="627"/>
  <unicode hex="10C98"/>
  <outline>
    <contour>
      <point x="402" y="-135" type="line"/>
      <point x="497" y="-135" type="line"/>
      <point x="497" y="714" type="line"/>
      <point x="402" y="714" type="line"/>
      <point x="72" y="525" type="line"/>
      <point x="72" y="437" type="line"/>
      <point x="288" y="293" type="line"/>
      <point x="72" y="150" type="line"/>
      <point x="72" y="63" type="line"/>
    </contour>
    <contour>
      <point x="407" y="-35" type="line"/>
      <point x="156" y="111" type="line"/>
      <point x="407" y="277" type="line"/>
    </contour>
    <contour>
      <point x="407" y="310" type="line"/>
      <point x="156" y="479" type="line"/>
      <point x="407" y="622" type="line"/>
    </contour>
  </outline>
</glyph>
<glyph name="uni10C99" format="2">
  <advance width="538"/>
  <unicode hex="10C99"/>
  <outline>
    <contour>
      <point x="118" y="-159" type="line"/>
      <point x="366" y="0"/>
      <point x="452" y="116"/>
      <point x="452" y="289" type="curve" smooth="yes"/>
      <point x="452" y="461"/>
      <point x="366" y="579"/>
      <point x="123" y="738" type="curve"/>
      <point x="62" y="671" type="line"/>
      <point x="286" y="523"/>
      <point x="358" y="434"/>
      <point x="358" y="289" type="curve" smooth="yes"/>
      <point x="358" y="143"/>
      <point x="281" y="47"/>
      <point x="67" y="-88" type="curve"/>
    </contour>
  </outline>
</glyph>
<glyph name="uni10C9A" format="2">
  <advance width="633"/>
  <unicode hex="10C9A"/>
  <outline>
    <contour>
      <point x="122" y="-135" type="line"/>
      <point x="212" y="-135" type="line"/>
      <point x="460" y="-1"/>
      <point x="557" y="120"/>
      <point x="557" y="289" type="curve" smooth="yes"/>
      <point x="557" y="454"/>
      <point x="459" y="579"/>
      <point x="212" y="714" type="curve"/>
      <point x="122" y="714" type="line"/>
    </contour>
    <contour>
      <point x="212" y="-37" type="curve"/>
      <point x="212" y="618" type="line"/>
      <point x="395" y="509"/>
      <point x="463" y="420"/>
      <point x="463" y="289" type="curve" smooth="yes"/>
      <point x="463" y="157"/>
      <point x="391" y="64"/>
    </contour>
  </outline>
</glyph>
<glyph name="uni10C9B" format="2">
  <advance width="634"/>
  <unicode hex="10C9B"/>
  <outline>
    <contour>
      <point x="291" y="-155" type="line"/>
      <point x="471" y="-17"/>
      <point x="559" y="98"/>
      <point x="559" y="284" type="curve" smooth="yes"/>
      <point x="559" y="455"/>
      <point x="487" y="573"/>
      <point x="291" y="734" type="curve"/>
      <point x="55" y="516" type="line"/>
      <point x="117" y="455" type="line"/>
      <point x="289" y="614" type="line"/>
      <point x="420" y="499"/>
      <point x="465" y="416"/>
      <point x="465" y="284" type="curve" smooth="yes"/>
      <point x="465" y="147"/>
      <point x="419" y="58"/>
      <point x="299" y="-45" type="curve"/>
      <point x="117" y="124" type="line"/>
      <point x="55" y="63" type="line"/>
    </contour>
  </outline>
</glyph>
<glyph name="uni10C9C" format="2">
  <advance width="658"/>
  <unicode hex="10C9C"/>
  <outline>
    <contour>
      <point x="311" y="-159" type="line"/>
      <point x="491" y="-16"/>
      <point x="579" y="103"/>
      <point x="579" y="278" type="curve" smooth="yes"/>
      <point x="579" y="445"/>
      <point x="507" y="567"/>
      <point x="311" y="734" type="curve"/>
      <point x="251" y="659" type="line"/>
      <point x="426" y="511"/>
      <point x="482" y="419"/>
      <point x="482" y="278" type="curve" smooth="yes"/>
      <point x="482" y="155"/>
      <point x="436" y="63"/>
      <point x="319" y="-44" type="curve"/>
      <point x="159" y="117" type="line"/>
      <point x="301" y="271" type="line"/>
      <point x="241" y="334" type="line"/>
      <point x="37" y="109" type="line"/>
    </contour>
  </outline>
</glyph>
<glyph name="uni10C9D" format="2">
  <advance width="482"/>
  <unicode hex="10C9D"/>
  <outline>
    <contour>
      <point x="336" y="-145" type="line"/>
      <point x="399" y="-79" type="line"/>
      <point x="190" y="161" type="line"/>
      <point x="411" y="420" type="line"/>
      <point x="140" y="718" type="line"/>
      <point x="76" y="652" type="line"/>
      <point x="293" y="415" type="line"/>
      <point x="71" y="157" type="line"/>
    </contour>
  </outline>
</glyph>
<glyph name="uni10C9E" format="2">
  <advance width="624"/>
  <unicode hex="10C9E"/>
  <outline>
    <contour>
      <point x="123" y="-135" type="line"/>
      <point x="213" y="-135" type="line"/>
      <point x="213" y="296" type="line"/>
      <point x="492" y="-135" type="line"/>
      <point x="606" y="-135" type="line"/>
      <point x="317" y="302" type="line"/>
      <point x="597" y="714" type="line"/>
      <point x="488" y="714" type="line"/>
      <point x="213" y="298" type="line"/>
      <point x="213" y="714" type="line"/>
      <point x="123" y="714" type="line"/>
    </contour>
  </outline>
</glyph>
<glyph name="uni10C9F" format="2">
  <advance width="724"/>
  <unicode hex="10C9F"/>
  <outline>
    <contour>
      <point x="311" y="-156" type="line"/>
      <point x="385" y="-98"/>
      <point x="443" y="-43"/>
      <point x="486" y="13" type="curve"/>
      <point x="579" y="-70" type="line"/>
      <point x="627" y="-15" type="line"/>
      <point x="527" y="74" type="line"/>
      <point x="562" y="136"/>
      <point x="579" y="202"/>
      <point x="579" y="279" type="curve" smooth="yes"/>
      <point x="579" y="356"/>
      <point x="564" y="423"/>
      <point x="528" y="489" type="curve"/>
      <point x="624" y="575" type="line"/>
      <point x="576" y="632" type="line"/>
      <point x="488" y="553" type="line"/>
      <point x="446" y="610"/>
      <point x="388" y="668"/>
      <point x="311" y="733" type="curve"/>
      <point x="251" y="659" type="line"/>
      <point x="327" y="595"/>
      <point x="381" y="541"/>
      <point x="418" y="490" type="curve"/>
      <point x="364" y="442" type="line"/>
      <point x="412" y="386" type="line"/>
      <point x="456" y="425" type="line"/>
      <point x="476" y="379"/>
      <point x="485" y="333"/>
      <point x="485" y="279" type="curve" smooth="yes"/>
      <point x="485" y="227"/>
      <point x="476" y="181"/>
      <point x="458" y="137" type="curve"/>
      <point x="412" y="178" type="line"/>
      <point x="364" y="122" type="line"/>
      <point x="421" y="71" type="line"/>
      <point x="396" y="34"/>
      <point x="362" y="-2"/>
      <point x="320" y="-41" type="curve"/>
      <point x="163" y="116" type="line"/>
      <point x="305" y="270" type="line"/>
      <point x="241" y="334" type="line"/>
      <point x="37" y="111" type="line"/>
      <point x="42" y="108" type="line"/>
      <point x="39" y="107" type="line"/>
    </contour>
  </outline>
</glyph>
<glyph name="uni10CA0" format="2">
  <advance width="578"/>
  <unicode hex="10CA0"/>
  <outline>
    <contour>
      <point x="116" y="-156" type="line"/>
      <point x="361" y="81" type="line"/>
      <point x="361" y="-135" type="line"/>
      <point x="451" y="-135" type="line"/>
      <point x="451" y="714" type="line"/>
      <point x="370" y="714" type="line"/>
      <point x="61" y="417" type="line"/>
      <point x="116" y="362" type="line"/>
      <point x="361" y="600" type="line"/>
      <point x="361" y="446" type="line"/>
      <point x="61" y="157" type="line"/>
      <point x="116" y="102" type="line"/>
      <point x="361" y="340" type="line"/>
      <point x="361" y="186" type="line"/>
      <point x="61" y="-101" type="line"/>
    </contour>
  </outline>
</glyph>
<glyph name="uni10CA1" format="2">
  <advance width="1027"/>
  <unicode hex="10CA1"/>
  <outline>
    <contour>
      <point x="235" y="-170" type="line"/>
      <point x="354" y="-37" type="line"/>
      <point x="387" y="-71"/>
      <point x="424" y="-102"/>
      <point x="465" y="-135" type="curve"/>
      <point x="563" y="-135" type="line"/>
      <point x="603" y="-102"/>
      <point x="634" y="-71"/>
      <point x="667" y="-37" type="curve"/>
      <point x="792" y="-170" type="line"/>
      <point x="856" y="-110" type="line"/>
      <point x="720" y="26" type="line"/>
      <point x="763" y="83"/>
      <point x="791" y="142"/>
      <point x="804" y="207" type="curve"/>
      <point x="939" y="125" type="line"/>
      <point x="981" y="203" type="line"/>
      <point x="812" y="295" type="line"/>
      <point x="811" y="378"/>
      <point x="794" y="461"/>
      <point x="732" y="540" type="curve"/>
      <point x="735" y="543" type="line"/>
      <point x="867" y="475" type="line"/>
      <point x="906" y="554" type="line"/>
      <point x="563" y="714" type="line"/>
      <point x="464" y="714" type="line"/>
      <point x="121" y="554" type="line"/>
      <point x="160" y="475" type="line"/>
      <point x="291" y="543" type="line"/>
      <point x="293" y="539" type="line"/>
      <point x="232" y="460"/>
      <point x="209" y="378"/>
      <point x="208" y="295" type="curve"/>
      <point x="39" y="203" type="line"/>
      <point x="80" y="125" type="line"/>
      <point x="215" y="207" type="line"/>
      <point x="229" y="141"/>
      <point x="258" y="82"/>
      <point x="300" y="26" type="curve"/>
      <point x="170" y="-110" type="line"/>
    </contour>
    <contour>
      <point x="513" y="-63" type="line"/>
      <point x="382" y="40"/>
      <point x="305" y="145"/>
      <point x="305" y="295" type="curve" smooth="yes"/>
      <point x="305" y="439"/>
      <point x="372" y="553"/>
      <point x="513" y="638" type="curve"/>
      <point x="517" y="638" type="line"/>
      <point x="659" y="553"/>
      <point x="725" y="439"/>
      <point x="725" y="295" type="curve" smooth="yes"/>
      <point x="725" y="145"/>
      <point x="649" y="40"/>
      <point x="517" y="-63" type="curve"/>
    </contour>
  </outline>
</glyph>
<glyph name="uni10CA2" format="2">
  <advance width="832"/>
  <unicode hex="10CA2"/>
  <outline>
    <contour>
      <point x="130" y="-135" type="line"/>
      <point x="220" y="-135" type="line"/>
      <point x="220" y="114" type="line"/>
      <point x="613" y="372" type="line"/>
      <point x="613" y="-135" type="line"/>
      <point x="703" y="-135" type="line"/>
      <point x="703" y="714" type="line"/>
      <point x="613" y="714" type="line"/>
      <point x="613" y="471" type="line"/>
      <point x="220" y="208" type="line"/>
      <point x="220" y="714" type="line"/>
      <point x="130" y="714" type="line"/>
    </contour>
  </outline>
</glyph>
<glyph name="uni10CA3" format="2">
  <advance width="613"/>
  <unicode hex="10CA3"/>
  <outline>
    <contour>
      <point x="93" y="127" type="line"/>
      <point x="556" y="400" type="line"/>
      <point x="514" y="474" type="line"/>
      <point x="52" y="201" type="line"/>
    </contour>
  </outline>
</glyph>
<glyph name="uni10CA4" format="2">
  <advance width="724"/>
  <unicode hex="10CA4"/>
  <outline>
    <contour>
      <point x="13" y="-135" type="line"/>
      <point x="108" y="-135" type="line"/>
      <point x="299" y="411" type="line" smooth="yes"/>
      <point x="324" y="481"/>
      <point x="347" y="547"/>
      <point x="360" y="601" type="curve"/>
      <point x="364" y="601" type="line"/>
      <point x="377" y="547"/>
      <point x="400" y="481"/>
      <point x="424" y="413" type="curve" smooth="yes"/>
      <point x="617" y="-135" type="line"/>
      <point x="712" y="-135" type="line"/>
      <point x="411" y="714" type="line"/>
      <point x="320" y="714" type="line"/>
    </contour>
  </outline>
</glyph>
<glyph name="uni10CA5" format="2">
  <advance width="341"/>
  <unicode hex="10CA5"/>
  <outline>
    <contour>
      <point x="124" y="-135" type="line"/>
      <point x="214" y="-135" type="line"/>
      <point x="214" y="714" type="line"/>
      <point x="124" y="714" type="line"/>
    </contour>
  </outline>
</glyph>
<glyph name="uni10CA6" format="2">
  <advance width="567"/>
  <unicode hex="10CA6"/>
  <outline>
    <contour>
      <point x="356" y="-135" type="line"/>
      <point x="446" y="-135" type="line"/>
      <point x="446" y="714" type="line"/>
      <point x="356" y="714" type="line"/>
      <point x="356" y="356" type="line"/>
      <point x="82" y="740" type="line"/>
      <point x="10" y="691" type="line"/>
      <point x="356" y="216" type="line"/>
    </contour>
  </outline>
</glyph>
<glyph name="uni10CA7" format="2">
  <advance width="866"/>
  <unicode hex="10CA7"/>
  <outline>
    <contour>
      <point x="388" y="-135" type="line"/>
      <point x="478" y="-135" type="line"/>
      <point x="478" y="393" type="line"/>
      <point x="681" y="609" type="line"/>
      <point x="790" y="496" type="line"/>
      <point x="847" y="555" type="line"/>
      <point x="679" y="726" type="line"/>
      <point x="478" y="510" type="line"/>
      <point x="478" y="714" type="line"/>
      <point x="388" y="714" type="line"/>
      <point x="388" y="511" type="line"/>
      <point x="188" y="726" type="line"/>
      <point x="20" y="555" type="line"/>
      <point x="76" y="496" type="line"/>
      <point x="185" y="609" type="line"/>
      <point x="388" y="394" type="line"/>
    </contour>
  </outline>
</glyph>
<glyph name="uni10CA8" format="2">
  <advance width="691"/>
  <unicode hex="10CA8"/>
  <outline>
    <contour>
      <point x="268" y="-136" type="line"/>
      <point x="364" y="-136" type="line"/>
      <point x="468" y="38" type="line"/>
      <point x="575" y="-135" type="line"/>
      <point x="687" y="-135" type="line"/>
      <point x="404" y="310" type="line"/>
      <point x="667" y="714" type="line"/>
      <point x="563" y="714" type="line"/>
      <point x="346" y="374" type="line"/>
      <point x="274" y="488" type="line"/>
      <point x="413" y="714" type="line"/>
      <point x="317" y="714" type="line"/>
      <point x="227" y="564" type="line"/>
      <point x="132" y="714" type="line"/>
      <point x="22" y="714" type="line"/>
      <point x="286" y="308" type="line"/>
      <point x="4" y="-135" type="line"/>
      <point x="108" y="-135" type="line"/>
      <point x="343" y="240" type="line"/>
      <point x="420" y="115" type="line"/>
    </contour>
  </outline>
</glyph>
<glyph name="uni10CA9" format="2">
  <advance width="724"/>
  <unicode hex="10CA9"/>
  <outline>
    <contour>
      <point x="607" y="-163" type="line"/>
      <point x="671" y="-98" type="line"/>
      <point x="407" y="306" type="line"/>
      <point x="670" y="693" type="line"/>
      <point x="609" y="748" type="line"/>
      <point x="323" y="667" type="line"/>
      <point x="344" y="594" type="line"/>
      <point x="547" y="654" type="line"/>
      <point x="356" y="365" type="line"/>
      <point x="141" y="714" type="line"/>
      <point x="34" y="714" type="line"/>
      <point x="298" y="301" type="line"/>
      <point x="4" y="-136" type="line"/>
      <point x="104" y="-136" type="line"/>
      <point x="352" y="238" type="line"/>
      <point x="548" y="-70" type="line"/>
      <point x="345" y="-11" type="line"/>
      <point x="320" y="-85" type="line"/>
    </contour>
  </outline>
</glyph>
<glyph name="uni10CAA" format="2">
  <advance width="885"/>
  <unicode hex="10CAA"/>
  <outline>
    <contour>
      <point x="124" y="-135" type="line"/>
      <point x="212" y="-135" type="line"/>
      <point x="437" y="40" type="line"/>
      <point x="662" y="-135" type="line"/>
      <point x="750" y="-135" type="line"/>
      <point x="750" y="714" type="line"/>
      <point x="662" y="714" type="line"/>
      <point x="437" y="540" type="line"/>
      <point x="212" y="714" type="line"/>
      <point x="124" y="714" type="line"/>
    </contour>
    <contour>
      <point x="214" y="-28" type="line"/>
      <point x="214" y="607" type="line"/>
      <point x="437" y="439" type="line"/>
      <point x="660" y="607" type="line"/>
      <point x="660" y="-28" type="line"/>
      <point x="437" y="140" type="line"/>
    </contour>
  </outline>
</glyph>
<glyph name="uni10CAB" format="2">
  <advance width="953"/>
  <unicode hex="10CAB"/>
  <outline>
    <contour>
      <point x="122" y="-135" type="line"/>
      <point x="204" y="-135" type="line"/>
      <point x="478" y="223" type="line"/>
      <point x="755" y="-135" type="line"/>
      <point x="837" y="-135" type="line"/>
      <point x="837" y="714" type="line"/>
      <point x="755" y="714" type="line"/>
      <point x="478" y="358" type="line"/>
      <point x="204" y="714" type="line"/>
      <point x="122" y="714" type="line"/>
    </contour>
    <contour>
      <point x="211" y="19" type="line"/>
      <point x="211" y="561" type="line"/>
      <point x="215" y="561" type="line"/>
      <point x="426" y="289" type="line"/>
      <point x="215" y="19" type="line"/>
    </contour>
    <contour>
      <point x="744" y="11" type="line"/>
      <point x="528" y="289" type="line"/>
      <point x="744" y="569" type="line"/>
      <point x="748" y="569" type="line"/>
      <point x="748" y="11" type="line"/>
    </contour>
  </outline>
</glyph>
<glyph name="uni10CAC" format="2">
  <advance width="769"/>
  <unicode hex="10CAC"/>
  <outline>
    <contour>
      <point x="106" y="-151" type="line"/>
      <point x="218" y="-26" type="line"/>
      <point x="252" y="-63"/>
      <point x="293" y="-99"/>
      <point x="338" y="-135" type="curve"/>
      <point x="431" y="-135" type="line"/>
      <point x="476" y="-99"/>
      <point x="516" y="-63"/>
      <point x="551" y="-26" type="curve"/>
      <point x="663" y="-151" type="line"/>
      <point x="728" y="-91" type="line"/>
      <point x="603" y="39" type="line"/>
      <point x="654" y="113"/>
      <point x="683" y="193"/>
      <point x="683" y="289" type="curve" smooth="yes"/>
      <point x="683" y="385"/>
      <point x="654" y="467"/>
      <point x="603" y="540" type="curve"/>
      <point x="727" y="669" type="line"/>
      <point x="663" y="730" type="line"/>
      <point x="551" y="605" type="line"/>
      <point x="517" y="642"/>
      <point x="476" y="678"/>
      <point x="431" y="714" type="curve"/>
      <point x="337" y="714" type="line"/>
      <point x="292" y="679"/>
      <point x="252" y="643"/>
      <point x="218" y="605" type="curve"/>
      <point x="106" y="730" type="line"/>
      <point x="41" y="669" type="line"/>
      <point x="165" y="541" type="line"/>
      <point x="114" y="467"/>
      <point x="85" y="386"/>
      <point x="85" y="289" type="curve" smooth="yes"/>
      <point x="85" y="193"/>
      <point x="114" y="112"/>
      <point x="165" y="39" type="curve"/>
      <point x="41" y="-91" type="line"/>
    </contour>
    <contour>
      <point x="382" y="-63" type="line"/>
      <point x="245" y="57"/>
      <point x="178" y="148"/>
      <point x="178" y="289" type="curve" smooth="yes"/>
      <point x="178" y="430"/>
      <point x="245" y="523"/>
      <point x="382" y="643" type="curve"/>
      <point x="386" y="643" type="line"/>
      <point x="524" y="523"/>
      <point x="590" y="430"/>
      <point x="590" y="289" type="curve" smooth="yes"/>
      <point x="590" y="148"/>
      <point x="524" y="57"/>
      <point x="386" y="-63" type="curve"/>
    </contour>
  </outline>
</glyph>
<glyph name="uni10CAD" format="2">
  <advance width="788"/>
  <unicode hex="10CAD"/>
  <outline>
    <contour>
      <point x="567" y="-136" type="line"/>
      <point x="657" y="-136" type="line"/>
      <point x="657" y="492" type="line"/>
      <point x="567" y="492" type="line"/>
      <point x="220" y="231" type="line"/>
      <point x="220" y="714" type="line"/>
      <point x="130" y="714" type="line"/>
      <point x="130" y="127" type="line"/>
      <point x="220" y="127" type="line"/>
      <point x="567" y="383" type="line"/>
    </contour>
  </outline>
</glyph>
<glyph name="uni10CAE" format="2">
  <advance width="888"/>
  <unicode hex="10CAE"/>
  <outline>
    <contour>
      <point x="124" y="-135" type="line"/>
      <point x="214" y="-135" type="line"/>
      <point x="214" y="607" type="line"/>
      <point x="437" y="439" type="line"/>
      <point x="660" y="607" type="line"/>
      <point x="660" y="-135" type="line"/>
      <point x="750" y="-135" type="line"/>
      <point x="750" y="714" type="line"/>
      <point x="662" y="714" type="line"/>
      <point x="437" y="540" type="line"/>
      <point x="212" y="714" type="line"/>
      <point x="124" y="714" type="line"/>
    </contour>
  </outline>
</glyph>
<glyph name="uni10CAF" format="2">
  <advance width="820"/>
  <unicode hex="10CAF"/>
  <outline>
    <contour>
      <point x="121" y="-136" type="line"/>
      <point x="208" y="-136" type="line"/>
      <point x="615" y="123" type="line"/>
      <point x="615" y="-136" type="line"/>
      <point x="705" y="-136" type="line"/>
      <point x="705" y="714" type="line"/>
      <point x="618" y="714" type="line"/>
      <point x="211" y="457" type="line"/>
      <point x="211" y="714" type="line"/>
      <point x="121" y="714" type="line"/>
    </contour>
    <contour>
      <point x="211" y="-42" type="line"/>
      <point x="211" y="118" type="line"/>
      <point x="615" y="373" type="line"/>
      <point x="615" y="213" type="line"/>
    </contour>
    <contour>
      <point x="211" y="207" type="line"/>
      <point x="211" y="368" type="line"/>
      <point x="615" y="623" type="line"/>
      <point x="615" y="462" type="line"/>
    </contour>
  </outline>
</glyph>
<glyph name="uni10CB0" format="2">
  <advance width="796"/>
  <unicode hex="10CB0"/>
  <outline>
    <contour>
      <point x="350" y="-136" type="line"/>
      <point x="440" y="-136" type="line"/>
      <point x="440" y="228" type="line"/>
      <point x="780" y="691" type="line"/>
      <point x="706" y="742" type="line"/>
      <point x="440" y="370" type="line"/>
      <point x="440" y="714" type="line"/>
      <point x="350" y="714" type="line"/>
      <point x="350" y="370" type="line"/>
      <point x="84" y="742" type="line"/>
      <point x="10" y="691" type="line"/>
      <point x="350" y="228" type="line"/>
    </contour>
  </outline>
</glyph>
<glyph name="uni10CB1" format="2">
  <advance width="866"/>
  <unicode hex="10CB1"/>
  <outline>
    <contour>
      <point x="387" y="-136" type="line"/>
      <point x="477" y="-136" type="line"/>
      <point x="679" y="76" type="line"/>
      <point x="788" y="-38" type="line"/>
      <point x="845" y="22" type="line"/>
      <point x="677" y="190" type="line"/>
      <point x="477" y="-24" type="line"/>
      <point x="477" y="130" type="line"/>
      <point x="679" y="343" type="line"/>
      <point x="788" y="229" type="line"/>
      <point x="845" y="288" type="line"/>
      <point x="677" y="457" type="line"/>
      <point x="477" y="243" type="line"/>
      <point x="477" y="397" type="line"/>
      <point x="679" y="609" type="line"/>
      <point x="788" y="496" type="line"/>
      <point x="845" y="555" type="line"/>
      <point x="677" y="724" type="line"/>
      <point x="477" y="510" type="line"/>
      <point x="477" y="714" type="line"/>
      <point x="387" y="714" type="line"/>
      <point x="387" y="510" type="line"/>
      <point x="188" y="724" type="line"/>
      <point x="20" y="555" type="line"/>
      <point x="76" y="496" type="line"/>
      <point x="185" y="609" type="line"/>
      <point x="387" y="397" type="line"/>
      <point x="387" y="243" type="line"/>
      <point x="188" y="457" type="line"/>
      <point x="20" y="288" type="line"/>
      <point x="76" y="229" type="line"/>
      <point x="185" y="343" type="line"/>
      <point x="387" y="130" type="line"/>
      <point x="387" y="-24" type="line"/>
      <point x="188" y="190" type="line"/>
      <point x="20" y="22" type="line"/>
      <point x="76" y="-38" type="line"/>
      <point x="185" y="76" type="line"/>
    </contour>
  </outline>
</glyph>
<glyph name="uni10CB2" format="2">
  <advance width="769"/>
  <unicode hex="10CB2"/>
  <outline>
    <contour>
      <point x="335" y="-135" type="curve"/>
      <point x="434" y="-135" type="line"/>
      <point x="589" y="-12"/>
      <point x="691" y="113"/>
      <point x="691" y="289" type="curve" smooth="yes"/>
      <point x="691" y="466"/>
      <point x="589" y="592"/>
      <point x="434" y="714" type="curve"/>
      <point x="335" y="714" type="line"/>
      <point x="180" y="592"/>
      <point x="78" y="466"/>
      <point x="78" y="289" type="curve" smooth="yes"/>
      <point x="78" y="113"/>
      <point x="180" y="-12"/>
    </contour>
    <contour>
      <point x="342" y="-35" type="line"/>
      <point x="227" y="72"/>
      <point x="173" y="160"/>
      <point x="173" y="289" type="curve" smooth="yes"/>
      <point x="173" y="419"/>
      <point x="227" y="507"/>
      <point x="342" y="614" type="curve"/>
    </contour>
    <contour>
      <point x="427" y="-35" type="curve"/>
      <point x="427" y="614" type="line"/>
      <point x="541" y="507"/>
      <point x="595" y="419"/>
      <point x="595" y="289" type="curve" smooth="yes"/>
      <point x="595" y="160"/>
      <point x="541" y="72"/>
    </contour>
  </outline>
</glyph>
<glyph name="uni10CC1" format="2">
  <advance width="433"/>
  <unicode hex="10CC1"/>
  <outline>
    <contour>
      <point x="251" y="0" type="line"/>
      <point x="338" y="0" type="line"/>
      <point x="338" y="600" type="line"/>
      <point x="253" y="600" type="line"/>
      <point x="42" y="414" type="line"/>
      <point x="42" y="334" type="line"/>
      <point x="251" y="164" type="line"/>
    </contour>
    <contour>
      <point x="251" y="268" type="line"/>
      <point x="118" y="375" type="line"/>
      <point x="251" y="495" type="line"/>
    </contour>
  </outline>
</glyph>
<glyph name="uni10CC2" format="2">
  <advance width="538"/>
  <unicode hex="10CC2"/>
  <outline>
    <contour>
      <point x="10" y="0" type="line"/>
      <point x="104" y="0" type="line"/>
      <point x="267" y="253" type="line"/>
      <point x="427" y="0" type="line"/>
      <point x="528" y="0" type="line"/>
      <point x="321" y="313" type="line"/>
      <point x="513" y="600" type="line"/>
      <point x="419" y="600" type="line"/>
      <point x="270" y="371" type="line"/>
      <point x="121" y="600" type="line"/>
      <point x="22" y="600" type="line"/>
      <point x="217" y="311" type="line"/>
    </contour>
  </outline>
</glyph>
<glyph name="uni10CC3" format="2">
  <advance width="751"/>
  <unicode hex="10CC3"/>
  <outline>
    <contour>
      <point x="193" y="-1" type="line"/>
      <point x="257" y="74" type="line"/>
      <point x="282" y="49"/>
      <point x="311" y="24"/>
      <point x="343" y="0" type="curve"/>
      <point x="412" y="0" type="line"/>
      <point x="443" y="24"/>
      <point x="472" y="48"/>
      <point x="497" y="73" type="curve"/>
      <point x="559" y="-1" type="line"/>
      <point x="711" y="65" type="line"/>
      <point x="683" y="131" type="line"/>
      <point x="581" y="83" type="line"/>
      <point x="545" y="130" type="line"/>
      <point x="581" y="180"/>
      <point x="601" y="235"/>
      <point x="601" y="300" type="curve" smooth="yes"/>
      <point x="601" y="365"/>
      <point x="581" y="420"/>
      <point x="545" y="470" type="curve"/>
      <point x="581" y="515" type="line"/>
      <point x="683" y="467" type="line"/>
      <point x="711" y="535" type="line"/>
      <point x="559" y="600" type="line"/>
      <point x="497" y="527" type="line"/>
      <point x="472" y="552"/>
      <point x="443" y="576"/>
      <point x="412" y="600" type="curve"/>
      <point x="343" y="600" type="line"/>
      <point x="311" y="575"/>
      <point x="282" y="551"/>
      <point x="256" y="525" type="curve"/>
      <point x="193" y="600" type="line"/>
      <point x="40" y="535" type="line"/>
      <point x="70" y="467" type="line"/>
      <point x="170" y="515" type="line"/>
      <point x="208" y="467" type="line"/>
      <point x="174" y="418"/>
      <point x="155" y="363"/>
      <point x="155" y="300" type="curve" smooth="yes"/>
      <point x="155" y="236"/>
      <point x="174" y="181"/>
      <point x="208" y="132" type="curve"/>
      <point x="170" y="83" type="line"/>
      <point x="70" y="131" type="line"/>
      <point x="40" y="65" type="line"/>
    </contour>
    <contour>
      <point x="377" y="64" type="line"/>
      <point x="281" y="145"/>
      <point x="238" y="205"/>
      <point x="238" y="300" type="curve" smooth="yes"/>
      <point x="238" y="393"/>
      <point x="280" y="454"/>
      <point x="377" y="536" type="curve"/>
      <point x="379" y="536" type="line"/>
      <point x="474" y="454"/>
      <point x="518" y="393"/>
      <point x="518" y="300" type="curve" smooth="yes"/>
      <point x="518" y="206"/>
      <point x="475" y="145"/>
      <point x="379" y="64" type="curve"/>
    </contour>
  </outline>
</glyph>
<glyph name="uni10CC6" format="2">
  <advance width="615"/>
  <unicode hex="10CC6"/>
  <outline>
    <contour>
      <point x="95" y="0" type="line"/>
      <point x="171" y="0" type="line"/>
      <point x="435" y="170" type="line"/>
      <point x="435" y="0" type="line"/>
      <point x="520" y="0" type="line"/>
      <point x="520" y="600" type="line"/>
      <point x="444" y="600" type="line"/>
      <point x="180" y="428" type="line"/>
      <point x="180" y="600" type="line"/>
      <point x="95" y="600" type="line"/>
    </contour>
    <contour>
      <point x="180" y="91" type="line"/>
      <point x="180" y="343" type="line"/>
      <point x="435" y="510" type="line"/>
      <point x="435" y="255" type="line"/>
    </contour>
  </outline>
</glyph>
<glyph name="uni10CC9" format="2">
  <advance width="411"/>
  <unicode hex="10CC9"/>
  <outline>
    <contour>
      <point x="311" y="-27" type="line"/>
      <point x="354" y="33" type="line"/>
      <point x="286" y="95" type="line"/>
      <point x="354" y="153"/>
      <point x="383" y="216"/>
      <point x="383" y="300" type="curve" smooth="yes"/>
      <point x="383" y="382"/>
      <point x="355" y="444"/>
      <point x="289" y="502" type="curve"/>
      <point x="354" y="561" type="line"/>
      <point x="311" y="621" type="line"/>
      <point x="229" y="546" type="line"/>
      <point x="192" y="570"/>
      <point x="147" y="594"/>
      <point x="95" y="618" type="curve"/>
      <point x="50" y="551" type="line"/>
      <point x="97" y="529"/>
      <point x="135" y="509"/>
      <point x="167" y="490" type="curve"/>
      <point x="90" y="420" type="line"/>
      <point x="138" y="365" type="line"/>
      <point x="227" y="446" type="line"/>
      <point x="277" y="403"/>
      <point x="294" y="359"/>
      <point x="294" y="300" type="curve" smooth="yes"/>
      <point x="294" y="239"/>
      <point x="277" y="192"/>
      <point x="227" y="148" type="curve"/>
      <point x="138" y="229" type="line"/>
      <point x="90" y="174" type="line"/>
      <point x="166" y="104" type="line"/>
      <point x="136" y="86"/>
      <point x="99" y="67"/>
      <point x="54" y="47" type="curve"/>
      <point x="91" y="-20" type="line"/>
      <point x="144" y="4"/>
      <point x="188" y="27"/>
      <point x="226" y="51" type="curve"/>
    </contour>
  </outline>
</glyph>
<glyph name="uni10CCA" format="2">
  <advance width="428"/>
  <unicode hex="10CCA"/>
  <outline>
    <contour>
      <point x="91" y="-20" type="line"/>
      <point x="143" y="4"/>
      <point x="187" y="27"/>
      <point x="224" y="50" type="curve"/>
      <point x="261" y="27"/>
      <point x="305" y="4"/>
      <point x="357" y="-20" type="curve"/>
      <point x="394" y="47" type="line"/>
      <point x="354" y="65"/>
      <point x="320" y="82"/>
      <point x="291" y="99" type="curve"/>
      <point x="356" y="156"/>
      <point x="383" y="218"/>
      <point x="383" y="300" type="curve" smooth="yes"/>
      <point x="383" y="379"/>
      <point x="356" y="441"/>
      <point x="294" y="497" type="curve"/>
      <point x="323" y="514"/>
      <point x="357" y="532"/>
      <point x="398" y="551" type="curve"/>
      <point x="353" y="618" type="line"/>
      <point x="303" y="595"/>
      <point x="260" y="572"/>
      <point x="224" y="549" type="curve"/>
      <point x="188" y="572"/>
      <point x="145" y="595"/>
      <point x="95" y="618" type="curve"/>
      <point x="50" y="551" type="line"/>
      <point x="91" y="532"/>
      <point x="125" y="514"/>
      <point x="154" y="497" type="curve"/>
      <point x="92" y="441"/>
      <point x="65" y="379"/>
      <point x="65" y="300" type="curve" smooth="yes"/>
      <point x="65" y="218"/>
      <point x="92" y="156"/>
      <point x="157" y="99" type="curve"/>
      <point x="128" y="82"/>
      <point x="94" y="65"/>
      <point x="54" y="47" type="curve"/>
    </contour>
    <contour>
      <point x="224" y="146" type="curve"/>
      <point x="172" y="191"/>
      <point x="154" y="238"/>
      <point x="154" y="300" type="curve" smooth="yes"/>
      <point x="154" y="360"/>
      <point x="172" y="405"/>
      <point x="224" y="449" type="curve"/>
      <point x="276" y="405"/>
      <point x="294" y="360"/>
      <point x="294" y="300" type="curve" smooth="yes"/>
      <point x="294" y="238"/>
      <point x="276" y="191"/>
    </contour>
  </outline>
</glyph>
<glyph name="uni10CCB" format="2">
  <advance width="354"/>
  <unicode hex="10CCB"/>
  <outline>
    <contour>
      <point x="196" y="-41" type="line"/>
      <point x="247" y="20" type="line"/>
      <point x="167" y="86" type="line"/>
      <point x="270" y="154"/>
      <point x="309" y="217"/>
      <point x="309" y="300" type="curve" smooth="yes"/>
      <point x="309" y="382"/>
      <point x="270" y="445"/>
      <point x="166" y="514" type="curve"/>
      <point x="247" y="580" type="line"/>
      <point x="196" y="639" type="line"/>
      <point x="34" y="502" type="line"/>
      <point x="90" y="471" type="line"/>
      <point x="185" y="413"/>
      <point x="223" y="361"/>
      <point x="223" y="300" type="curve" smooth="yes"/>
      <point x="223" y="241"/>
      <point x="189" y="191"/>
      <point x="104" y="137" type="curve"/>
      <point x="34" y="97" type="line"/>
    </contour>
  </outline>
</glyph>
<glyph name="uni10CCC" format="2">
  <advance width="556"/>
  <unicode hex="10CCC"/>
  <outline>
    <contour>
      <point x="243" y="0" type="curve"/>
      <point x="312" y="0" type="line"/>
      <point x="425" y="85"/>
      <point x="501" y="174"/>
      <point x="501" y="300" type="curve" smooth="yes"/>
      <point x="501" y="425"/>
      <point x="425" y="514"/>
      <point x="312" y="600" type="curve"/>
      <point x="243" y="600" type="line"/>
      <point x="130" y="514"/>
      <point x="55" y="425"/>
      <point x="55" y="300" type="curve" smooth="yes"/>
      <point x="55" y="174"/>
      <point x="130" y="85"/>
    </contour>
    <contour>
      <point x="277" y="64" type="line"/>
      <point x="242" y="93"/>
      <point x="214" y="120"/>
      <point x="192" y="147" type="curve"/>
      <point x="278" y="247" type="line"/>
      <point x="364" y="147" type="line"/>
      <point x="342" y="120"/>
      <point x="314" y="93"/>
      <point x="279" y="64" type="curve"/>
    </contour>
    <contour>
      <point x="154" y="207" type="line"/>
      <point x="142" y="235"/>
      <point x="136" y="265"/>
      <point x="136" y="300" type="curve" smooth="yes"/>
      <point x="136" y="334"/>
      <point x="142" y="364"/>
      <point x="154" y="392" type="curve"/>
      <point x="234" y="298" type="line"/>
    </contour>
    <contour>
      <point x="402" y="208" type="curve"/>
      <point x="322" y="298" type="line"/>
      <point x="402" y="391" type="line"/>
      <point x="414" y="363"/>
      <point x="420" y="334"/>
      <point x="420" y="300" type="curve" smooth="yes"/>
      <point x="420" y="266"/>
      <point x="414" y="236"/>
    </contour>
    <contour>
      <point x="278" y="349" type="line"/>
      <point x="190" y="450" type="line"/>
      <point x="212" y="477"/>
      <point x="241" y="505"/>
      <point x="277" y="536" type="curve"/>
      <point x="279" y="536" type="line"/>
      <point x="315" y="505"/>
      <point x="344" y="477"/>
      <point x="366" y="449" type="curve"/>
    </contour>
  </outline>
</glyph>
<glyph name="uni10CD1" format="2">
  <advance width="421"/>
  <unicode hex="10CD1"/>
  <outline>
    <contour>
      <point x="186" y="0" type="line"/>
      <point x="273" y="0" type="line"/>
      <point x="273" y="558" type="line"/>
      <point x="421" y="640" type="line"/>
      <point x="392" y="703" type="line"/>
      <point x="8" y="492" type="line"/>
      <point x="43" y="430" type="line"/>
      <point x="186" y="509" type="line"/>
    </contour>
  </outline>
</glyph>
<glyph name="uni10CD2" format="2">
  <advance width="407"/>
  <unicode hex="10CD2"/>
  <outline>
    <contour>
      <point x="225" y="0" type="line"/>
      <point x="312" y="0" type="line"/>
      <point x="312" y="600" type="line"/>
      <point x="235" y="600" type="line"/>
      <point x="11" y="383" type="line"/>
      <point x="65" y="331" type="line"/>
      <point x="225" y="485" type="line"/>
    </contour>
  </outline>
</glyph>
<glyph name="uni10CD6" format="2">
  <advance width="612"/>
  <unicode hex="10CD6"/>
  <outline>
    <contour>
      <point x="5" y="0" type="line"/>
      <point x="90" y="0" type="line"/>
      <point x="255" y="371" type="line" smooth="yes"/>
      <point x="280" y="428"/>
      <point x="294" y="466"/>
      <point x="304" y="498" type="curve"/>
      <point x="308" y="498" type="line"/>
      <point x="316" y="472"/>
      <point x="329" y="437"/>
      <point x="344" y="399" type="curve"/>
      <point x="173" y="0" type="line"/>
      <point x="257" y="0" type="line"/>
      <point x="385" y="305" type="line"/>
      <point x="426" y="212" type="line"/>
      <point x="339" y="0" type="line"/>
      <point x="423" y="0" type="line"/>
      <point x="468" y="117" type="line"/>
      <point x="519" y="0" type="line"/>
      <point x="607" y="0" type="line"/>
      <point x="341" y="600" type="line"/>
      <point x="270" y="600" type="line"/>
    </contour>
  </outline>
</glyph>
<glyph name="uni10CD7" format="2">
  <advance width="556"/>
  <unicode hex="10CD7"/>
  <outline>
    <contour>
      <point x="243" y="0" type="curve"/>
      <point x="312" y="0" type="line"/>
      <point x="425" y="85"/>
      <point x="501" y="174"/>
      <point x="501" y="300" type="curve" smooth="yes"/>
      <point x="501" y="425"/>
      <point x="425" y="514"/>
      <point x="312" y="600" type="curve"/>
      <point x="243" y="600" type="line"/>
      <point x="130" y="514"/>
      <point x="55" y="425"/>
      <point x="55" y="300" type="curve" smooth="yes"/>
      <point x="55" y="174"/>
      <point x="130" y="85"/>
    </contour>
    <contour>
      <point x="277" y="64" type="line"/>
      <point x="242" y="93"/>
      <point x="214" y="120"/>
      <point x="193" y="147" type="curve"/>
      <point x="401" y="389" type="line"/>
      <point x="412" y="362"/>
      <point x="418" y="333"/>
      <point x="418" y="300" type="curve" smooth="yes"/>
      <point x="418" y="206"/>
      <point x="375" y="145"/>
      <point x="279" y="64" type="curve"/>
    </contour>
    <contour>
      <point x="155" y="208" type="line"/>
      <point x="144" y="236"/>
      <point x="138" y="266"/>
      <point x="138" y="300" type="curve" smooth="yes"/>
      <point x="138" y="393"/>
      <point x="180" y="454"/>
      <point x="277" y="536" type="curve"/>
      <point x="279" y="536" type="line"/>
      <point x="315" y="505"/>
      <point x="344" y="476"/>
      <point x="366" y="448" type="curve"/>
    </contour>
  </outline>
</glyph>
<glyph name="uni10CD8" format="2">
  <advance width="481"/>
  <unicode hex="10CD8"/>
  <outline>
    <contour>
      <point x="307" y="0" type="line"/>
      <point x="386" y="0" type="line"/>
      <point x="386" y="600" type="line"/>
      <point x="303" y="600" type="line"/>
      <point x="48" y="479" type="line"/>
      <point x="48" y="380" type="line"/>
      <point x="190" y="303" type="line"/>
      <point x="48" y="231" type="line"/>
      <point x="48" y="132" type="line"/>
    </contour>
    <contour>
      <point x="306" y="93" type="line"/>
      <point x="121" y="185" type="line"/>
      <point x="306" y="284" type="line"/>
    </contour>
    <contour>
      <point x="306" y="320" type="line"/>
      <point x="121" y="426" type="line"/>
      <point x="306" y="514" type="line"/>
    </contour>
  </outline>
</glyph>
<glyph name="uni10CD9" format="2">
  <advance width="420"/>
  <unicode hex="10CD9"/>
  <outline>
    <contour>
      <point x="73" y="-20" type="line"/>
      <point x="284" y="76"/>
      <point x="365" y="160"/>
      <point x="365" y="300" type="curve" smooth="yes"/>
      <point x="365" y="438"/>
      <point x="284" y="522"/>
      <point x="77" y="618" type="curve"/>
      <point x="32" y="551" type="line"/>
      <point x="223" y="461"/>
      <point x="276" y="404"/>
      <point x="276" y="300" type="curve" smooth="yes"/>
      <point x="276" y="193"/>
      <point x="223" y="131"/>
      <point x="36" y="47" type="curve"/>
    </contour>
  </outline>
</glyph>
<glyph name="uni10CDA" format="2">
  <advance width="490"/>
  <unicode hex="10CDA"/>
  <outline>
    <contour>
      <point x="95" y="0" type="line"/>
      <point x="180" y="0" type="line"/>
      <point x="364" y="95"/>
      <point x="435" y="177"/>
      <point x="435" y="300" type="curve" smooth="yes"/>
      <point x="435" y="418"/>
      <point x="361" y="503"/>
      <point x="180" y="600" type="curve"/>
      <point x="95" y="600" type="line"/>
    </contour>
    <contour>
      <point x="180" y="87" type="curve"/>
      <point x="180" y="512" type="line"/>
      <point x="313" y="435"/>
      <point x="348" y="380"/>
      <point x="348" y="300" type="curve" smooth="yes"/>
      <point x="348" y="213"/>
      <point x="303" y="154"/>
    </contour>
  </outline>
</glyph>
<glyph name="uni10CDB" format="2">
  <advance width="473"/>
  <unicode hex="10CDB"/>
  <outline>
    <contour>
      <point x="211" y="-22" type="line"/>
      <point x="349" y="80"/>
      <point x="418" y="168"/>
      <point x="418" y="295" type="curve" smooth="yes"/>
      <point x="418" y="415"/>
      <point x="363" y="503"/>
      <point x="211" y="624" type="curve"/>
      <point x="32" y="455" type="line"/>
      <point x="90" y="397" type="line"/>
      <point x="212" y="514" type="line"/>
      <point x="302" y="435"/>
      <point x="331" y="377"/>
      <point x="331" y="295" type="curve" smooth="yes"/>
      <point x="331" y="214"/>
      <point x="301" y="152"/>
      <point x="219" y="81" type="curve"/>
      <point x="90" y="204" type="line"/>
      <point x="32" y="146" type="line"/>
    </contour>
  </outline>
</glyph>
<glyph name="uni10CDC" format="2">
  <advance width="507"/>
  <unicode hex="10CDC"/>
  <outline>
    <contour>
      <point x="241" y="-21" type="line"/>
      <point x="384" y="80"/>
      <point x="452" y="167"/>
      <point x="452" y="293" type="curve" smooth="yes"/>
      <point x="452" y="412"/>
      <point x="397" y="500"/>
      <point x="241" y="618" type="curve"/>
      <point x="187" y="554" type="line"/>
      <point x="325" y="450"/>
      <point x="366" y="387"/>
      <point x="366" y="293" type="curve" smooth="yes"/>
      <point x="366" y="212"/>
      <point x="336" y="151"/>
      <point x="250" y="80" type="curve"/>
      <point x="141" y="187" type="line"/>
      <point x="239" y="290" type="line"/>
      <point x="182" y="348" type="line"/>
      <point x="28" y="182" type="line"/>
    </contour>
  </outline>
</glyph>
<glyph name="uni10CDD" format="2">
  <advance width="370"/>
  <unicode hex="10CDD"/>
  <outline>
    <contour>
      <point x="263" y="-18" type="line"/>
      <point x="320" y="41" type="line"/>
      <point x="140" y="211" type="line"/>
      <point x="337" y="394" type="line"/>
      <point x="104" y="618" type="line"/>
      <point x="47" y="559" type="line"/>
      <point x="231" y="390" type="line"/>
      <point x="33" y="207" type="line"/>
    </contour>
  </outline>
</glyph>
<glyph name="uni10CDE" format="2">
  <advance width="492"/>
  <unicode hex="10CDE"/>
  <outline>
    <contour>
      <point x="95" y="0" type="line"/>
      <point x="182" y="0" type="line"/>
      <point x="182" y="300" type="line"/>
      <point x="372" y="0" type="line"/>
      <point x="474" y="0" type="line"/>
      <point x="269" y="307" type="line"/>
      <point x="467" y="600" type="line"/>
      <point x="370" y="600" type="line"/>
      <point x="182" y="308" type="line"/>
      <point x="182" y="600" type="line"/>
      <point x="95" y="600" type="line"/>
    </contour>
  </outline>
</glyph>
<glyph name="uni10CDF" format="2">
  <advance width="541"/>
  <unicode hex="10CDF"/>
  <outline>
    <contour>
      <point x="241" y="-21" type="line"/>
      <point x="298" y="19"/>
      <point x="343" y="57"/>
      <point x="376" y="96" type="curve"/>
      <point x="445" y="38" type="line"/>
      <point x="490" y="88" type="line"/>
      <point x="416" y="151" type="line"/>
      <point x="440" y="194"/>
      <point x="452" y="240"/>
      <point x="452" y="293" type="curve" smooth="yes"/>
      <point x="452" y="347"/>
      <point x="441" y="394"/>
      <point x="414" y="441" type="curve"/>
      <point x="487" y="503" type="line"/>
      <point x="442" y="552" type="line"/>
      <point x="375" y="496" type="line"/>
      <point x="343" y="535"/>
      <point x="299" y="574"/>
      <point x="241" y="618" type="curve"/>
      <point x="187" y="554" type="line"/>
      <point x="243" y="512"/>
      <point x="283" y="476"/>
      <point x="311" y="442" type="curve"/>
      <point x="268" y="406" type="line"/>
      <point x="314" y="356" type="line"/>
      <point x="348" y="385" type="line"/>
      <point x="361" y="356"/>
      <point x="366" y="326"/>
      <point x="366" y="293" type="curve" smooth="yes"/>
      <point x="366" y="261"/>
      <point x="361" y="233"/>
      <point x="351" y="206" type="curve"/>
      <point x="315" y="236" type="line"/>
      <point x="269" y="187" type="line"/>
      <point x="317" y="147" type="line"/>
      <point x="300" y="125"/>
      <point x="278" y="103"/>
      <point x="250" y="80" type="curve"/>
      <point x="141" y="187" type="line"/>
      <point x="239" y="290" type="line"/>
      <point x="182" y="348" type="line"/>
      <point x="28" y="182" type="line"/>
    </contour>
  </outline>
</glyph>
<glyph name="uni10CE0" format="2">
  <advance width="453"/>
  <unicode hex="10CE0"/>
  <outline>
    <contour>
      <point x="92" y="-9" type="line"/>
      <point x="273" y="144" type="line"/>
      <point x="273" y="0" type="line"/>
      <point x="358" y="0" type="line"/>
      <point x="358" y="600" type="line"/>
      <point x="283" y="600" type="line"/>
      <point x="42" y="401" type="line"/>
      <point x="92" y="348" type="line"/>
      <point x="273" y="501" type="line"/>
      <point x="273" y="411" type="line"/>
      <point x="42" y="223" type="line"/>
      <point x="92" y="170" type="line"/>
      <point x="273" y="322" type="line"/>
      <point x="273" y="232" type="line"/>
      <point x="42" y="45" type="line"/>
    </contour>
  </outline>
</glyph>
<glyph name="uni10CE1" format="2">
  <advance width="746"/>
  <unicode hex="10CE1"/>
  <outline>
    <contour>
      <point x="170" y="-17" type="line"/>
      <point x="255" y="71" type="line"/>
      <point x="279" y="46"/>
      <point x="307" y="23"/>
      <point x="338" y="0" type="curve"/>
      <point x="407" y="0" type="line"/>
      <point x="438" y="23"/>
      <point x="466" y="47"/>
      <point x="491" y="71" type="curve"/>
      <point x="576" y="-17" type="line"/>
      <point x="635" y="36" type="line"/>
      <point x="539" y="127" type="line"/>
      <point x="562" y="160"/>
      <point x="579" y="194"/>
      <point x="588" y="231" type="curve"/>
      <point x="694" y="174" type="line"/>
      <point x="732" y="241" type="line"/>
      <point x="596" y="311" type="line"/>
      <point x="594" y="371"/>
      <point x="574" y="421"/>
      <point x="540" y="466" type="curve"/>
      <point x="664" y="406" type="line"/>
      <point x="699" y="475" type="line"/>
      <point x="409" y="600" type="line"/>
      <point x="337" y="600" type="line"/>
      <point x="47" y="475" type="line"/>
      <point x="82" y="406" type="line"/>
      <point x="205" y="465" type="line"/>
      <point x="172" y="421"/>
      <point x="152" y="371"/>
      <point x="150" y="311" type="curve"/>
      <point x="14" y="241" type="line"/>
      <point x="52" y="174" type="line"/>
      <point x="158" y="231" type="line"/>
      <point x="167" y="194"/>
      <point x="184" y="159"/>
      <point x="207" y="127" type="curve"/>
      <point x="111" y="36" type="line"/>
    </contour>
    <contour>
      <point x="372" y="64" type="line"/>
      <point x="276" y="145"/>
      <point x="233" y="205"/>
      <point x="233" y="300" type="curve" smooth="yes"/>
      <point x="233" y="396"/>
      <point x="275" y="462"/>
      <point x="372" y="536" type="curve"/>
      <point x="374" y="536" type="line"/>
      <point x="469" y="462"/>
      <point x="513" y="396"/>
      <point x="513" y="300" type="curve" smooth="yes"/>
      <point x="513" y="206"/>
      <point x="470" y="145"/>
      <point x="374" y="64" type="curve"/>
    </contour>
  </outline>
</glyph>
<glyph name="uni10CE3" format="2">
  <advance width="441"/>
  <unicode hex="10CE3"/>
  <outline>
    <contour>
      <point x="66" y="177" type="line"/>
      <point x="409" y="372" type="line"/>
      <point x="369" y="440" type="line"/>
      <point x="27" y="245" type="line"/>
    </contour>
  </outline>
</glyph>
<glyph name="uni10CE4" format="2">
  <advance width="566"/>
  <unicode hex="10CE4"/>
  <outline>
    <contour>
      <point x="5" y="0" type="line"/>
      <point x="92" y="0" type="line"/>
      <point x="239" y="371" type="line" smooth="yes"/>
      <point x="262" y="429"/>
      <point x="273" y="461"/>
      <point x="281" y="496" type="curve"/>
      <point x="285" y="496" type="line"/>
      <point x="293" y="463"/>
      <point x="306" y="420"/>
      <point x="325" y="371" type="curve" smooth="yes"/>
      <point x="472" y="0" type="line"/>
      <point x="561" y="0" type="line"/>
      <point x="318" y="600" type="line"/>
      <point x="247" y="600" type="line"/>
    </contour>
  </outline>
</glyph>
<glyph name="uni10CEB" format="2">
  <advance width="710"/>
  <unicode hex="10CEB"/>
  <outline>
    <contour>
      <point x="95" y="0" type="line"/>
      <point x="173" y="0" type="line"/>
      <point x="356" y="243" type="line"/>
      <point x="542" y="0" type="line"/>
      <point x="615" y="0" type="line"/>
      <point x="615" y="600" type="line"/>
      <point x="542" y="600" type="line"/>
      <point x="356" y="355" type="line"/>
      <point x="173" y="600" type="line"/>
      <point x="95" y="600" type="line"/>
    </contour>
    <contour>
      <point x="175" y="131" type="line"/>
      <point x="175" y="467" type="line"/>
      <point x="178" y="467" type="line"/>
      <point x="309" y="300" type="line"/>
      <point x="178" y="131" type="line"/>
    </contour>
    <contour>
      <point x="537" y="126" type="line"/>
      <point x="403" y="300" type="line"/>
      <point x="537" y="472" type="line"/>
      <point x="540" y="472" type="line"/>
      <point x="540" y="126" type="line"/>
    </contour>
  </outline>
</glyph>
<glyph name="uni10CEC" format="2">
  <advance width="589"/>
  <unicode hex="10CEC"/>
  <outline>
    <contour>
      <point x="97" y="-15" type="line"/>
      <point x="176" y="71" type="line"/>
      <point x="200" y="47"/>
      <point x="228" y="23"/>
      <point x="259" y="0" type="curve"/>
      <point x="328" y="0" type="line"/>
      <point x="359" y="23"/>
      <point x="387" y="47"/>
      <point x="412" y="71" type="curve"/>
      <point x="492" y="-15" type="line"/>
      <point x="551" y="38" type="line"/>
      <point x="461" y="129" type="line"/>
      <point x="496" y="179"/>
      <point x="517" y="235"/>
      <point x="517" y="300" type="curve" smooth="yes"/>
      <point x="517" y="365"/>
      <point x="496" y="420"/>
      <point x="461" y="471" type="curve"/>
      <point x="551" y="560" type="line"/>
      <point x="492" y="613" type="line"/>
      <point x="412" y="528" type="line"/>
      <point x="387" y="552"/>
      <point x="359" y="576"/>
      <point x="328" y="600" type="curve"/>
      <point x="259" y="600" type="line"/>
      <point x="228" y="577"/>
      <point x="200" y="553"/>
      <point x="176" y="528" type="curve"/>
      <point x="97" y="613" type="line"/>
      <point x="38" y="560" type="line"/>
      <point x="127" y="471" type="line"/>
      <point x="91" y="421"/>
      <point x="71" y="365"/>
      <point x="71" y="300" type="curve" smooth="yes"/>
      <point x="71" y="234"/>
      <point x="91" y="179"/>
      <point x="127" y="129" type="curve"/>
      <point x="38" y="38" type="line"/>
    </contour>
    <contour>
      <point x="293" y="64" type="line"/>
      <point x="197" y="145"/>
      <point x="154" y="205"/>
      <point x="154" y="300" type="curve" smooth="yes"/>
      <point x="154" y="393"/>
      <point x="196" y="454"/>
      <point x="293" y="536" type="curve"/>
      <point x="295" y="536" type="line"/>
      <point x="390" y="454"/>
      <point x="434" y="393"/>
      <point x="434" y="300" type="curve" smooth="yes"/>
      <point x="434" y="206"/>
      <point x="391" y="145"/>
      <point x="295" y="64" type="curve"/>
    </contour>
  </outline>
</glyph>
<glyph name="uni10CEF" format="2">
  <advance width="615"/>
  <unicode hex="10CEF"/>
  <outline>
    <contour>
      <point x="95" y="0" type="line"/>
      <point x="180" y="0" type="line"/>
      <point x="435" y="173" type="line"/>
      <point x="435" y="0" type="line"/>
      <point x="520" y="0" type="line"/>
      <point x="520" y="600" type="line"/>
      <point x="435" y="600" type="line"/>
      <point x="180" y="427" type="line"/>
      <point x="180" y="600" type="line"/>
      <point x="95" y="600" type="line"/>
    </contour>
    <contour>
      <point x="180" y="81" type="line"/>
      <point x="180" y="173" type="line"/>
      <point x="435" y="346" type="line"/>
      <point x="435" y="254" type="line"/>
    </contour>
    <contour>
      <point x="180" y="254" type="line"/>
      <point x="180" y="346" type="line"/>
      <point x="435" y="519" type="line"/>
      <point x="435" y="427" type="line"/>
    </contour>
  </outline>
</glyph>
<glyph name="uni10CF2" format="2">
  <advance width="556"/>
  <unicode hex="10CF2"/>
  <outline>
    <contour>
      <point x="243" y="0" type="curve"/>
      <point x="312" y="0" type="line"/>
      <point x="425" y="85"/>
      <point x="501" y="174"/>
      <point x="501" y="300" type="curve" smooth="yes"/>
      <point x="501" y="425"/>
      <point x="425" y="514"/>
      <point x="312" y="600" type="curve"/>
      <point x="243" y="600" type="line"/>
      <point x="130" y="514"/>
      <point x="55" y="425"/>
      <point x="55" y="300" type="curve" smooth="yes"/>
      <point x="55" y="174"/>
      <point x="130" y="85"/>
    </contour>
    <contour>
      <point x="240" y="97" type="line"/>
      <point x="170" y="162"/>
      <point x="138" y="218"/>
      <point x="138" y="300" type="curve" smooth="yes"/>
      <point x="138" y="380"/>
      <point x="169" y="437"/>
      <point x="240" y="503" type="curve"/>
    </contour>
    <contour>
      <point x="317" y="98" type="curve"/>
      <point x="317" y="502" type="line"/>
      <point x="386" y="436"/>
      <point x="418" y="380"/>
      <point x="418" y="300" type="curve" smooth="yes"/>
      <point x="418" y="219"/>
      <point x="386" y="163"/>
    </contour>
  </outline>
</glyph>
<glyph name="uni10CFB" format="2">
  <advance width="566"/>
  <unicode hex="10CFB"/>
  <outline>
    <contour>
      <point x="248" y="0" type="line"/>
      <point x="319" y="0" type="line"/>
      <point x="561" y="600" type="line"/>
      <point x="474" y="600" type="line"/>
      <point x="327" y="229" type="line" smooth="yes"/>
      <point x="304" y="171"/>
      <point x="293" y="139"/>
      <point x="285" y="104" type="curve"/>
      <point x="281" y="104" type="line"/>
      <point x="273" y="137"/>
      <point x="260" y="180"/>
      <point x="241" y="229" type="curve" smooth="yes"/>
      <point x="94" y="600" type="line"/>
      <point x="5" y="600" type="line"/>
    </contour>
  </outline>
</glyph>
<glyph name="uni10CFD" format="2">
  <advance width="566"/>
  <unicode hex="10CFD"/>
  <outline>
    <contour>
      <point x="237" y="0" type="line"/>
      <point x="330" y="0" type="line"/>
      <point x="564" y="600" type="line"/>
      <point x="474" y="600" type="line"/>
      <point x="352" y="265" type="line" smooth="yes"/>
      <point x="341" y="234"/>
      <point x="332" y="206"/>
      <point x="324" y="182" type="curve"/>
      <point x="327" y="600" type="line"/>
      <point x="240" y="600" type="line"/>
      <point x="243" y="183" type="line"/>
      <point x="235" y="208"/>
      <point x="226" y="236"/>
      <point x="215" y="265" type="curve" smooth="yes"/>
      <point x="94" y="600" type="line"/>
      <point x="2" y="600" type="line"/>
    </contour>
  </outline>
</glyph>
<glyph name="uni10CFE" format="2">
  <advance width="633"/>
  <unicode hex="10CFE"/>
  <outline>
    <contour>
      <point x="10" y="0" type="line"/>
      <point x="104" y="0" type="line"/>
      <point x="272" y="258" type="line"/>
      <point x="274" y="258" type="line"/>
      <point x="274" y="0" type="line"/>
      <point x="359" y="0" type="line"/>
      <point x="359" y="258" type="line"/>
      <point x="361" y="258" type="line"/>
      <point x="522" y="0" type="line"/>
      <point x="623" y="0" type="line"/>
      <point x="416" y="313" type="line"/>
      <point x="608" y="600" type="line"/>
      <point x="514" y="600" type="line"/>
      <point x="361" y="367" type="line"/>
      <point x="359" y="367" type="line"/>
      <point x="359" y="600" type="line"/>
      <point x="274" y="600" type="line"/>
      <point x="274" y="367" type="line"/>
      <point x="272" y="367" type="line"/>
      <point x="121" y="600" type="line"/>
      <point x="22" y="600" type="line"/>
      <point x="217" y="311" type="line"/>
    </contour>
  </outline>
</glyph>
<glyph name="uni10CFF" format="2">
  <advance width="633"/>
  <unicode hex="10CFF"/>
  <outline>
    <contour>
      <point x="10" y="0" type="line"/>
      <point x="104" y="0" type="line"/>
      <point x="270" y="270" type="line"/>
      <point x="274" y="270" type="line"/>
      <point x="274" y="0" type="line"/>
      <point x="359" y="0" type="line"/>
      <point x="359" y="270" type="line"/>
      <point x="363" y="270" type="line"/>
      <point x="522" y="0" type="line"/>
      <point x="623" y="0" type="line"/>
      <point x="453" y="270" type="line"/>
      <point x="617" y="270" type="line"/>
      <point x="617" y="355" type="line"/>
      <point x="453" y="355" type="line"/>
      <point x="608" y="600" type="line"/>
      <point x="514" y="600" type="line"/>
      <point x="363" y="355" type="line"/>
      <point x="359" y="355" type="line"/>
      <point x="359" y="600" type="line"/>
      <point x="274" y="600" type="line"/>
      <point x="274" y="355" type="line"/>
      <point x="270" y="355" type="line"/>
      <point x="121" y="600" type="line"/>
      <point x="22" y="600" type="line"/>
      <point x="179" y="355" type="line"/>
      <point x="17" y="355" type="line"/>
      <point x="17" y="270" type="line"/>
      <point x="181" y="270" type="line"/>
    </contour>
  </outline>
</glyph>
<glyph name="uni10C80.ltr" format="2">
  <advance width="529"/>
  <outline>
    <contour>
      <point x="129" y="-135" type="line"/>
      <point x="219" y="-135" type="line"/>
      <point x="219" y="339" type="line"/>
      <point x="519" y="371" type="line"/>
      <point x="519" y="476" type="line"/>
      <point x="226" y="714" type="line"/>
      <point x="129" y="714" type="line"/>
    </contour>
    <contour>
      <point x="219" y="422" type="line"/>
      <point x="219" y="619" type="line"/>
      <point x="437" y="442" type="line"/>
    </contour>
  </outline>
</glyph>
<glyph name="uni10C81.ltr" format="2">
  <advance width="529"/>
  <outline>
    <contour>
      <point x="129" y="-135" type="line"/>
      <point x="219" y="-135" type="line"/>
      <point x="219" y="117" type="line"/>
      <point x="506" y="362" type="line"/>
      <point x="506" y="438" type="line"/>
      <point x="222" y="714" type="line"/>
      <point x="129" y="714" type="line"/>
    </contour>
    <contour>
      <point x="219" y="232" type="line"/>
      <point x="219" y="609" type="line"/>
      <point x="422" y="401" type="line"/>
    </contour>
  </outline>
</glyph>
<glyph name="uni10C82.ltr" format="2">
  <advance width="691"/>
  <outline>
    <contour>
      <point x="4" y="-135" type="line"/>
      <point x="116" y="-135" type="line"/>
      <point x="348" y="240" type="line"/>
      <point x="583" y="-135" type="line"/>
      <point x="687" y="-135" type="line"/>
      <point x="405" y="308" type="line"/>
      <point x="669" y="714" type="line"/>
      <point x="559" y="714" type="line"/>
      <point x="345" y="374" type="line"/>
      <point x="128" y="714" type="line"/>
      <point x="24" y="714" type="line"/>
      <point x="287" y="310" type="line"/>
    </contour>
  </outline>
</glyph>
<glyph name="uni10C83.ltr" format="2">
  <advance width="1018"/>
  <outline>
    <contour>
      <point x="461" y="-135" type="curve"/>
      <point x="554" y="-135" type="line"/>
      <point x="601" y="-98"/>
      <point x="642" y="-61"/>
      <point x="677" y="-23" type="curve"/>
      <point x="767" y="-134" type="line"/>
      <point x="963" y="-46" type="line"/>
      <point x="933" y="29" type="line"/>
      <point x="792" y="-39" type="line"/>
      <point x="730" y="44" type="line"/>
      <point x="779" y="116"/>
      <point x="807" y="195"/>
      <point x="807" y="289" type="curve" smooth="yes"/>
      <point x="807" y="383"/>
      <point x="779" y="463"/>
      <point x="730" y="536" type="curve"/>
      <point x="792" y="618" type="line"/>
      <point x="933" y="550" type="line"/>
      <point x="963" y="626" type="line"/>
      <point x="767" y="713" type="line"/>
      <point x="677" y="602" type="line"/>
      <point x="642" y="641"/>
      <point x="601" y="678"/>
      <point x="555" y="714" type="curve"/>
      <point x="461" y="714" type="line"/>
      <point x="415" y="678"/>
      <point x="375" y="642"/>
      <point x="340" y="604" type="curve"/>
      <point x="253" y="713" type="line"/>
      <point x="55" y="626" type="line"/>
      <point x="87" y="550" type="line"/>
      <point x="227" y="618" type="line"/>
      <point x="287" y="538" type="line"/>
      <point x="237" y="465"/>
      <point x="209" y="384"/>
      <point x="209" y="289" type="curve" smooth="yes"/>
      <point x="209" y="194"/>
      <point x="237" y="114"/>
      <point x="287" y="41" type="curve"/>
      <point x="227" y="-39" type="line"/>
      <point x="87" y="29" type="line"/>
      <point x="55" y="-46" type="line"/>
      <point x="253" y="-134" type="line"/>
      <point x="340" y="-25" type="line"/>
      <point x="375" y="-62"/>
      <point x="415" y="-99"/>
    </contour>
    <contour>
      <point x="506" y="-63" type="line"/>
      <point x="368" y="57"/>
      <point x="302" y="148"/>
      <point x="302" y="289" type="curve" smooth="yes"/>
      <point x="302" y="430"/>
      <point x="368" y="523"/>
      <point x="506" y="643" type="curve"/>
      <point x="510" y="643" type="line"/>
      <point x="647" y="523"/>
      <point x="714" y="430"/>
      <point x="714" y="289" type="curve" smooth="yes"/>
      <point x="714" y="148"/>
      <point x="647" y="57"/>
      <point x="510" y="-63" type="curve"/>
    </contour>
  </outline>
</glyph>
<glyph name="uni10C84.ltr" format="2">
  <advance width="620"/>
  <outline>
    <contour>
      <point x="265" y="-135" type="line"/>
      <point x="355" y="-135" type="line"/>
      <point x="355" y="590" type="line"/>
      <point x="537" y="427" type="line"/>
      <point x="596" y="491" type="line"/>
      <point x="347" y="714" type="line"/>
      <point x="273" y="714" type="line"/>
      <point x="24" y="491" type="line"/>
      <point x="83" y="427" type="line"/>
      <point x="265" y="590" type="line"/>
    </contour>
  </outline>
</glyph>
<glyph name="uni10C86.ltr" format="2">
  <advance width="832"/>
  <outline>
    <contour>
      <point x="124" y="-135" type="line"/>
      <point x="214" y="-135" type="line"/>
      <point x="214" y="124" type="line"/>
      <point x="621" y="-135" type="line"/>
      <point x="708" y="-135" type="line"/>
      <point x="708" y="714" type="line"/>
      <point x="618" y="714" type="line"/>
      <point x="618" y="456" type="line"/>
      <point x="211" y="714" type="line"/>
      <point x="124" y="714" type="line"/>
    </contour>
    <contour>
      <point x="618" y="-30" type="line"/>
      <point x="214" y="221" type="line"/>
      <point x="214" y="614" type="line"/>
      <point x="618" y="357" type="line"/>
    </contour>
  </outline>
</glyph>
<glyph name="uni10C87.ltr" format="2">
  <advance width="627"/>
  <outline>
    <contour>
      <point x="266" y="-135" type="line"/>
      <point x="362" y="-135" type="line"/>
      <point x="362" y="236" type="line"/>
      <point x="531" y="144" type="line"/>
      <point x="570" y="216" type="line"/>
      <point x="362" y="327" type="line"/>
      <point x="362" y="714" type="line"/>
      <point x="266" y="714" type="line"/>
      <point x="266" y="377" type="line"/>
      <point x="97" y="472" type="line"/>
      <point x="58" y="398" type="line"/>
      <point x="266" y="285" type="line"/>
    </contour>
  </outline>
</glyph>
<glyph name="uni10C88.ltr" format="2">
  <advance width="691"/>
  <outline>
    <contour>
      <point x="4" y="-135" type="line"/>
      <point x="116" y="-135" type="line"/>
      <point x="348" y="240" type="line"/>
      <point x="583" y="-135" type="line"/>
      <point x="687" y="-135" type="line"/>
      <point x="446" y="244" type="line"/>
      <point x="637" y="187" type="line"/>
      <point x="661" y="254" type="line"/>
      <point x="417" y="326" type="line"/>
      <point x="669" y="714" type="line"/>
      <point x="559" y="714" type="line"/>
      <point x="345" y="374" type="line"/>
      <point x="128" y="714" type="line"/>
      <point x="24" y="714" type="line"/>
      <point x="243" y="378" type="line"/>
      <point x="55" y="434" type="line"/>
      <point x="39" y="364" type="line"/>
      <point x="277" y="294" type="line"/>
    </contour>
  </outline>
</glyph>
<glyph name="uni10C89.ltr" format="2">
  <advance width="563"/>
  <outline>
    <contour>
      <point x="426" y="-159" type="curve"/>
      <point x="477" y="-88" type="line"/>
      <point x="420" y="-52"/>
      <point x="373" y="-19"/>
      <point x="335" y="13" type="curve"/>
      <point x="465" y="125" type="line"/>
      <point x="410" y="184" type="line"/>
      <point x="276" y="68" type="line"/>
      <point x="214" y="136"/>
      <point x="189" y="204"/>
      <point x="189" y="289" type="curve" smooth="yes"/>
      <point x="189" y="375"/>
      <point x="213" y="441"/>
      <point x="280" y="512" type="curve"/>
      <point x="410" y="399" type="line"/>
      <point x="465" y="459" type="line"/>
      <point x="339" y="567" type="line"/>
      <point x="378" y="599"/>
      <point x="425" y="633"/>
      <point x="482" y="671" type="curve"/>
      <point x="421" y="738" type="line"/>
      <point x="361" y="699"/>
      <point x="311" y="663"/>
      <point x="270" y="627" type="curve"/>
      <point x="145" y="735" type="line"/>
      <point x="96" y="672" type="line"/>
      <point x="211" y="572" type="line"/>
      <point x="127" y="483"/>
      <point x="95" y="397"/>
      <point x="95" y="289" type="curve" smooth="yes"/>
      <point x="95" y="182"/>
      <point x="126" y="97"/>
      <point x="209" y="10" type="curve"/>
      <point x="96" y="-88" type="line"/>
      <point x="145" y="-151" type="line"/>
      <point x="268" y="-45" type="line"/>
      <point x="311" y="-81"/>
      <point x="363" y="-119"/>
    </contour>
  </outline>
</glyph>
<glyph name="uni10C8B.ltr" format="2">
  <advance width="512"/>
  <outline>
    <contour>
      <point x="232" y="-174" type="line"/>
      <point x="424" y="-7" type="line"/>
      <point x="253" y="96"/>
      <point x="176" y="173"/>
      <point x="176" y="289" type="curve" smooth="yes"/>
      <point x="176" y="406"/>
      <point x="252" y="482"/>
      <point x="424" y="586" type="curve"/>
      <point x="232" y="752" type="line"/>
      <point x="174" y="684" type="line"/>
      <point x="281" y="595" type="line"/>
      <point x="140" y="497"/>
      <point x="82" y="409"/>
      <point x="82" y="289" type="curve" smooth="yes"/>
      <point x="82" y="171"/>
      <point x="140" y="83"/>
      <point x="281" y="-16" type="curve"/>
      <point x="174" y="-105" type="line"/>
    </contour>
  </outline>
</glyph>
<glyph name="uni10C8C.ltr" format="2">
  <advance width="769"/>
  <outline>
    <contour>
      <point x="338" y="-135" type="curve"/>
      <point x="431" y="-135" type="line"/>
      <point x="591" y="-12"/>
      <point x="688" y="113"/>
      <point x="688" y="289" type="curve" smooth="yes"/>
      <point x="688" y="466"/>
      <point x="591" y="592"/>
      <point x="432" y="714" type="curve"/>
      <point x="338" y="714" type="line"/>
      <point x="179" y="592"/>
      <point x="82" y="466"/>
      <point x="82" y="289" type="curve" smooth="yes"/>
      <point x="82" y="113"/>
      <point x="179" y="-12"/>
    </contour>
    <contour>
      <point x="383" y="-63" type="line"/>
      <point x="327" y="-16"/>
      <point x="283" y="27"/>
      <point x="250" y="71" type="curve"/>
      <point x="383" y="231" type="line"/>
      <point x="518" y="68" type="line"/>
      <point x="485" y="26"/>
      <point x="442" y="-16"/>
      <point x="387" y="-63" type="curve"/>
    </contour>
    <contour>
      <point x="209" y="135" type="line"/>
      <point x="186" y="182"/>
      <point x="175" y="231"/>
      <point x="175" y="289" type="curve" smooth="yes"/>
      <point x="175" y="346"/>
      <point x="186" y="396"/>
      <point x="209" y="442" type="curve"/>
      <point x="337" y="287" type="line"/>
    </contour>
    <contour>
      <point x="559" y="132" type="curve"/>
      <point x="430" y="287" type="line"/>
      <point x="560" y="445" type="line"/>
      <point x="584" y="397"/>
      <point x="595" y="347"/>
      <point x="595" y="289" type="curve" smooth="yes"/>
      <point x="595" y="230"/>
      <point x="583" y="180"/>
    </contour>
    <contour>
      <point x="383" y="342" type="line"/>
      <point x="247" y="505" type="line"/>
      <point x="280" y="550"/>
      <point x="325" y="594"/>
      <point x="383" y="643" type="curve"/>
      <point x="387" y="643" type="line"/>
      <point x="444" y="595"/>
      <point x="488" y="551"/>
      <point x="522" y="507" type="curve"/>
    </contour>
  </outline>
</glyph>
<glyph name="uni10C8D.ltr" format="2">
  <advance width="801"/>
  <outline>
    <contour>
      <point x="21" y="-135" type="line"/>
      <point x="120" y="-135" type="line"/>
      <point x="277" y="269" type="line"/>
      <point x="421" y="-135" type="line"/>
      <point x="515" y="-135" type="line"/>
      <point x="321" y="383" type="line"/>
      <point x="333" y="413" type="line" smooth="yes"/>
      <point x="361" y="485"/>
      <point x="384" y="546"/>
      <point x="398" y="602" type="curve"/>
      <point x="402" y="602" type="line"/>
      <point x="416" y="546"/>
      <point x="440" y="483"/>
      <point x="468" y="411" type="curve" smooth="yes"/>
      <point x="680" y="-135" type="line"/>
      <point x="780" y="-135" type="line"/>
      <point x="441" y="714" type="line"/>
      <point x="354" y="714" type="line"/>
    </contour>
  </outline>
</glyph>
<glyph name="uni10C8E.ltr" format="2">
  <advance width="624"/>
  <outline>
    <contour>
      <point x="263" y="-135" type="line"/>
      <point x="359" y="-135" type="line"/>
      <point x="359" y="80" type="line"/>
      <point x="528" y="-11" type="line"/>
      <point x="567" y="61" type="line"/>
      <point x="359" y="174" type="line"/>
      <point x="359" y="337" type="line"/>
      <point x="528" y="246" type="line"/>
      <point x="567" y="318" type="line"/>
      <point x="359" y="431" type="line"/>
      <point x="359" y="714" type="line"/>
      <point x="263" y="714" type="line"/>
      <point x="263" y="483" type="line"/>
      <point x="94" y="574" type="line"/>
      <point x="55" y="500" type="line"/>
      <point x="263" y="388" type="line"/>
      <point x="263" y="226" type="line"/>
      <point x="94" y="317" type="line"/>
      <point x="55" y="243" type="line"/>
      <point x="263" y="131" type="line"/>
    </contour>
  </outline>
</glyph>
<glyph name="uni10C8F.ltr" format="2">
  <advance width="710"/>
  <outline>
    <contour>
      <point x="65" y="-135" type="line"/>
      <point x="187" y="-135" type="line"/>
      <point x="356" y="24" type="line"/>
      <point x="524" y="-135" type="line"/>
      <point x="646" y="-135" type="line"/>
      <point x="415" y="78" type="line"/>
      <point x="659" y="305" type="line"/>
      <point x="415" y="515" type="line"/>
      <point x="646" y="714" type="line"/>
      <point x="526" y="714" type="line"/>
      <point x="356" y="566" type="line"/>
      <point x="187" y="714" type="line"/>
      <point x="65" y="714" type="line"/>
      <point x="296" y="515" type="line"/>
      <point x="51" y="305" type="line"/>
      <point x="296" y="78" type="line"/>
    </contour>
    <contour>
      <point x="356" y="136" type="line"/>
      <point x="176" y="306" type="line"/>
      <point x="356" y="462" type="line"/>
      <point x="536" y="306" type="line"/>
    </contour>
  </outline>
</glyph>
<glyph name="uni10C90.ltr" format="2">
  <advance width="627"/>
  <outline>
    <contour>
      <point x="266" y="-135" type="line"/>
      <point x="362" y="-135" type="line"/>
      <point x="362" y="337" type="line"/>
      <point x="531" y="246" type="line"/>
      <point x="570" y="318" type="line"/>
      <point x="362" y="431" type="line"/>
      <point x="362" y="714" type="line"/>
      <point x="266" y="714" type="line"/>
      <point x="266" y="483" type="line"/>
      <point x="97" y="574" type="line"/>
      <point x="58" y="500" type="line"/>
      <point x="266" y="388" type="line"/>
    </contour>
  </outline>
</glyph>
<glyph name="uni10C91.ltr" format="2">
  <advance width="627"/>
  <outline>
    <contour>
      <point x="253" y="-135" type="line"/>
      <point x="349" y="-135" type="line"/>
      <point x="349" y="624" type="line"/>
      <point x="531" y="526" type="line"/>
      <point x="570" y="598" type="line"/>
      <point x="97" y="854" type="line"/>
      <point x="58" y="780" type="line"/>
      <point x="253" y="675" type="line"/>
    </contour>
  </outline>
</glyph>
<glyph name="uni10C92.ltr" format="2">
  <advance width="547"/>
  <outline>
    <contour>
      <point x="134" y="-135" type="line"/>
      <point x="223" y="-135" type="line"/>
      <point x="223" y="588" type="line"/>
      <point x="461" y="353" type="line"/>
      <point x="516" y="413" type="line"/>
      <point x="210" y="714" type="line"/>
      <point x="134" y="714" type="line"/>
    </contour>
  </outline>
</glyph>
<glyph name="uni10C93.ltr" format="2">
  <advance width="684"/>
  <outline>
    <contour>
      <point x="295" y="-135" type="line"/>
      <point x="387" y="-135" type="line"/>
      <point x="628" y="295" type="line"/>
      <point x="387" y="714" type="line"/>
      <point x="295" y="714" type="line"/>
      <point x="55" y="295" type="line"/>
    </contour>
    <contour>
      <point x="341" y="-49" type="line"/>
      <point x="156" y="295" type="line"/>
      <point x="341" y="629" type="line"/>
      <point x="528" y="295" type="line"/>
    </contour>
  </outline>
</glyph>
<glyph name="uni10C94.ltr" format="2">
  <advance width="613"/>
  <outline>
    <contour>
      <point x="266" y="-135" type="line"/>
      <point x="348" y="-135" type="line"/>
      <point x="348" y="590" type="line"/>
      <point x="530" y="427" type="line"/>
      <point x="589" y="491" type="line"/>
      <point x="340" y="714" type="line"/>
      <point x="258" y="714" type="line"/>
      <point x="258" y="-12" type="line"/>
      <point x="76" y="152" type="line"/>
      <point x="17" y="88" type="line"/>
    </contour>
  </outline>
</glyph>
<glyph name="uni10C95.ltr" format="2">
  <advance width="907"/>
  <outline>
    <contour>
      <point x="240" y="-165" type="line"/>
      <point x="454" y="211" type="line"/>
      <point x="667" y="-165" type="line"/>
      <point x="875" y="-65" type="line"/>
      <point x="841" y="6" type="line"/>
      <point x="708" y="-63" type="line"/>
      <point x="499" y="294" type="line"/>
      <point x="702" y="640" type="line"/>
      <point x="835" y="572" type="line"/>
      <point x="869" y="642" type="line"/>
      <point x="661" y="744" type="line"/>
      <point x="454" y="378" type="line"/>
      <point x="246" y="744" type="line"/>
      <point x="39" y="642" type="line"/>
      <point x="72" y="572" type="line"/>
      <point x="206" y="640" type="line"/>
      <point x="408" y="294" type="line"/>
      <point x="200" y="-63" type="line"/>
      <point x="66" y="6" type="line"/>
      <point x="33" y="-65" type="line"/>
    </contour>
  </outline>
</glyph>
<glyph name="uni10C96.ltr" format="2">
  <advance width="801"/>
  <outline>
    <contour>
      <point x="17" y="-135" type="line"/>
      <point x="116" y="-135" type="line"/>
      <point x="188" y="49" type="line"/>
      <point x="260" y="-135" type="line"/>
      <point x="348" y="-135" type="line"/>
      <point x="232" y="160" type="line"/>
      <point x="292" y="314" type="line"/>
      <point x="469" y="-135" type="line"/>
      <point x="559" y="-135" type="line"/>
      <point x="338" y="430" type="line"/>
      <point x="362" y="495"/>
      <point x="382" y="550"/>
      <point x="397" y="602" type="curve"/>
      <point x="401" y="602" type="line"/>
      <point x="417" y="549"/>
      <point x="441" y="485"/>
      <point x="469" y="413" type="curve" smooth="yes"/>
      <point x="683" y="-135" type="line"/>
      <point x="783" y="-135" type="line"/>
      <point x="441" y="714" type="line"/>
      <point x="355" y="714" type="line"/>
    </contour>
  </outline>
</glyph>
<glyph name="uni10C97.ltr" format="2">
  <advance width="768"/>
  <outline>
    <contour>
      <point x="337" y="-135" type="curve"/>
      <point x="430" y="-135" type="line"/>
      <point x="586" y="-12"/>
      <point x="683" y="113"/>
      <point x="683" y="289" type="curve" smooth="yes"/>
      <point x="683" y="466"/>
      <point x="586" y="592"/>
      <point x="431" y="714" type="curve"/>
      <point x="337" y="714" type="line"/>
      <point x="182" y="592"/>
      <point x="85" y="466"/>
      <point x="85" y="289" type="curve" smooth="yes"/>
      <point x="85" y="113"/>
      <point x="182" y="-12"/>
    </contour>
    <contour>
      <point x="382" y="-63" type="line"/>
      <point x="244" y="57"/>
      <point x="178" y="148"/>
      <point x="178" y="289" type="curve" smooth="yes"/>
      <point x="178" y="345"/>
      <point x="188" y="394"/>
      <point x="210" y="439" type="curve"/>
      <point x="518" y="74" type="line"/>
      <point x="485" y="29"/>
      <point x="441" y="-14"/>
      <point x="386" y="-63" type="curve"/>
    </contour>
    <contour>
      <point x="560" y="143" type="curve"/>
      <point x="249" y="506" type="line"/>
      <point x="282" y="550"/>
      <point x="326" y="594"/>
      <point x="382" y="643" type="curve"/>
      <point x="386" y="643" type="line"/>
      <point x="523" y="523"/>
      <point x="590" y="430"/>
      <point x="590" y="289" type="curve" smooth="yes"/>
      <point x="590" y="234"/>
      <point x="580" y="187"/>
    </contour>
  </outline>
</glyph>
<glyph name="uni10C98.ltr" format="2">
  <advance width="627"/>
  <outline>
    <contour>
      <point x="130" y="-135" type="line"/>
      <point x="225" y="-135" type="line"/>
      <point x="555" y="63" type="line"/>
      <point x="555" y="150" type="line"/>
      <point x="339" y="293" type="line"/>
      <point x="555" y="437" type="line"/>
      <point x="555" y="525" type="line"/>
      <point x="225" y="714" type="line"/>
      <point x="130" y="714" type="line"/>
    </contour>
    <contour>
      <point x="220" y="-35" type="line"/>
      <point x="220" y="277" type="line"/>
      <point x="471" y="111" type="line"/>
    </contour>
    <contour>
      <point x="220" y="310" type="line"/>
      <point x="220" y="622" type="line"/>
      <point x="471" y="479" type="line"/>
    </contour>
  </outline>
</glyph>
<glyph name="uni10C99.ltr" format="2">
  <advance width="538"/>
  <outline>
    <contour>
      <point x="420" y="-159" type="curve"/>
      <point x="471" y="-88" type="line"/>
      <point x="257" y="47"/>
      <point x="180" y="143"/>
      <point x="180" y="289" type="curve" smooth="yes"/>
      <point x="180" y="434"/>
      <point x="252" y="523"/>
      <point x="476" y="671" type="curve"/>
      <point x="415" y="738" type="line"/>
      <point x="172" y="579"/>
      <point x="86" y="461"/>
      <point x="86" y="289" type="curve" smooth="yes"/>
      <point x="86" y="116"/>
      <point x="172" y="0"/>
    </contour>
  </outline>
</glyph>
<glyph name="uni10C9A.ltr" format="2">
  <advance width="633"/>
  <outline>
    <contour>
      <point x="421" y="-135" type="curve"/>
      <point x="511" y="-135" type="line"/>
      <point x="511" y="714" type="line"/>
      <point x="421" y="714" type="line"/>
      <point x="174" y="579"/>
      <point x="76" y="454"/>
      <point x="76" y="289" type="curve" smooth="yes"/>
      <point x="76" y="120"/>
      <point x="173" y="-1"/>
    </contour>
    <contour>
      <point x="421" y="-37" type="line"/>
      <point x="242" y="64"/>
      <point x="170" y="157"/>
      <point x="170" y="289" type="curve" smooth="yes"/>
      <point x="170" y="420"/>
      <point x="238" y="509"/>
      <point x="421" y="618" type="curve"/>
    </contour>
  </outline>
</glyph>
<glyph name="uni10C9B.ltr" format="2">
  <advance width="634"/>
  <outline>
    <contour>
      <point x="343" y="-155" type="curve"/>
      <point x="579" y="63" type="line"/>
      <point x="517" y="124" type="line"/>
      <point x="335" y="-45" type="line"/>
      <point x="215" y="58"/>
      <point x="169" y="147"/>
      <point x="169" y="284" type="curve" smooth="yes"/>
      <point x="169" y="416"/>
      <point x="214" y="499"/>
      <point x="345" y="614" type="curve"/>
      <point x="517" y="455" type="line"/>
      <point x="579" y="516" type="line"/>
      <point x="343" y="734" type="line"/>
      <point x="147" y="573"/>
      <point x="75" y="455"/>
      <point x="75" y="284" type="curve" smooth="yes"/>
      <point x="75" y="98"/>
      <point x="163" y="-17"/>
    </contour>
  </outline>
</glyph>
<glyph name="uni10C9C.ltr" format="2">
  <advance width="658"/>
  <outline>
    <contour>
      <point x="347" y="-159" type="curve"/>
      <point x="621" y="109" type="line"/>
      <point x="417" y="334" type="line"/>
      <point x="357" y="271" type="line"/>
      <point x="500" y="117" type="line"/>
      <point x="339" y="-44" type="line"/>
      <point x="222" y="63"/>
      <point x="176" y="155"/>
      <point x="176" y="278" type="curve" smooth="yes"/>
      <point x="176" y="419"/>
      <point x="232" y="511"/>
      <point x="407" y="659" type="curve"/>
      <point x="347" y="734" type="line"/>
      <point x="151" y="567"/>
      <point x="79" y="445"/>
      <point x="79" y="278" type="curve" smooth="yes"/>
      <point x="79" y="103"/>
      <point x="167" y="-16"/>
    </contour>
  </outline>
</glyph>
<glyph name="uni10C9D.ltr" format="2">
  <advance width="482"/>
  <outline>
    <contour>
      <point x="146" y="-145" type="line"/>
      <point x="411" y="157" type="line"/>
      <point x="189" y="415" type="line"/>
      <point x="406" y="652" type="line"/>
      <point x="342" y="718" type="line"/>
      <point x="71" y="420" type="line"/>
      <point x="292" y="161" type="line"/>
      <point x="83" y="-79" type="line"/>
    </contour>
  </outline>
</glyph>
<glyph name="uni10C9E.ltr" format="2">
  <advance width="624"/>
  <outline>
    <contour>
      <point x="18" y="-135" type="line"/>
      <point x="132" y="-135" type="line"/>
      <point x="411" y="296" type="line"/>
      <point x="411" y="-135" type="line"/>
      <point x="501" y="-135" type="line"/>
      <point x="501" y="714" type="line"/>
      <point x="411" y="714" type="line"/>
      <point x="411" y="298" type="line"/>
      <point x="136" y="714" type="line"/>
      <point x="27" y="714" type="line"/>
      <point x="307" y="302" type="line"/>
    </contour>
  </outline>
</glyph>
<glyph name="uni10C9F.ltr" format="2">
  <advance width="724"/>
  <outline>
    <contour>
      <point x="413" y="-156" type="curve"/>
      <point x="685" y="107" type="line"/>
      <point x="682" y="108" type="line"/>
      <point x="687" y="111" type="line"/>
      <point x="483" y="334" type="line"/>
      <point x="419" y="270" type="line"/>
      <point x="561" y="116" type="line"/>
      <point x="404" y="-41" type="line"/>
      <point x="362" y="-2"/>
      <point x="328" y="34"/>
      <point x="303" y="71" type="curve"/>
      <point x="360" y="122" type="line"/>
      <point x="312" y="178" type="line"/>
      <point x="266" y="137" type="line"/>
      <point x="248" y="181"/>
      <point x="239" y="227"/>
      <point x="239" y="279" type="curve" smooth="yes"/>
      <point x="239" y="333"/>
      <point x="248" y="379"/>
      <point x="268" y="425" type="curve"/>
      <point x="312" y="386" type="line"/>
      <point x="360" y="442" type="line"/>
      <point x="306" y="490" type="line"/>
      <point x="343" y="541"/>
      <point x="397" y="595"/>
      <point x="473" y="659" type="curve"/>
      <point x="413" y="733" type="line"/>
      <point x="336" y="668"/>
      <point x="278" y="610"/>
      <point x="236" y="553" type="curve"/>
      <point x="148" y="632" type="line"/>
      <point x="100" y="575" type="line"/>
      <point x="196" y="489" type="line"/>
      <point x="160" y="423"/>
      <point x="145" y="356"/>
      <point x="145" y="279" type="curve" smooth="yes"/>
      <point x="145" y="202"/>
      <point x="162" y="136"/>
      <point x="197" y="74" type="curve"/>
      <point x="97" y="-15" type="line"/>
      <point x="145" y="-70" type="line"/>
      <point x="238" y="13" type="line"/>
      <point x="281" y="-43"/>
      <point x="339" y="-98"/>
    </contour>
  </outline>
</glyph>
<glyph name="uni10CA0.ltr" format="2">
  <advance width="578"/>
  <outline>
    <contour>
      <point x="462" y="-156" type="line"/>
      <point x="517" y="-101" type="line"/>
      <point x="217" y="186" type="line"/>
      <point x="217" y="340" type="line"/>
      <point x="462" y="102" type="line"/>
      <point x="517" y="157" type="line"/>
      <point x="217" y="446" type="line"/>
      <point x="217" y="600" type="line"/>
      <point x="462" y="362" type="line"/>
      <point x="517" y="417" type="line"/>
      <point x="208" y="714" type="line"/>
      <point x="127" y="714" type="line"/>
      <point x="127" y="-135" type="line"/>
      <point x="217" y="-135" type="line"/>
      <point x="217" y="81" type="line"/>
    </contour>
  </outline>
</glyph>
<glyph name="uni10CA1.ltr" format="2">
  <advance width="1027"/>
  <outline>
    <contour>
      <point x="235" y="-170" type="line"/>
      <point x="360" y="-37" type="line"/>
      <point x="393" y="-71"/>
      <point x="424" y="-102"/>
      <point x="464" y="-135" type="curve"/>
      <point x="562" y="-135" type="line"/>
      <point x="603" y="-102"/>
      <point x="640" y="-71"/>
      <point x="673" y="-37" type="curve"/>
      <point x="792" y="-170" type="line"/>
      <point x="857" y="-110" type="line"/>
      <point x="727" y="26" type="line"/>
      <point x="769" y="82"/>
      <point x="798" y="141"/>
      <point x="812" y="207" type="curve"/>
      <point x="947" y="125" type="line"/>
      <point x="988" y="203" type="line"/>
      <point x="819" y="295" type="line"/>
      <point x="818" y="378"/>
      <point x="795" y="460"/>
      <point x="734" y="539" type="curve"/>
      <point x="736" y="543" type="line"/>
      <point x="867" y="475" type="line"/>
      <point x="906" y="554" type="line"/>
      <point x="563" y="714" type="line"/>
      <point x="464" y="714" type="line"/>
      <point x="121" y="554" type="line"/>
      <point x="160" y="475" type="line"/>
      <point x="292" y="543" type="line"/>
      <point x="295" y="540" type="line"/>
      <point x="233" y="461"/>
      <point x="216" y="378"/>
      <point x="215" y="295" type="curve"/>
      <point x="46" y="203" type="line"/>
      <point x="88" y="125" type="line"/>
      <point x="223" y="207" type="line"/>
      <point x="236" y="142"/>
      <point x="264" y="83"/>
      <point x="307" y="26" type="curve"/>
      <point x="171" y="-110" type="line"/>
    </contour>
    <contour>
      <point x="510" y="-63" type="line"/>
      <point x="378" y="40"/>
      <point x="302" y="145"/>
      <point x="302" y="295" type="curve" smooth="yes"/>
      <point x="302" y="439"/>
      <point x="368" y="553"/>
      <point x="510" y="638" type="curve"/>
      <point x="514" y="638" type="line"/>
      <point x="655" y="553"/>
      <point x="722" y="439"/>
      <point x="722" y="295" type="curve" smooth="yes"/>
      <point x="722" y="145"/>
      <point x="645" y="40"/>
      <point x="514" y="-63" type="curve"/>
    </contour>
  </outline>
</glyph>
<glyph name="uni10CA2.ltr" format="2">
  <advance width="832"/>
  <outline>
    <contour>
      <point x="129" y="-135" type="line"/>
      <point x="219" y="-135" type="line"/>
      <point x="219" y="372" type="line"/>
      <point x="612" y="114" type="line"/>
      <point x="612" y="-135" type="line"/>
      <point x="702" y="-135" type="line"/>
      <point x="702" y="714" type="line"/>
      <point x="612" y="714" type="line"/>
      <point x="612" y="208" type="line"/>
      <point x="219" y="471" type="line"/>
      <point x="219" y="714" type="line"/>
      <point x="129" y="714" type="line"/>
    </contour>
  </outline>
</glyph>
<glyph name="uni10CA3.ltr" format="2">
  <advance width="613"/>
  <outline>
    <contour>
      <point x="520" y="127" type="line"/>
      <point x="561" y="201" type="line"/>
      <point x="99" y="474" type="line"/>
      <point x="57" y="400" type="line"/>
    </contour>
  </outline>
</glyph>
<glyph name="uni10CA4.ltr" format="2">
  <advance width="724"/>
  <outline>
    <contour>
      <point x="12" y="-135" type="line"/>
      <point x="107" y="-135" type="line"/>
      <point x="300" y="413" type="line" smooth="yes"/>
      <point x="324" y="481"/>
      <point x="347" y="547"/>
      <point x="360" y="601" type="curve"/>
      <point x="364" y="601" type="line"/>
      <point x="377" y="547"/>
      <point x="400" y="481"/>
      <point x="425" y="411" type="curve" smooth="yes"/>
      <point x="616" y="-135" type="line"/>
      <point x="711" y="-135" type="line"/>
      <point x="404" y="714" type="line"/>
      <point x="313" y="714" type="line"/>
    </contour>
  </outline>
</glyph>
<glyph name="uni10CA5.ltr" format="2">
  <advance width="341"/>
  <outline>
    <contour>
      <point x="127" y="-135" type="line"/>
      <point x="217" y="-135" type="line"/>
      <point x="217" y="714" type="line"/>
      <point x="127" y="714" type="line"/>
    </contour>
  </outline>
</glyph>
<glyph name="uni10CA6.ltr" format="2">
  <advance width="567"/>
  <outline>
    <contour>
      <point x="121" y="-135" type="line"/>
      <point x="211" y="-135" type="line"/>
      <point x="211" y="216" type="line"/>
      <point x="557" y="691" type="line"/>
      <point x="485" y="740" type="line"/>
      <point x="211" y="356" type="line"/>
      <point x="211" y="714" type="line"/>
      <point x="121" y="714" type="line"/>
    </contour>
  </outline>
</glyph>
<glyph name="uni10CA7.ltr" format="2">
  <advance width="866"/>
  <outline>
    <contour>
      <point x="388" y="-135" type="line"/>
      <point x="478" y="-135" type="line"/>
      <point x="478" y="394" type="line"/>
      <point x="681" y="609" type="line"/>
      <point x="790" y="496" type="line"/>
      <point x="846" y="555" type="line"/>
      <point x="678" y="726" type="line"/>
      <point x="478" y="511" type="line"/>
      <point x="478" y="714" type="line"/>
      <point x="388" y="714" type="line"/>
      <point x="388" y="510" type="line"/>
      <point x="187" y="726" type="line"/>
      <point x="19" y="555" type="line"/>
      <point x="76" y="496" type="line"/>
      <point x="185" y="609" type="line"/>
      <point x="388" y="393" type="line"/>
    </contour>
  </outline>
</glyph>
<glyph name="uni10CA8.ltr" format="2">
  <advance width="691"/>
  <outline>
    <contour>
      <point x="4" y="-135" type="line"/>
      <point x="116" y="-135" type="line"/>
      <point x="223" y="38" type="line"/>
      <point x="327" y="-135" type="line"/>
      <point x="423" y="-135" type="line"/>
      <point x="271" y="115" type="line"/>
      <point x="348" y="240" type="line"/>
      <point x="583" y="-135" type="line"/>
      <point x="687" y="-135" type="line"/>
      <point x="405" y="308" type="line"/>
      <point x="669" y="714" type="line"/>
      <point x="559" y="714" type="line"/>
      <point x="464" y="564" type="line"/>
      <point x="374" y="714" type="line"/>
      <point x="278" y="714" type="line"/>
      <point x="417" y="488" type="line"/>
      <point x="345" y="374" type="line"/>
      <point x="128" y="714" type="line"/>
      <point x="24" y="714" type="line"/>
      <point x="287" y="310" type="line"/>
    </contour>
  </outline>
</glyph>
<glyph name="uni10CA9.ltr" format="2">
  <advance width="724"/>
  <outline>
    <contour>
      <point x="117" y="-163" type="line"/>
      <point x="404" y="-85" type="line"/>
      <point x="379" y="-11" type="line"/>
      <point x="176" y="-70" type="line"/>
      <point x="372" y="238" type="line"/>
      <point x="620" y="-135" type="line"/>
      <point x="720" y="-135" type="line"/>
      <point x="426" y="301" type="line"/>
      <point x="690" y="714" type="line"/>
      <point x="583" y="714" type="line"/>
      <point x="368" y="365" type="line"/>
      <point x="177" y="654" type="line"/>
      <point x="380" y="594" type="line"/>
      <point x="401" y="667" type="line"/>
      <point x="115" y="748" type="line"/>
      <point x="54" y="693" type="line"/>
      <point x="317" y="306" type="line"/>
      <point x="53" y="-98" type="line"/>
    </contour>
  </outline>
</glyph>
<glyph name="uni10CAA.ltr" format="2">
  <advance width="885"/>
  <outline>
    <contour>
      <point x="135" y="-135" type="line"/>
      <point x="223" y="-135" type="line"/>
      <point x="448" y="40" type="line"/>
      <point x="673" y="-135" type="line"/>
      <point x="761" y="-135" type="line"/>
      <point x="761" y="714" type="line"/>
      <point x="673" y="714" type="line"/>
      <point x="448" y="540" type="line"/>
      <point x="223" y="714" type="line"/>
      <point x="135" y="714" type="line"/>
    </contour>
    <contour>
      <point x="225" y="-28" type="line"/>
      <point x="225" y="607" type="line"/>
      <point x="448" y="439" type="line"/>
      <point x="671" y="607" type="line"/>
      <point x="671" y="-28" type="line"/>
      <point x="448" y="140" type="line"/>
    </contour>
  </outline>
</glyph>
<glyph name="uni10CAB.ltr" format="2">
  <advance width="953"/>
  <outline>
    <contour>
      <point x="116" y="-135" type="line"/>
      <point x="198" y="-135" type="line"/>
      <point x="475" y="223" type="line"/>
      <point x="749" y="-135" type="line"/>
      <point x="831" y="-135" type="line"/>
      <point x="831" y="714" type="line"/>
      <point x="749" y="714" type="line"/>
      <point x="475" y="358" type="line"/>
      <point x="198" y="714" type="line"/>
      <point x="116" y="714" type="line"/>
    </contour>
    <contour>
      <point x="205" y="11" type="line"/>
      <point x="205" y="569" type="line"/>
      <point x="209" y="569" type="line"/>
      <point x="425" y="289" type="line"/>
      <point x="209" y="11" type="line"/>
    </contour>
    <contour>
      <point x="738" y="19" type="line"/>
      <point x="527" y="289" type="line"/>
      <point x="738" y="561" type="line"/>
      <point x="742" y="561" type="line"/>
      <point x="742" y="19" type="line"/>
    </contour>
  </outline>
</glyph>
<glyph name="uni10CAC.ltr" format="2">
  <advance width="769"/>
  <outline>
    <contour>
      <point x="106" y="-151" type="line"/>
      <point x="218" y="-26" type="line"/>
      <point x="253" y="-63"/>
      <point x="293" y="-99"/>
      <point x="338" y="-135" type="curve"/>
      <point x="431" y="-135" type="line"/>
      <point x="476" y="-99"/>
      <point x="517" y="-63"/>
      <point x="551" y="-26" type="curve"/>
      <point x="663" y="-151" type="line"/>
      <point x="728" y="-91" type="line"/>
      <point x="604" y="39" type="line"/>
      <point x="655" y="112"/>
      <point x="684" y="193"/>
      <point x="684" y="289" type="curve" smooth="yes"/>
      <point x="684" y="386"/>
      <point x="655" y="467"/>
      <point x="604" y="541" type="curve"/>
      <point x="728" y="669" type="line"/>
      <point x="663" y="730" type="line"/>
      <point x="551" y="605" type="line"/>
      <point x="517" y="643"/>
      <point x="477" y="679"/>
      <point x="432" y="714" type="curve"/>
      <point x="338" y="714" type="line"/>
      <point x="293" y="678"/>
      <point x="252" y="642"/>
      <point x="218" y="605" type="curve"/>
      <point x="106" y="730" type="line"/>
      <point x="42" y="669" type="line"/>
      <point x="166" y="540" type="line"/>
      <point x="115" y="467"/>
      <point x="86" y="385"/>
      <point x="86" y="289" type="curve" smooth="yes"/>
      <point x="86" y="193"/>
      <point x="115" y="113"/>
      <point x="166" y="39" type="curve"/>
      <point x="41" y="-91" type="line"/>
    </contour>
    <contour>
      <point x="383" y="-63" type="line"/>
      <point x="245" y="57"/>
      <point x="179" y="148"/>
      <point x="179" y="289" type="curve" smooth="yes"/>
      <point x="179" y="430"/>
      <point x="245" y="523"/>
      <point x="383" y="643" type="curve"/>
      <point x="387" y="643" type="line"/>
      <point x="524" y="523"/>
      <point x="591" y="430"/>
      <point x="591" y="289" type="curve" smooth="yes"/>
      <point x="591" y="148"/>
      <point x="524" y="57"/>
      <point x="387" y="-63" type="curve"/>
    </contour>
  </outline>
</glyph>
<glyph name="uni10CAD.ltr" format="2">
  <advance width="788"/>
  <outline>
    <contour>
      <point x="131" y="-135" type="line"/>
      <point x="221" y="-135" type="line"/>
      <point x="221" y="383" type="line"/>
      <point x="568" y="127" type="line"/>
      <point x="658" y="127" type="line"/>
      <point x="658" y="714" type="line"/>
      <point x="568" y="714" type="line"/>
      <point x="568" y="231" type="line"/>
      <point x="221" y="492" type="line"/>
      <point x="131" y="492" type="line"/>
    </contour>
  </outline>
</glyph>
<glyph name="uni10CAE.ltr" format="2">
  <advance width="888"/>
  <outline>
    <contour>
      <point x="138" y="-135" type="line"/>
      <point x="228" y="-135" type="line"/>
      <point x="228" y="607" type="line"/>
      <point x="451" y="439" type="line"/>
      <point x="674" y="607" type="line"/>
      <point x="674" y="-135" type="line"/>
      <point x="764" y="-135" type="line"/>
      <point x="764" y="714" type="line"/>
      <point x="676" y="714" type="line"/>
      <point x="451" y="540" type="line"/>
      <point x="226" y="714" type="line"/>
      <point x="138" y="714" type="line"/>
    </contour>
  </outline>
</glyph>
<glyph name="uni10CAF.ltr" format="2">
  <advance width="820"/>
  <outline>
    <contour>
      <point x="115" y="-135" type="line"/>
      <point x="205" y="-135" type="line"/>
      <point x="205" y="123" type="line"/>
      <point x="612" y="-135" type="line"/>
      <point x="699" y="-135" type="line"/>
      <point x="699" y="714" type="line"/>
      <point x="609" y="714" type="line"/>
      <point x="609" y="457" type="line"/>
      <point x="202" y="714" type="line"/>
      <point x="115" y="714" type="line"/>
    </contour>
    <contour>
      <point x="609" y="-42" type="line"/>
      <point x="205" y="213" type="line"/>
      <point x="205" y="373" type="line"/>
      <point x="609" y="118" type="line"/>
    </contour>
    <contour>
      <point x="609" y="207" type="line"/>
      <point x="205" y="462" type="line"/>
      <point x="205" y="623" type="line"/>
      <point x="609" y="368" type="line"/>
    </contour>
  </outline>
</glyph>
<glyph name="uni10CB0.ltr" format="2">
  <advance width="796"/>
  <outline>
    <contour>
      <point x="356" y="-135" type="line"/>
      <point x="446" y="-135" type="line"/>
      <point x="446" y="228" type="line"/>
      <point x="786" y="691" type="line"/>
      <point x="712" y="742" type="line"/>
      <point x="446" y="370" type="line"/>
      <point x="446" y="714" type="line"/>
      <point x="356" y="714" type="line"/>
      <point x="356" y="370" type="line"/>
      <point x="90" y="742" type="line"/>
      <point x="16" y="691" type="line"/>
      <point x="356" y="228" type="line"/>
    </contour>
  </outline>
</glyph>
<glyph name="uni10CB1.ltr" format="2">
  <advance width="866"/>
  <outline>
    <contour>
      <point x="389" y="-135" type="line"/>
      <point x="479" y="-135" type="line"/>
      <point x="681" y="77" type="line"/>
      <point x="790" y="-37" type="line"/>
      <point x="846" y="23" type="line"/>
      <point x="678" y="191" type="line"/>
      <point x="479" y="-23" type="line"/>
      <point x="479" y="131" type="line"/>
      <point x="681" y="343" type="line"/>
      <point x="790" y="229" type="line"/>
      <point x="846" y="288" type="line"/>
      <point x="678" y="457" type="line"/>
      <point x="479" y="243" type="line"/>
      <point x="479" y="397" type="line"/>
      <point x="681" y="609" type="line"/>
      <point x="790" y="496" type="line"/>
      <point x="846" y="555" type="line"/>
      <point x="678" y="724" type="line"/>
      <point x="479" y="510" type="line"/>
      <point x="479" y="714" type="line"/>
      <point x="389" y="714" type="line"/>
      <point x="389" y="510" type="line"/>
      <point x="189" y="724" type="line"/>
      <point x="21" y="555" type="line"/>
      <point x="78" y="496" type="line"/>
      <point x="187" y="609" type="line"/>
      <point x="389" y="397" type="line"/>
      <point x="389" y="243" type="line"/>
      <point x="189" y="457" type="line"/>
      <point x="21" y="288" type="line"/>
      <point x="78" y="229" type="line"/>
      <point x="187" y="343" type="line"/>
      <point x="389" y="131" type="line"/>
      <point x="389" y="-23" type="line"/>
      <point x="189" y="191" type="line"/>
      <point x="21" y="23" type="line"/>
      <point x="78" y="-37" type="line"/>
      <point x="187" y="77" type="line"/>
    </contour>
  </outline>
</glyph>
<glyph name="uni10CC0_10CC2" format="2">
  <advance width="664"/>
  <outline>
    <contour>
      <point x="10" y="0" type="line"/>
      <point x="104" y="0" type="line"/>
      <point x="267" y="245" type="line"/>
      <point x="422" y="0" type="line"/>
      <point x="569" y="0" type="line"/>
      <point x="569" y="600" type="line"/>
      <point x="419" y="600" type="line"/>
      <point x="270" y="363" type="line"/>
      <point x="121" y="600" type="line"/>
      <point x="22" y="600" type="line"/>
      <point x="217" y="303" type="line"/>
    </contour>
    <contour>
      <point x="482" y="61" type="line"/>
      <point x="321" y="305" type="line"/>
      <point x="482" y="552" type="line"/>
    </contour>
  </outline>
</glyph>
<glyph name="uni10CC0_10CC2.ltr" format="2">
  <advance width="664"/>
  <outline>
    <contour>
      <point x="95" y="0" type="line"/>
      <point x="242" y="0" type="line"/>
      <point x="397" y="245" type="line"/>
      <point x="560" y="0" type="line"/>
      <point x="654" y="0" type="line"/>
      <point x="447" y="303" type="line"/>
      <point x="642" y="600" type="line"/>
      <point x="543" y="600" type="line"/>
      <point x="394" y="363" type="line"/>
      <point x="245" y="600" type="line"/>
      <point x="95" y="600" type="line"/>
    </contour>
    <contour>
      <point x="182" y="61" type="line"/>
      <point x="182" y="552" type="line"/>
      <point x="343" y="305" type="line"/>
    </contour>
  </outline>
</glyph>
<glyph name="uni10CC0_10CC7" format="2">
  <advance width="537"/>
  <outline>
    <contour>
      <point x="272" y="0" type="line"/>
      <point x="359" y="0" type="line"/>
      <point x="359" y="187" type="line"/>
      <point x="507" y="271" type="line"/>
      <point x="467" y="339" type="line"/>
      <point x="359" y="277" type="line"/>
      <point x="359" y="600" type="line"/>
      <point x="240" y="600" type="line"/>
      <point x="42" y="409" type="line"/>
      <point x="42" y="320" type="line"/>
      <point x="272" y="232" type="line"/>
      <point x="272" y="228" type="line"/>
      <point x="125" y="144" type="line"/>
      <point x="164" y="76" type="line"/>
      <point x="272" y="137" type="line"/>
    </contour>
    <contour>
      <point x="272" y="316" type="line"/>
      <point x="118" y="373" type="line"/>
      <point x="272" y="523" type="line"/>
    </contour>
  </outline>
</glyph>
<glyph name="uni10CC0_10CC7.ltr" format="2">
  <advance width="537"/>
  <outline>
    <contour>
      <point x="178" y="0" type="line"/>
      <point x="265" y="0" type="line"/>
      <point x="265" y="137" type="line"/>
      <point x="373" y="76" type="line"/>
      <point x="412" y="144" type="line"/>
      <point x="265" y="228" type="line"/>
      <point x="265" y="232" type="line"/>
      <point x="495" y="320" type="line"/>
      <point x="495" y="409" type="line"/>
      <point x="297" y="600" type="line"/>
      <point x="178" y="600" type="line"/>
      <point x="178" y="277" type="line"/>
      <point x="70" y="339" type="line"/>
      <point x="30" y="271" type="line"/>
      <point x="178" y="187" type="line"/>
    </contour>
    <contour>
      <point x="265" y="316" type="line"/>
      <point x="265" y="523" type="line"/>
      <point x="419" y="373" type="line"/>
    </contour>
  </outline>
</glyph>
<glyph name="uni10CC0_10CD6" format="2">
  <advance width="699"/>
  <outline>
    <contour>
      <point x="5" y="0" type="line"/>
      <point x="90" y="0" type="line"/>
      <point x="255" y="371" type="line" smooth="yes"/>
      <point x="280" y="428"/>
      <point x="294" y="466"/>
      <point x="304" y="498" type="curve"/>
      <point x="308" y="498" type="line"/>
      <point x="316" y="472"/>
      <point x="329" y="437"/>
      <point x="344" y="399" type="curve"/>
      <point x="173" y="0" type="line"/>
      <point x="257" y="0" type="line"/>
      <point x="385" y="305" type="line"/>
      <point x="426" y="212" type="line"/>
      <point x="339" y="0" type="line"/>
      <point x="423" y="0" type="line"/>
      <point x="468" y="117" type="line"/>
      <point x="519" y="0" type="line"/>
      <point x="607" y="0" type="line"/>
      <point x="480" y="285" type="line"/>
      <point x="675" y="417" type="line"/>
      <point x="634" y="505" type="line"/>
      <point x="376" y="600" type="line"/>
      <point x="270" y="600" type="line"/>
    </contour>
    <contour>
      <point x="450" y="355" type="line"/>
      <point x="378" y="516" type="line"/>
      <point x="579" y="441" type="line"/>
    </contour>
  </outline>
</glyph>
<glyph name="uni10CC0_10CD6.ltr" format="2">
  <advance width="699"/>
  <outline>
    <contour>
      <point x="92" y="0" type="line"/>
      <point x="180" y="0" type="line"/>
      <point x="231" y="117" type="line"/>
      <point x="276" y="0" type="line"/>
      <point x="360" y="0" type="line"/>
      <point x="273" y="212" type="line"/>
      <point x="314" y="305" type="line"/>
      <point x="442" y="0" type="line"/>
      <point x="526" y="0" type="line"/>
      <point x="355" y="399" type="line"/>
      <point x="370" y="437"/>
      <point x="383" y="472"/>
      <point x="391" y="498" type="curve"/>
      <point x="395" y="498" type="line"/>
      <point x="405" y="466"/>
      <point x="419" y="428"/>
      <point x="444" y="371" type="curve" smooth="yes"/>
      <point x="609" y="0" type="line"/>
      <point x="694" y="0" type="line"/>
      <point x="429" y="600" type="line"/>
      <point x="323" y="600" type="line"/>
      <point x="65" y="505" type="line"/>
      <point x="24" y="417" type="line"/>
      <point x="219" y="285" type="line"/>
    </contour>
    <contour>
      <point x="249" y="355" type="line"/>
      <point x="120" y="441" type="line"/>
      <point x="321" y="516" type="line"/>
    </contour>
  </outline>
</glyph>
<glyph name="uni10CC0_10CE2.ltr" format="2">
  <advance width="792"/>
  <outline>
    <contour>
      <point x="260" y="0" type="line"/>
      <point x="347" y="0" type="line"/>
      <point x="347" y="345" type="line"/>
      <point x="610" y="175" type="line"/>
      <point x="610" y="0" type="line"/>
      <point x="697" y="0" type="line"/>
      <point x="697" y="600" type="line"/>
      <point x="610" y="600" type="line"/>
      <point x="610" y="264" type="line"/>
      <point x="347" y="434" type="line"/>
      <point x="347" y="600" type="line"/>
      <point x="228" y="600" type="line"/>
      <point x="30" y="409" type="line"/>
      <point x="30" y="320" type="line"/>
      <point x="260" y="232" type="line"/>
    </contour>
    <contour>
      <point x="260" y="316" type="line"/>
      <point x="106" y="373" type="line"/>
      <point x="260" y="523" type="line"/>
    </contour>
  </outline>
</glyph>
<glyph name="uni10CC0_10CE6_10CE6" format="2">
  <advance width="632"/>
  <outline>
    <contour>
      <point x="285" y="0" type="line"/>
      <point x="372" y="0" type="line"/>
      <point x="372" y="232" type="line"/>
      <point x="602" y="320" type="line"/>
      <point x="602" y="409" type="line"/>
      <point x="404" y="600" type="line"/>
      <point x="285" y="600" type="line"/>
      <point x="285" y="440" type="line"/>
      <point x="100" y="572" type="line"/>
      <point x="50" y="512" type="line"/>
      <point x="285" y="347" type="line"/>
      <point x="285" y="266" type="line"/>
      <point x="100" y="398" type="line"/>
      <point x="50" y="338" type="line"/>
      <point x="285" y="173" type="line"/>
    </contour>
    <contour>
      <point x="372" y="316" type="line"/>
      <point x="372" y="523" type="line"/>
      <point x="526" y="373" type="line"/>
    </contour>
  </outline>
</glyph>
<glyph name="uni10CC0_10CE6_10CE6.ltr" format="2">
  <advance width="632"/>
  <outline>
    <contour>
      <point x="260" y="0" type="line"/>
      <point x="347" y="0" type="line"/>
      <point x="347" y="173" type="line"/>
      <point x="582" y="338" type="line"/>
      <point x="532" y="398" type="line"/>
      <point x="347" y="266" type="line"/>
      <point x="347" y="347" type="line"/>
      <point x="582" y="512" type="line"/>
      <point x="532" y="572" type="line"/>
      <point x="347" y="440" type="line"/>
      <point x="347" y="600" type="line"/>
      <point x="228" y="600" type="line"/>
      <point x="30" y="409" type="line"/>
      <point x="30" y="320" type="line"/>
      <point x="260" y="232" type="line"/>
    </contour>
    <contour>
      <point x="260" y="316" type="line"/>
      <point x="106" y="373" type="line"/>
      <point x="260" y="523" type="line"/>
    </contour>
  </outline>
</glyph>
<glyph name="uni10CC1_10CE2" format="2">
  <advance width="792"/>
  <outline>
    <contour>
      <point x="95" y="0" type="line"/>
      <point x="182" y="0" type="line"/>
      <point x="182" y="205" type="line"/>
      <point x="445" y="375" type="line"/>
      <point x="445" y="228" type="line"/>
      <point x="304" y="143" type="line"/>
      <point x="304" y="57" type="line"/>
      <point x="445" y="141" type="line"/>
      <point x="445" y="0" type="line"/>
      <point x="532" y="0" type="line"/>
      <point x="532" y="193" type="line"/>
      <point x="762" y="330" type="line"/>
      <point x="762" y="409" type="line"/>
      <point x="564" y="600" type="line"/>
      <point x="445" y="600" type="line"/>
      <point x="445" y="464" type="line"/>
      <point x="182" y="294" type="line"/>
      <point x="182" y="600" type="line"/>
      <point x="95" y="600" type="line"/>
    </contour>
    <contour>
      <point x="532" y="280" type="line"/>
      <point x="532" y="523" type="line"/>
      <point x="686" y="373" type="line"/>
    </contour>
  </outline>
</glyph>
<glyph name="uni10CC1_10CE2.ltr" format="2">
  <advance width="792"/>
  <outline>
    <contour>
      <point x="260" y="0" type="line"/>
      <point x="347" y="0" type="line"/>
      <point x="347" y="141" type="line"/>
      <point x="488" y="57" type="line"/>
      <point x="488" y="143" type="line"/>
      <point x="347" y="228" type="line"/>
      <point x="347" y="375" type="line"/>
      <point x="610" y="205" type="line"/>
      <point x="610" y="0" type="line"/>
      <point x="697" y="0" type="line"/>
      <point x="697" y="600" type="line"/>
      <point x="610" y="600" type="line"/>
      <point x="610" y="294" type="line"/>
      <point x="347" y="464" type="line"/>
      <point x="347" y="600" type="line"/>
      <point x="228" y="600" type="line"/>
      <point x="30" y="409" type="line"/>
      <point x="30" y="330" type="line"/>
      <point x="260" y="193" type="line"/>
    </contour>
    <contour>
      <point x="260" y="280" type="line"/>
      <point x="106" y="373" type="line"/>
      <point x="260" y="523" type="line"/>
    </contour>
  </outline>
</glyph>
<glyph name="uni10CC2_10CC0" format="2">
  <advance width="646"/>
  <outline>
    <contour>
      <point x="118" y="0" type="line"/>
      <point x="212" y="0" type="line"/>
      <point x="375" y="253" type="line"/>
      <point x="535" y="0" type="line"/>
      <point x="636" y="0" type="line"/>
      <point x="429" y="313" type="line"/>
      <point x="621" y="600" type="line"/>
      <point x="527" y="600" type="line"/>
      <point x="378" y="371" type="line"/>
      <point x="229" y="600" type="line"/>
      <point x="109" y="600" type="line"/>
      <point x="30" y="302" type="line"/>
      <point x="98" y="246" type="line"/>
      <point x="300" y="348" type="line"/>
      <point x="325" y="311" type="line"/>
    </contour>
    <contour>
      <point x="121" y="342" type="line"/>
      <point x="173" y="536" type="line"/>
      <point x="259" y="408" type="line"/>
    </contour>
  </outline>
</glyph>
<glyph name="uni10CC2_10CC0.ltr" format="2">
  <advance width="646"/>
  <outline>
    <contour>
      <point x="10" y="0" type="line"/>
      <point x="111" y="0" type="line"/>
      <point x="271" y="253" type="line"/>
      <point x="434" y="0" type="line"/>
      <point x="528" y="0" type="line"/>
      <point x="321" y="311" type="line"/>
      <point x="346" y="348" type="line"/>
      <point x="548" y="246" type="line"/>
      <point x="616" y="302" type="line"/>
      <point x="537" y="600" type="line"/>
      <point x="417" y="600" type="line"/>
      <point x="268" y="371" type="line"/>
      <point x="119" y="600" type="line"/>
      <point x="25" y="600" type="line"/>
      <point x="217" y="313" type="line"/>
    </contour>
    <contour>
      <point x="525" y="342" type="line"/>
      <point x="387" y="408" type="line"/>
      <point x="473" y="536" type="line"/>
    </contour>
  </outline>
</glyph>
<glyph name="uni10CC2_10CC9" format="2">
  <advance width="616"/>
  <outline>
    <contour>
      <point x="301" y="-27" type="line"/>
      <point x="344" y="33" type="line"/>
      <point x="255" y="114" type="line"/>
      <point x="345" y="253" type="line"/>
      <point x="505" y="0" type="line"/>
      <point x="606" y="0" type="line"/>
      <point x="399" y="313" type="line"/>
      <point x="591" y="600" type="line"/>
      <point x="497" y="600" type="line"/>
      <point x="348" y="371" type="line"/>
      <point x="269" y="493" type="line"/>
      <point x="344" y="561" type="line"/>
      <point x="301" y="621" type="line"/>
      <point x="228" y="555" type="line"/>
      <point x="199" y="600" type="line"/>
      <point x="100" y="600" type="line"/>
      <point x="168" y="500" type="line"/>
      <point x="80" y="420" type="line"/>
      <point x="128" y="365" type="line"/>
      <point x="209" y="438" type="line"/>
      <point x="295" y="311" type="line"/>
      <point x="198" y="165" type="line"/>
      <point x="128" y="229" type="line"/>
      <point x="80" y="174" type="line"/>
      <point x="157" y="104" type="line"/>
      <point x="88" y="0" type="line"/>
      <point x="182" y="0" type="line"/>
      <point x="215" y="51" type="line"/>
    </contour>
  </outline>
</glyph>
<glyph name="uni10CC2_10CC9.ltr" format="2">
  <advance width="616"/>
  <outline>
    <contour>
      <point x="315" y="-27" type="line"/>
      <point x="401" y="51" type="line"/>
      <point x="434" y="0" type="line"/>
      <point x="528" y="0" type="line"/>
      <point x="459" y="104" type="line"/>
      <point x="536" y="174" type="line"/>
      <point x="488" y="229" type="line"/>
      <point x="418" y="165" type="line"/>
      <point x="321" y="311" type="line"/>
      <point x="407" y="438" type="line"/>
      <point x="488" y="365" type="line"/>
      <point x="536" y="420" type="line"/>
      <point x="448" y="500" type="line"/>
      <point x="516" y="600" type="line"/>
      <point x="417" y="600" type="line"/>
      <point x="388" y="555" type="line"/>
      <point x="315" y="621" type="line"/>
      <point x="272" y="561" type="line"/>
      <point x="347" y="493" type="line"/>
      <point x="268" y="371" type="line"/>
      <point x="119" y="600" type="line"/>
      <point x="25" y="600" type="line"/>
      <point x="217" y="313" type="line"/>
      <point x="10" y="0" type="line"/>
      <point x="111" y="0" type="line"/>
      <point x="271" y="253" type="line"/>
      <point x="361" y="114" type="line"/>
      <point x="272" y="33" type="line"/>
    </contour>
  </outline>
</glyph>
<glyph name="uni10CC2_10CD0" format="2">
  <advance width="616"/>
  <outline>
    <contour>
      <point x="88" y="0" type="line"/>
      <point x="182" y="0" type="line"/>
      <point x="345" y="253" type="line"/>
      <point x="505" y="0" type="line"/>
      <point x="606" y="0" type="line"/>
      <point x="399" y="313" type="line"/>
      <point x="591" y="600" type="line"/>
      <point x="497" y="600" type="line"/>
      <point x="348" y="371" type="line"/>
      <point x="269" y="493" type="line"/>
      <point x="344" y="561" type="line"/>
      <point x="301" y="621" type="line"/>
      <point x="228" y="555" type="line"/>
      <point x="199" y="600" type="line"/>
      <point x="100" y="600" type="line"/>
      <point x="168" y="500" type="line"/>
      <point x="80" y="420" type="line"/>
      <point x="128" y="365" type="line"/>
      <point x="209" y="438" type="line"/>
      <point x="295" y="311" type="line"/>
    </contour>
  </outline>
</glyph>
<glyph name="uni10CC2_10CD0.ltr" format="2">
  <advance width="616"/>
  <outline>
    <contour>
      <point x="10" y="0" type="line"/>
      <point x="111" y="0" type="line"/>
      <point x="271" y="253" type="line"/>
      <point x="434" y="0" type="line"/>
      <point x="528" y="0" type="line"/>
      <point x="321" y="311" type="line"/>
      <point x="407" y="438" type="line"/>
      <point x="488" y="365" type="line"/>
      <point x="536" y="420" type="line"/>
      <point x="448" y="500" type="line"/>
      <point x="516" y="600" type="line"/>
      <point x="417" y="600" type="line"/>
      <point x="388" y="555" type="line"/>
      <point x="315" y="621" type="line"/>
      <point x="272" y="561" type="line"/>
      <point x="347" y="493" type="line"/>
      <point x="268" y="371" type="line"/>
      <point x="119" y="600" type="line"/>
      <point x="25" y="600" type="line"/>
      <point x="217" y="313" type="line"/>
    </contour>
  </outline>
</glyph>
<glyph name="uni10CC2_10CDB" format="2">
  <advance width="638"/>
  <outline>
    <contour>
      <point x="192" y="-23" type="line"/>
      <point x="367" y="253" type="line"/>
      <point x="527" y="0" type="line"/>
      <point x="628" y="0" type="line"/>
      <point x="421" y="313" type="line"/>
      <point x="613" y="600" type="line"/>
      <point x="519" y="600" type="line"/>
      <point x="370" y="371" type="line"/>
      <point x="202" y="621" type="line"/>
      <point x="34" y="525" type="line"/>
      <point x="75" y="457" type="line"/>
      <point x="175" y="517" type="line"/>
      <point x="317" y="311" type="line"/>
      <point x="164" y="82" type="line"/>
      <point x="65" y="141" type="line"/>
      <point x="24" y="73" type="line"/>
    </contour>
  </outline>
</glyph>
<glyph name="uni10CC2_10CDB.ltr" format="2">
  <advance width="638"/>
  <outline>
    <contour>
      <point x="446" y="-23" type="line"/>
      <point x="614" y="73" type="line"/>
      <point x="573" y="141" type="line"/>
      <point x="474" y="82" type="line"/>
      <point x="321" y="311" type="line"/>
      <point x="463" y="517" type="line"/>
      <point x="563" y="457" type="line"/>
      <point x="604" y="525" type="line"/>
      <point x="436" y="621" type="line"/>
      <point x="268" y="371" type="line"/>
      <point x="119" y="600" type="line"/>
      <point x="25" y="600" type="line"/>
      <point x="217" y="313" type="line"/>
      <point x="10" y="0" type="line"/>
      <point x="111" y="0" type="line"/>
      <point x="271" y="253" type="line"/>
    </contour>
  </outline>
</glyph>
<glyph name="uni10CC2_10CE6" format="2">
  <advance width="646"/>
  <outline>
    <contour>
      <point x="118" y="0" type="line"/>
      <point x="212" y="0" type="line"/>
      <point x="375" y="253" type="line"/>
      <point x="535" y="0" type="line"/>
      <point x="636" y="0" type="line"/>
      <point x="429" y="313" type="line"/>
      <point x="621" y="600" type="line"/>
      <point x="527" y="600" type="line"/>
      <point x="378" y="371" type="line"/>
      <point x="229" y="600" type="line"/>
      <point x="130" y="600" type="line"/>
      <point x="238" y="440" type="line"/>
      <point x="52" y="458" type="line"/>
      <point x="46" y="381" type="line"/>
      <point x="293" y="359" type="line"/>
      <point x="325" y="311" type="line"/>
    </contour>
  </outline>
</glyph>
<glyph name="uni10CC2_10CE6.ltr" format="2">
  <advance width="646"/>
  <outline>
    <contour>
      <point x="10" y="0" type="line"/>
      <point x="111" y="0" type="line"/>
      <point x="271" y="253" type="line"/>
      <point x="434" y="0" type="line"/>
      <point x="528" y="0" type="line"/>
      <point x="321" y="311" type="line"/>
      <point x="353" y="359" type="line"/>
      <point x="600" y="381" type="line"/>
      <point x="594" y="458" type="line"/>
      <point x="408" y="440" type="line"/>
      <point x="516" y="600" type="line"/>
      <point x="417" y="600" type="line"/>
      <point x="268" y="371" type="line"/>
      <point x="119" y="600" type="line"/>
      <point x="25" y="600" type="line"/>
      <point x="217" y="313" type="line"/>
    </contour>
  </outline>
</glyph>
<glyph name="uni10CC3.ltr" format="2">
  <advance width="751"/>
  <outline>
    <contour>
      <point x="192" y="-1" type="line"/>
      <point x="254" y="73" type="line"/>
      <point x="279" y="48"/>
      <point x="308" y="24"/>
      <point x="339" y="0" type="curve"/>
      <point x="408" y="0" type="line"/>
      <point x="440" y="24"/>
      <point x="469" y="49"/>
      <point x="494" y="74" type="curve"/>
      <point x="558" y="-1" type="line"/>
      <point x="711" y="65" type="line"/>
      <point x="681" y="131" type="line"/>
      <point x="581" y="83" type="line"/>
      <point x="543" y="132" type="line"/>
      <point x="577" y="181"/>
      <point x="596" y="236"/>
      <point x="596" y="300" type="curve" smooth="yes"/>
      <point x="596" y="363"/>
      <point x="577" y="418"/>
      <point x="543" y="467" type="curve"/>
      <point x="581" y="515" type="line"/>
      <point x="681" y="467" type="line"/>
      <point x="711" y="535" type="line"/>
      <point x="558" y="600" type="line"/>
      <point x="495" y="525" type="line"/>
      <point x="469" y="551"/>
      <point x="440" y="575"/>
      <point x="408" y="600" type="curve"/>
      <point x="339" y="600" type="line"/>
      <point x="308" y="576"/>
      <point x="279" y="552"/>
      <point x="254" y="527" type="curve"/>
      <point x="192" y="600" type="line"/>
      <point x="40" y="535" type="line"/>
      <point x="68" y="467" type="line"/>
      <point x="170" y="515" type="line"/>
      <point x="206" y="470" type="line"/>
      <point x="170" y="420"/>
      <point x="150" y="365"/>
      <point x="150" y="300" type="curve" smooth="yes"/>
      <point x="150" y="235"/>
      <point x="170" y="180"/>
      <point x="206" y="130" type="curve"/>
      <point x="170" y="83" type="line"/>
      <point x="68" y="131" type="line"/>
      <point x="40" y="65" type="line"/>
    </contour>
    <contour>
      <point x="372" y="64" type="line"/>
      <point x="276" y="145"/>
      <point x="233" y="206"/>
      <point x="233" y="300" type="curve" smooth="yes"/>
      <point x="233" y="393"/>
      <point x="277" y="454"/>
      <point x="372" y="536" type="curve"/>
      <point x="374" y="536" type="line"/>
      <point x="471" y="454"/>
      <point x="513" y="393"/>
      <point x="513" y="300" type="curve" smooth="yes"/>
      <point x="513" y="205"/>
      <point x="470" y="145"/>
      <point x="374" y="64" type="curve"/>
    </contour>
  </outline>
</glyph>
<glyph name="uni10CC4_10CD3" format="2">
  <advance width="508"/>
  <outline>
    <contour>
      <point x="211" y="0" type="line"/>
      <point x="298" y="0" type="line"/>
      <point x="473" y="191" type="line"/>
      <point x="298" y="375" type="line"/>
      <point x="298" y="488" type="line"/>
      <point x="425" y="376" type="line"/>
      <point x="474" y="434" type="line"/>
      <point x="283" y="600" type="line"/>
      <point x="226" y="600" type="line"/>
      <point x="35" y="434" type="line"/>
      <point x="84" y="376" type="line"/>
      <point x="211" y="488" type="line"/>
      <point x="211" y="375" type="line"/>
      <point x="34" y="191" type="line"/>
    </contour>
    <contour>
      <point x="211" y="100" type="line"/>
      <point x="130" y="190" type="line"/>
      <point x="211" y="278" type="line"/>
    </contour>
    <contour>
      <point x="298" y="101" type="line"/>
      <point x="298" y="276" type="line"/>
      <point x="377" y="190" type="line"/>
    </contour>
  </outline>
</glyph>
<glyph name="uni10CC4_10CD3.ltr" format="2">
  <advance width="508"/>
  <outline>
    <contour>
      <point x="210" y="0" type="line"/>
      <point x="297" y="0" type="line"/>
      <point x="474" y="191" type="line"/>
      <point x="297" y="375" type="line"/>
      <point x="297" y="488" type="line"/>
      <point x="424" y="376" type="line"/>
      <point x="473" y="434" type="line"/>
      <point x="282" y="600" type="line"/>
      <point x="225" y="600" type="line"/>
      <point x="34" y="434" type="line"/>
      <point x="83" y="376" type="line"/>
      <point x="210" y="488" type="line"/>
      <point x="210" y="375" type="line"/>
      <point x="35" y="191" type="line"/>
    </contour>
    <contour>
      <point x="210" y="101" type="line"/>
      <point x="131" y="190" type="line"/>
      <point x="210" y="276" type="line"/>
    </contour>
    <contour>
      <point x="297" y="100" type="line"/>
      <point x="297" y="278" type="line"/>
      <point x="378" y="190" type="line"/>
    </contour>
  </outline>
</glyph>
<glyph name="uni10CC4_10CD4" format="2">
  <advance width="658"/>
  <outline>
    <contour>
      <point x="391" y="0" type="line"/>
      <point x="478" y="0" type="line"/>
      <point x="478" y="488" type="line"/>
      <point x="605" y="376" type="line"/>
      <point x="654" y="434" type="line"/>
      <point x="463" y="600" type="line"/>
      <point x="406" y="600" type="line"/>
      <point x="215" y="434" type="line"/>
      <point x="264" y="376" type="line"/>
      <point x="391" y="488" type="line"/>
      <point x="391" y="90" type="line"/>
      <point x="163" y="177" type="line"/>
      <point x="318" y="226" type="line"/>
      <point x="348" y="302" type="line"/>
      <point x="114" y="403" type="line"/>
      <point x="79" y="328" type="line"/>
      <point x="224" y="268" type="line"/>
      <point x="70" y="224" type="line"/>
      <point x="30" y="149" type="line"/>
    </contour>
  </outline>
</glyph>
<glyph name="uni10CC4_10CD4.ltr" format="2">
  <advance width="658"/>
  <outline>
    <contour>
      <point x="180" y="0" type="line"/>
      <point x="267" y="0" type="line"/>
      <point x="628" y="149" type="line"/>
      <point x="588" y="224" type="line"/>
      <point x="434" y="268" type="line"/>
      <point x="579" y="328" type="line"/>
      <point x="544" y="403" type="line"/>
      <point x="310" y="302" type="line"/>
      <point x="340" y="226" type="line"/>
      <point x="495" y="177" type="line"/>
      <point x="267" y="90" type="line"/>
      <point x="267" y="488" type="line"/>
      <point x="394" y="376" type="line"/>
      <point x="443" y="434" type="line"/>
      <point x="252" y="600" type="line"/>
      <point x="195" y="600" type="line"/>
      <point x="4" y="434" type="line"/>
      <point x="53" y="376" type="line"/>
      <point x="180" y="488" type="line"/>
    </contour>
  </outline>
</glyph>
<glyph name="uni10CC6_10CC0" format="2">
  <advance width="782"/>
  <outline>
    <contour>
      <point x="262" y="0" type="line"/>
      <point x="338" y="0" type="line"/>
      <point x="602" y="170" type="line"/>
      <point x="602" y="0" type="line"/>
      <point x="687" y="0" type="line"/>
      <point x="687" y="600" type="line"/>
      <point x="611" y="600" type="line"/>
      <point x="347" y="428" type="line"/>
      <point x="347" y="600" type="line"/>
      <point x="236" y="600" type="line"/>
      <point x="32" y="403" type="line"/>
      <point x="32" y="300" type="line"/>
      <point x="262" y="289" type="line"/>
    </contour>
    <contour>
      <point x="262" y="366" type="line"/>
      <point x="108" y="373" type="line"/>
      <point x="262" y="521" type="line"/>
    </contour>
    <contour>
      <point x="347" y="91" type="line"/>
      <point x="347" y="343" type="line"/>
      <point x="602" y="510" type="line"/>
      <point x="602" y="255" type="line"/>
    </contour>
  </outline>
</glyph>
<glyph name="uni10CC6_10CC0.ltr" format="2">
  <advance width="782"/>
  <outline>
    <contour>
      <point x="95" y="0" type="line"/>
      <point x="180" y="0" type="line"/>
      <point x="180" y="170" type="line"/>
      <point x="444" y="0" type="line"/>
      <point x="520" y="0" type="line"/>
      <point x="520" y="289" type="line"/>
      <point x="750" y="300" type="line"/>
      <point x="750" y="403" type="line"/>
      <point x="546" y="600" type="line"/>
      <point x="435" y="600" type="line"/>
      <point x="435" y="428" type="line"/>
      <point x="171" y="600" type="line"/>
      <point x="95" y="600" type="line"/>
    </contour>
    <contour>
      <point x="435" y="91" type="line"/>
      <point x="180" y="255" type="line"/>
      <point x="180" y="510" type="line"/>
      <point x="435" y="343" type="line"/>
    </contour>
    <contour>
      <point x="520" y="366" type="line"/>
      <point x="520" y="521" type="line"/>
      <point x="674" y="373" type="line"/>
    </contour>
  </outline>
</glyph>
<glyph name="uni10CC6_10CD0_10CD9" format="2">
  <advance width="975"/>
  <outline>
    <contour>
      <point x="73" y="-20" type="line"/>
      <point x="284" y="76"/>
      <point x="365" y="160"/>
      <point x="365" y="300" type="curve" smooth="yes"/>
      <point x="365" y="351"/>
      <point x="354" y="395"/>
      <point x="330" y="434" type="curve"/>
      <point x="455" y="513" type="line"/>
      <point x="455" y="0" type="line"/>
      <point x="531" y="0" type="line"/>
      <point x="795" y="170" type="line"/>
      <point x="795" y="0" type="line"/>
      <point x="880" y="0" type="line"/>
      <point x="880" y="600" type="line"/>
      <point x="804" y="600" type="line"/>
      <point x="540" y="428" type="line"/>
      <point x="540" y="600" type="line"/>
      <point x="455" y="600" type="line"/>
      <point x="282" y="492" type="line"/>
      <point x="236" y="535"/>
      <point x="169" y="575"/>
      <point x="77" y="618" type="curve"/>
      <point x="32" y="551" type="line"/>
      <point x="223" y="461"/>
      <point x="276" y="404"/>
      <point x="276" y="300" type="curve" smooth="yes"/>
      <point x="276" y="193"/>
      <point x="223" y="131"/>
      <point x="36" y="47" type="curve"/>
    </contour>
    <contour>
      <point x="540" y="91" type="line"/>
      <point x="540" y="343" type="line"/>
      <point x="795" y="510" type="line"/>
      <point x="795" y="255" type="line"/>
    </contour>
  </outline>
</glyph>
<glyph name="uni10CC6_10CD0_10CD9.ltr" format="2">
  <advance width="975"/>
  <outline>
    <contour>
      <point x="902" y="-20" type="curve"/>
      <point x="939" y="47" type="line"/>
      <point x="752" y="131"/>
      <point x="699" y="193"/>
      <point x="699" y="300" type="curve" smooth="yes"/>
      <point x="699" y="404"/>
      <point x="752" y="461"/>
      <point x="943" y="551" type="curve"/>
      <point x="898" y="618" type="line"/>
      <point x="806" y="575"/>
      <point x="739" y="535"/>
      <point x="693" y="492" type="curve"/>
      <point x="520" y="600" type="line"/>
      <point x="435" y="600" type="line"/>
      <point x="435" y="428" type="line"/>
      <point x="171" y="600" type="line"/>
      <point x="95" y="600" type="line"/>
      <point x="95" y="0" type="line"/>
      <point x="180" y="0" type="line"/>
      <point x="180" y="170" type="line"/>
      <point x="444" y="0" type="line"/>
      <point x="520" y="0" type="line"/>
      <point x="520" y="513" type="line"/>
      <point x="645" y="434" type="line"/>
      <point x="621" y="395"/>
      <point x="610" y="351"/>
      <point x="610" y="300" type="curve" smooth="yes"/>
      <point x="610" y="160"/>
      <point x="691" y="76"/>
    </contour>
    <contour>
      <point x="435" y="91" type="line"/>
      <point x="180" y="255" type="line"/>
      <point x="180" y="510" type="line"/>
      <point x="435" y="343" type="line"/>
    </contour>
  </outline>
</glyph>
<glyph name="uni10CC7_10CEA" format="2">
  <advance width="718"/>
  <outline>
    <contour>
      <point x="87" y="0" type="line"/>
      <point x="164" y="0" type="line"/>
      <point x="323" y="114" type="line"/>
      <point x="480" y="0" type="line"/>
      <point x="559" y="0" type="line"/>
      <point x="559" y="296" type="line"/>
      <point x="686" y="341" type="line"/>
      <point x="659" y="415" type="line"/>
      <point x="559" y="379" type="line"/>
      <point x="559" y="600" type="line"/>
      <point x="480" y="600" type="line"/>
      <point x="323" y="486" type="line"/>
      <point x="164" y="600" type="line"/>
      <point x="87" y="600" type="line"/>
    </contour>
    <contour>
      <point x="172" y="100" type="line"/>
      <point x="172" y="499" type="line"/>
      <point x="323" y="394" type="line"/>
      <point x="474" y="499" type="line"/>
      <point x="474" y="349" type="line"/>
      <point x="347" y="304" type="line"/>
      <point x="373" y="231" type="line"/>
      <point x="474" y="266" type="line"/>
      <point x="474" y="100" type="line"/>
      <point x="323" y="206" type="line"/>
    </contour>
  </outline>
</glyph>
<glyph name="uni10CC7_10CEA.ltr" format="2">
  <advance width="718"/>
  <outline>
    <contour>
      <point x="159" y="0" type="line"/>
      <point x="238" y="0" type="line"/>
      <point x="395" y="114" type="line"/>
      <point x="554" y="0" type="line"/>
      <point x="631" y="0" type="line"/>
      <point x="631" y="600" type="line"/>
      <point x="554" y="600" type="line"/>
      <point x="395" y="486" type="line"/>
      <point x="238" y="600" type="line"/>
      <point x="159" y="600" type="line"/>
      <point x="159" y="379" type="line"/>
      <point x="59" y="415" type="line"/>
      <point x="32" y="341" type="line"/>
      <point x="159" y="296" type="line"/>
    </contour>
    <contour>
      <point x="244" y="100" type="line"/>
      <point x="244" y="266" type="line"/>
      <point x="345" y="231" type="line"/>
      <point x="371" y="304" type="line"/>
      <point x="244" y="349" type="line"/>
      <point x="244" y="499" type="line"/>
      <point x="395" y="394" type="line"/>
      <point x="546" y="499" type="line"/>
      <point x="546" y="100" type="line"/>
      <point x="395" y="206" type="line"/>
    </contour>
  </outline>
</glyph>
<glyph name="uni10CC9.ltr" format="2">
  <advance width="411"/>
  <outline>
    <contour>
      <point x="100" y="-27" type="line"/>
      <point x="185" y="51" type="line"/>
      <point x="223" y="27"/>
      <point x="267" y="4"/>
      <point x="320" y="-20" type="curve"/>
      <point x="357" y="47" type="line"/>
      <point x="312" y="67"/>
      <point x="275" y="86"/>
      <point x="245" y="104" type="curve"/>
      <point x="321" y="174" type="line"/>
      <point x="273" y="229" type="line"/>
      <point x="184" y="148" type="line"/>
      <point x="134" y="192"/>
      <point x="117" y="239"/>
      <point x="117" y="300" type="curve" smooth="yes"/>
      <point x="117" y="359"/>
      <point x="134" y="403"/>
      <point x="184" y="446" type="curve"/>
      <point x="273" y="365" type="line"/>
      <point x="321" y="420" type="line"/>
      <point x="244" y="490" type="line"/>
      <point x="276" y="509"/>
      <point x="314" y="529"/>
      <point x="361" y="551" type="curve"/>
      <point x="316" y="618" type="line"/>
      <point x="264" y="594"/>
      <point x="219" y="570"/>
      <point x="182" y="546" type="curve"/>
      <point x="100" y="621" type="line"/>
      <point x="57" y="561" type="line"/>
      <point x="122" y="502" type="line"/>
      <point x="56" y="444"/>
      <point x="28" y="382"/>
      <point x="28" y="300" type="curve" smooth="yes"/>
      <point x="28" y="216"/>
      <point x="57" y="153"/>
      <point x="125" y="95" type="curve"/>
      <point x="57" y="33" type="line"/>
    </contour>
  </outline>
</glyph>
<glyph name="uni10CCA.ltr" format="2">
  <advance width="428"/>
  <outline>
    <contour>
      <point x="71" y="-20" type="line"/>
      <point x="123" y="4"/>
      <point x="167" y="27"/>
      <point x="204" y="50" type="curve"/>
      <point x="241" y="27"/>
      <point x="285" y="4"/>
      <point x="337" y="-20" type="curve"/>
      <point x="374" y="47" type="line"/>
      <point x="334" y="65"/>
      <point x="300" y="82"/>
      <point x="271" y="99" type="curve"/>
      <point x="336" y="156"/>
      <point x="363" y="218"/>
      <point x="363" y="300" type="curve" smooth="yes"/>
      <point x="363" y="379"/>
      <point x="336" y="441"/>
      <point x="274" y="497" type="curve"/>
      <point x="303" y="514"/>
      <point x="337" y="532"/>
      <point x="378" y="551" type="curve"/>
      <point x="333" y="618" type="line"/>
      <point x="283" y="595"/>
      <point x="240" y="572"/>
      <point x="204" y="549" type="curve"/>
      <point x="168" y="572"/>
      <point x="125" y="595"/>
      <point x="75" y="618" type="curve"/>
      <point x="30" y="551" type="line"/>
      <point x="71" y="532"/>
      <point x="105" y="514"/>
      <point x="134" y="497" type="curve"/>
      <point x="72" y="441"/>
      <point x="45" y="379"/>
      <point x="45" y="300" type="curve" smooth="yes"/>
      <point x="45" y="218"/>
      <point x="72" y="156"/>
      <point x="137" y="99" type="curve"/>
      <point x="108" y="82"/>
      <point x="74" y="65"/>
      <point x="34" y="47" type="curve"/>
    </contour>
    <contour>
      <point x="204" y="146" type="curve"/>
      <point x="152" y="191"/>
      <point x="134" y="238"/>
      <point x="134" y="300" type="curve" smooth="yes"/>
      <point x="134" y="360"/>
      <point x="152" y="405"/>
      <point x="204" y="449" type="curve"/>
      <point x="256" y="405"/>
      <point x="274" y="360"/>
      <point x="274" y="300" type="curve" smooth="yes"/>
      <point x="274" y="238"/>
      <point x="256" y="191"/>
    </contour>
  </outline>
</glyph>
<glyph name="uni10CCB.ltr" format="2">
  <advance width="354"/>
  <outline>
    <contour>
      <point x="158" y="-41" type="line"/>
      <point x="320" y="97" type="line"/>
      <point x="250" y="137" type="line"/>
      <point x="165" y="191"/>
      <point x="131" y="241"/>
      <point x="131" y="300" type="curve" smooth="yes"/>
      <point x="131" y="361"/>
      <point x="169" y="413"/>
      <point x="264" y="471" type="curve"/>
      <point x="320" y="502" type="line"/>
      <point x="158" y="639" type="line"/>
      <point x="107" y="580" type="line"/>
      <point x="188" y="514" type="line"/>
      <point x="84" y="445"/>
      <point x="45" y="382"/>
      <point x="45" y="300" type="curve" smooth="yes"/>
      <point x="45" y="217"/>
      <point x="84" y="154"/>
      <point x="187" y="86" type="curve"/>
      <point x="107" y="20" type="line"/>
    </contour>
  </outline>
</glyph>
<glyph name="uni10CCC.ltr" format="2">
  <advance width="556"/>
  <outline>
    <contour>
      <point x="244" y="0" type="curve"/>
      <point x="313" y="0" type="line"/>
      <point x="426" y="85"/>
      <point x="501" y="174"/>
      <point x="501" y="300" type="curve" smooth="yes"/>
      <point x="501" y="425"/>
      <point x="426" y="514"/>
      <point x="313" y="600" type="curve"/>
      <point x="244" y="600" type="line"/>
      <point x="131" y="514"/>
      <point x="55" y="425"/>
      <point x="55" y="300" type="curve" smooth="yes"/>
      <point x="55" y="174"/>
      <point x="131" y="85"/>
    </contour>
    <contour>
      <point x="277" y="64" type="line"/>
      <point x="242" y="93"/>
      <point x="214" y="120"/>
      <point x="192" y="147" type="curve"/>
      <point x="278" y="247" type="line"/>
      <point x="364" y="147" type="line"/>
      <point x="342" y="120"/>
      <point x="314" y="93"/>
      <point x="279" y="64" type="curve"/>
    </contour>
    <contour>
      <point x="154" y="208" type="line"/>
      <point x="142" y="236"/>
      <point x="136" y="266"/>
      <point x="136" y="300" type="curve" smooth="yes"/>
      <point x="136" y="334"/>
      <point x="142" y="363"/>
      <point x="154" y="391" type="curve"/>
      <point x="234" y="298" type="line"/>
    </contour>
    <contour>
      <point x="402" y="207" type="curve"/>
      <point x="322" y="298" type="line"/>
      <point x="402" y="392" type="line"/>
      <point x="414" y="364"/>
      <point x="420" y="334"/>
      <point x="420" y="300" type="curve" smooth="yes"/>
      <point x="420" y="265"/>
      <point x="414" y="235"/>
    </contour>
    <contour>
      <point x="278" y="349" type="line"/>
      <point x="190" y="449" type="line"/>
      <point x="212" y="477"/>
      <point x="241" y="505"/>
      <point x="277" y="536" type="curve"/>
      <point x="279" y="536" type="line"/>
      <point x="315" y="505"/>
      <point x="344" y="477"/>
      <point x="366" y="450" type="curve"/>
    </contour>
  </outline>
</glyph>
<glyph name="uni10CCD_10CC0" format="2">
  <advance width="655"/>
  <outline>
    <contour>
      <point x="95" y="0" type="line"/>
      <point x="182" y="0" type="line"/>
      <point x="329" y="371" type="line" smooth="yes"/>
      <point x="352" y="429"/>
      <point x="363" y="461"/>
      <point x="371" y="496" type="curve"/>
      <point x="375" y="496" type="line"/>
      <point x="383" y="463"/>
      <point x="396" y="420"/>
      <point x="415" y="371" type="curve" smooth="yes"/>
      <point x="431" y="330" type="line"/>
      <point x="303" y="0" type="line"/>
      <point x="390" y="0" type="line"/>
      <point x="473" y="225" type="line"/>
      <point x="562" y="0" type="line"/>
      <point x="651" y="0" type="line"/>
      <point x="408" y="600" type="line"/>
      <point x="304" y="600" type="line"/>
      <point x="35" y="483" type="line"/>
      <point x="22" y="388" type="line"/>
      <point x="218" y="304" type="line"/>
    </contour>
    <contour>
      <point x="245" y="372" type="line"/>
      <point x="103" y="434" type="line"/>
      <point x="302" y="513" type="line"/>
    </contour>
  </outline>
</glyph>
<glyph name="uni10CCD_10CC9" format="2">
  <advance width="647"/>
  <outline>
    <contour>
      <point x="212" y="-68" type="line"/>
      <point x="266" y="-17" type="line"/>
      <point x="210" y="54" type="line"/>
      <point x="266" y="98"/>
      <point x="307" y="155"/>
      <point x="334" y="226" type="curve" smooth="yes"/>
      <point x="357" y="287"/>
      <point x="364" y="345"/>
      <point x="362" y="401" type="curve"/>
      <point x="370" y="381"/>
      <point x="378" y="363"/>
      <point x="384" y="350" type="curve" smooth="yes"/>
      <point x="436" y="241" type="line"/>
      <point x="321" y="0" type="line"/>
      <point x="408" y="0" type="line"/>
      <point x="479" y="149" type="line"/>
      <point x="550" y="0" type="line"/>
      <point x="643" y="0" type="line"/>
      <point x="393" y="505" type="line"/>
      <point x="480" y="547" type="line"/>
      <point x="449" y="613" type="line"/>
      <point x="361" y="571" type="line"/>
      <point x="346" y="600" type="line"/>
      <point x="259" y="600" type="line"/>
      <point x="267" y="578"/>
      <point x="274" y="555"/>
      <point x="278" y="531" type="curve"/>
      <point x="165" y="477" type="line"/>
      <point x="202" y="414" type="line"/>
      <point x="288" y="455" type="line"/>
      <point x="292" y="386"/>
      <point x="283" y="317"/>
      <point x="260" y="255" type="curve" smooth="yes"/>
      <point x="238" y="196"/>
      <point x="206" y="150"/>
      <point x="162" y="113" type="curve"/>
      <point x="105" y="185" type="line"/>
      <point x="47" y="140" type="line"/>
      <point x="100" y="73" type="line"/>
      <point x="78" y="61"/>
      <point x="52" y="51"/>
      <point x="25" y="42" type="curve"/>
      <point x="55" y="-24" type="line"/>
      <point x="89" y="-14"/>
      <point x="119" y="-1"/>
      <point x="147" y="13" type="curve"/>
    </contour>
  </outline>
</glyph>
<glyph name="uni10CCD_10CC9.ltr" format="2">
  <advance width="647"/>
  <outline>
    <contour>
      <point x="435" y="-68" type="line"/>
      <point x="500" y="13" type="line"/>
      <point x="528" y="-1"/>
      <point x="558" y="-14"/>
      <point x="592" y="-24" type="curve"/>
      <point x="622" y="42" type="line"/>
      <point x="595" y="51"/>
      <point x="569" y="61"/>
      <point x="547" y="73" type="curve"/>
      <point x="600" y="140" type="line"/>
      <point x="542" y="185" type="line"/>
      <point x="485" y="113" type="line"/>
      <point x="441" y="150"/>
      <point x="409" y="196"/>
      <point x="387" y="255" type="curve" smooth="yes"/>
      <point x="364" y="317"/>
      <point x="355" y="386"/>
      <point x="359" y="455" type="curve"/>
      <point x="445" y="414" type="line"/>
      <point x="482" y="477" type="line"/>
      <point x="369" y="531" type="line"/>
      <point x="373" y="555"/>
      <point x="380" y="578"/>
      <point x="388" y="600" type="curve"/>
      <point x="301" y="600" type="line"/>
      <point x="286" y="571" type="line"/>
      <point x="198" y="613" type="line"/>
      <point x="167" y="547" type="line"/>
      <point x="254" y="505" type="line"/>
      <point x="4" y="0" type="line"/>
      <point x="97" y="0" type="line"/>
      <point x="168" y="149" type="line"/>
      <point x="239" y="0" type="line"/>
      <point x="326" y="0" type="line"/>
      <point x="211" y="241" type="line"/>
      <point x="263" y="350" type="line" smooth="yes"/>
      <point x="269" y="363"/>
      <point x="277" y="381"/>
      <point x="285" y="401" type="curve"/>
      <point x="283" y="345"/>
      <point x="290" y="287"/>
      <point x="313" y="226" type="curve" smooth="yes"/>
      <point x="340" y="155"/>
      <point x="381" y="98"/>
      <point x="437" y="54" type="curve"/>
      <point x="381" y="-17" type="line"/>
    </contour>
  </outline>
</glyph>
<glyph name="uni10CCD_10CD0" format="2">
  <advance width="625"/>
  <outline>
    <contour>
      <point x="65" y="0" type="line"/>
      <point x="152" y="0" type="line"/>
      <point x="250" y="248" type="line"/>
      <point x="350" y="270" type="line"/>
      <point x="338" y="338" type="line"/>
      <point x="281" y="325" type="line"/>
      <point x="299" y="371" type="line" smooth="yes"/>
      <point x="322" y="429"/>
      <point x="333" y="461"/>
      <point x="341" y="496" type="curve"/>
      <point x="345" y="496" type="line"/>
      <point x="353" y="463"/>
      <point x="366" y="420"/>
      <point x="385" y="371" type="curve" smooth="yes"/>
      <point x="401" y="330" type="line"/>
      <point x="273" y="0" type="line"/>
      <point x="360" y="0" type="line"/>
      <point x="443" y="225" type="line"/>
      <point x="532" y="0" type="line"/>
      <point x="621" y="0" type="line"/>
      <point x="378" y="600" type="line"/>
      <point x="307" y="600" type="line"/>
      <point x="188" y="304" type="line"/>
      <point x="62" y="276" type="line"/>
      <point x="75" y="209" type="line"/>
      <point x="157" y="227" type="line"/>
    </contour>
  </outline>
</glyph>
<glyph name="uni10CCD_10CD0.ltr" format="2">
  <advance width="625"/>
  <outline>
    <contour>
      <point x="4" y="0" type="line"/>
      <point x="93" y="0" type="line"/>
      <point x="182" y="225" type="line"/>
      <point x="265" y="0" type="line"/>
      <point x="352" y="0" type="line"/>
      <point x="224" y="330" type="line"/>
      <point x="240" y="371" type="line" smooth="yes"/>
      <point x="259" y="420"/>
      <point x="272" y="463"/>
      <point x="280" y="496" type="curve"/>
      <point x="284" y="496" type="line"/>
      <point x="292" y="461"/>
      <point x="303" y="429"/>
      <point x="326" y="371" type="curve" smooth="yes"/>
      <point x="344" y="325" type="line"/>
      <point x="287" y="338" type="line"/>
      <point x="275" y="270" type="line"/>
      <point x="375" y="248" type="line"/>
      <point x="473" y="0" type="line"/>
      <point x="560" y="0" type="line"/>
      <point x="468" y="227" type="line"/>
      <point x="550" y="209" type="line"/>
      <point x="563" y="276" type="line"/>
      <point x="437" y="304" type="line"/>
      <point x="318" y="600" type="line"/>
      <point x="247" y="600" type="line"/>
    </contour>
  </outline>
</glyph>
<glyph name="uni10CCD_10CDB" format="2">
  <advance width="765"/>
  <outline>
    <contour>
      <point x="211" y="-22" type="line"/>
      <point x="349" y="80"/>
      <point x="418" y="168"/>
      <point x="418" y="295" type="curve" smooth="yes"/>
      <point x="418" y="303"/>
      <point x="418" y="311"/>
      <point x="417" y="319" type="curve"/>
      <point x="438" y="373" type="line" smooth="yes"/>
      <point x="461" y="431"/>
      <point x="473" y="464"/>
      <point x="481" y="496" type="curve"/>
      <point x="485" y="496" type="line"/>
      <point x="493" y="463"/>
      <point x="506" y="420"/>
      <point x="525" y="371" type="curve" smooth="yes"/>
      <point x="541" y="330" type="line"/>
      <point x="413" y="0" type="line"/>
      <point x="500" y="0" type="line"/>
      <point x="583" y="225" type="line"/>
      <point x="672" y="0" type="line"/>
      <point x="761" y="0" type="line"/>
      <point x="518" y="600" type="line"/>
      <point x="451" y="600" type="line"/>
      <point x="384" y="437" type="line"/>
      <point x="353" y="497"/>
      <point x="298" y="555"/>
      <point x="211" y="624" type="curve"/>
      <point x="32" y="455" type="line"/>
      <point x="90" y="397" type="line"/>
      <point x="212" y="514" type="line"/>
      <point x="302" y="435"/>
      <point x="331" y="377"/>
      <point x="331" y="295" type="curve" smooth="yes"/>
      <point x="331" y="214"/>
      <point x="301" y="152"/>
      <point x="219" y="81" type="curve"/>
      <point x="90" y="204" type="line"/>
      <point x="32" y="146" type="line"/>
    </contour>
  </outline>
</glyph>
<glyph name="uni10CCD_10CDB.ltr" format="2">
  <advance width="765"/>
  <outline>
    <contour>
      <point x="554" y="-22" type="curve"/>
      <point x="733" y="146" type="line"/>
      <point x="675" y="204" type="line"/>
      <point x="546" y="81" type="line"/>
      <point x="464" y="152"/>
      <point x="434" y="214"/>
      <point x="434" y="295" type="curve" smooth="yes"/>
      <point x="434" y="377"/>
      <point x="463" y="435"/>
      <point x="553" y="514" type="curve"/>
      <point x="675" y="397" type="line"/>
      <point x="733" y="455" type="line"/>
      <point x="554" y="624" type="line"/>
      <point x="467" y="555"/>
      <point x="412" y="497"/>
      <point x="381" y="437" type="curve"/>
      <point x="314" y="600" type="line"/>
      <point x="247" y="600" type="line"/>
      <point x="4" y="0" type="line"/>
      <point x="93" y="0" type="line"/>
      <point x="182" y="225" type="line"/>
      <point x="265" y="0" type="line"/>
      <point x="352" y="0" type="line"/>
      <point x="224" y="330" type="line"/>
      <point x="240" y="371" type="line" smooth="yes"/>
      <point x="259" y="420"/>
      <point x="272" y="463"/>
      <point x="280" y="496" type="curve"/>
      <point x="284" y="496" type="line"/>
      <point x="292" y="464"/>
      <point x="304" y="431"/>
      <point x="327" y="373" type="curve" smooth="yes"/>
      <point x="348" y="319" type="line"/>
      <point x="347" y="311"/>
      <point x="347" y="303"/>
      <point x="347" y="295" type="curve" smooth="yes"/>
      <point x="347" y="168"/>
      <point x="416" y="80"/>
    </contour>
  </outline>
</glyph>
<glyph name="uni10CCF_10CC0" format="2">
  <advance width="645"/>
  <outline>
    <contour>
      <point x="134" y="0" type="line"/>
      <point x="242" y="0" type="line"/>
      <point x="367" y="108" type="line"/>
      <point x="485" y="0" type="line"/>
      <point x="592" y="0" type="line"/>
      <point x="424" y="152" type="line"/>
      <point x="589" y="292" type="line"/>
      <point x="431" y="422" type="line"/>
      <point x="605" y="600" type="line"/>
      <point x="497" y="600" type="line"/>
      <point x="379" y="470" type="line"/>
      <point x="231" y="600" type="line"/>
      <point x="87" y="600" type="line"/>
      <point x="20" y="414" type="line"/>
      <point x="85" y="363" type="line"/>
      <point x="275" y="463" type="line"/>
      <point x="325" y="418" type="line"/>
      <point x="168" y="274" type="line"/>
      <point x="313" y="154" type="line"/>
    </contour>
    <contour>
      <point x="371" y="203" type="line"/>
      <point x="282" y="277" type="line"/>
      <point x="380" y="370" type="line"/>
      <point x="476" y="291" type="line"/>
    </contour>
    <contour>
      <point x="96" y="437" type="line"/>
      <point x="148" y="577" type="line"/>
      <point x="230" y="503" type="line"/>
    </contour>
  </outline>
</glyph>
<glyph name="uni10CCF_10CC0.ltr" format="2">
  <advance width="645"/>
  <outline>
    <contour>
      <point x="53" y="0" type="line"/>
      <point x="160" y="0" type="line"/>
      <point x="278" y="108" type="line"/>
      <point x="403" y="0" type="line"/>
      <point x="511" y="0" type="line"/>
      <point x="332" y="154" type="line"/>
      <point x="477" y="274" type="line"/>
      <point x="320" y="418" type="line"/>
      <point x="370" y="463" type="line"/>
      <point x="560" y="363" type="line"/>
      <point x="625" y="414" type="line"/>
      <point x="558" y="600" type="line"/>
      <point x="414" y="600" type="line"/>
      <point x="266" y="470" type="line"/>
      <point x="148" y="600" type="line"/>
      <point x="40" y="600" type="line"/>
      <point x="214" y="422" type="line"/>
      <point x="56" y="292" type="line"/>
      <point x="221" y="152" type="line"/>
    </contour>
    <contour>
      <point x="274" y="203" type="line"/>
      <point x="169" y="291" type="line"/>
      <point x="265" y="370" type="line"/>
      <point x="363" y="277" type="line"/>
    </contour>
    <contour>
      <point x="549" y="437" type="line"/>
      <point x="415" y="503" type="line"/>
      <point x="497" y="577" type="line"/>
    </contour>
  </outline>
</glyph>
<glyph name="uni10CCF_10CC9" format="2">
  <advance width="528"/>
  <outline>
    <contour>
      <point x="221" y="-20" type="line"/>
      <point x="271" y="28" type="line"/>
      <point x="218" y="73" type="line"/>
      <point x="264" y="115" type="line"/>
      <point x="391" y="0" type="line"/>
      <point x="498" y="0" type="line"/>
      <point x="319" y="164" type="line"/>
      <point x="482" y="311" type="line"/>
      <point x="320" y="445" type="line"/>
      <point x="500" y="600" type="line"/>
      <point x="392" y="600" type="line"/>
      <point x="264" y="491" type="line"/>
      <point x="220" y="528" type="line"/>
      <point x="271" y="571" type="line"/>
      <point x="221" y="619" type="line"/>
      <point x="167" y="575" type="line"/>
      <point x="137" y="600" type="line"/>
      <point x="28" y="600" type="line"/>
      <point x="111" y="529" type="line"/>
      <point x="44" y="475" type="line"/>
      <point x="92" y="420" type="line"/>
      <point x="166" y="482" type="line"/>
      <point x="209" y="445" type="line"/>
      <point x="46" y="311" type="line"/>
      <point x="209" y="164" type="line"/>
      <point x="161" y="120" type="line"/>
      <point x="92" y="179" type="line"/>
      <point x="44" y="124" type="line"/>
      <point x="108" y="72" type="line"/>
      <point x="30" y="0" type="line"/>
      <point x="138" y="0" type="line"/>
      <point x="166" y="25" type="line"/>
    </contour>
    <contour>
      <point x="264" y="215" type="line"/>
      <point x="161" y="310" type="line"/>
      <point x="264" y="397" type="line"/>
      <point x="369" y="310" type="line"/>
    </contour>
  </outline>
</glyph>
<glyph name="uni10CCF_10CC9.ltr" format="2">
  <advance width="528"/>
  <outline>
    <contour>
      <point x="307" y="-20" type="line"/>
      <point x="362" y="25" type="line"/>
      <point x="390" y="0" type="line"/>
      <point x="498" y="0" type="line"/>
      <point x="420" y="72" type="line"/>
      <point x="484" y="124" type="line"/>
      <point x="436" y="179" type="line"/>
      <point x="367" y="120" type="line"/>
      <point x="319" y="164" type="line"/>
      <point x="482" y="311" type="line"/>
      <point x="319" y="445" type="line"/>
      <point x="362" y="482" type="line"/>
      <point x="436" y="420" type="line"/>
      <point x="484" y="475" type="line"/>
      <point x="417" y="529" type="line"/>
      <point x="500" y="600" type="line"/>
      <point x="391" y="600" type="line"/>
      <point x="361" y="575" type="line"/>
      <point x="307" y="619" type="line"/>
      <point x="257" y="571" type="line"/>
      <point x="308" y="528" type="line"/>
      <point x="264" y="491" type="line"/>
      <point x="136" y="600" type="line"/>
      <point x="28" y="600" type="line"/>
      <point x="208" y="445" type="line"/>
      <point x="46" y="311" type="line"/>
      <point x="209" y="164" type="line"/>
      <point x="30" y="0" type="line"/>
      <point x="137" y="0" type="line"/>
      <point x="264" y="115" type="line"/>
      <point x="310" y="73" type="line"/>
      <point x="257" y="28" type="line"/>
    </contour>
    <contour>
      <point x="264" y="215" type="line"/>
      <point x="159" y="310" type="line"/>
      <point x="264" y="397" type="line"/>
      <point x="367" y="310" type="line"/>
    </contour>
  </outline>
</glyph>
<glyph name="uni10CCF_10CD0" format="2">
  <advance width="552"/>
  <outline>
    <contour>
      <point x="42" y="0" type="line"/>
      <point x="150" y="0" type="line"/>
      <point x="276" y="115" type="line"/>
      <point x="403" y="0" type="line"/>
      <point x="510" y="0" type="line"/>
      <point x="331" y="164" type="line"/>
      <point x="494" y="311" type="line"/>
      <point x="332" y="445" type="line"/>
      <point x="512" y="600" type="line"/>
      <point x="404" y="600" type="line"/>
      <point x="276" y="491" type="line"/>
      <point x="232" y="528" type="line"/>
      <point x="283" y="571" type="line"/>
      <point x="233" y="619" type="line"/>
      <point x="179" y="575" type="line"/>
      <point x="149" y="600" type="line"/>
      <point x="40" y="600" type="line"/>
      <point x="123" y="529" type="line"/>
      <point x="56" y="475" type="line"/>
      <point x="104" y="420" type="line"/>
      <point x="178" y="482" type="line"/>
      <point x="221" y="445" type="line"/>
      <point x="58" y="311" type="line"/>
      <point x="221" y="164" type="line"/>
    </contour>
    <contour>
      <point x="276" y="215" type="line"/>
      <point x="173" y="310" type="line"/>
      <point x="276" y="397" type="line"/>
      <point x="381" y="310" type="line"/>
    </contour>
  </outline>
</glyph>
<glyph name="uni10CCF_10CD0.ltr" format="2">
  <advance width="552"/>
  <outline>
    <contour>
      <point x="42" y="0" type="line"/>
      <point x="149" y="0" type="line"/>
      <point x="276" y="115" type="line"/>
      <point x="402" y="0" type="line"/>
      <point x="510" y="0" type="line"/>
      <point x="331" y="164" type="line"/>
      <point x="494" y="311" type="line"/>
      <point x="331" y="445" type="line"/>
      <point x="374" y="482" type="line"/>
      <point x="448" y="420" type="line"/>
      <point x="496" y="475" type="line"/>
      <point x="429" y="529" type="line"/>
      <point x="512" y="600" type="line"/>
      <point x="403" y="600" type="line"/>
      <point x="373" y="575" type="line"/>
      <point x="319" y="619" type="line"/>
      <point x="269" y="571" type="line"/>
      <point x="320" y="528" type="line"/>
      <point x="276" y="491" type="line"/>
      <point x="148" y="600" type="line"/>
      <point x="40" y="600" type="line"/>
      <point x="220" y="445" type="line"/>
      <point x="58" y="311" type="line"/>
      <point x="221" y="164" type="line"/>
    </contour>
    <contour>
      <point x="276" y="215" type="line"/>
      <point x="171" y="310" type="line"/>
      <point x="276" y="397" type="line"/>
      <point x="379" y="310" type="line"/>
    </contour>
  </outline>
</glyph>
<glyph name="uni10CCF_10CDB" format="2">
  <advance width="621"/>
  <outline>
    <contour>
      <point x="194" y="-25" type="line"/>
      <point x="345" y="115" type="line"/>
      <point x="472" y="0" type="line"/>
      <point x="579" y="0" type="line"/>
      <point x="400" y="164" type="line"/>
      <point x="563" y="311" type="line"/>
      <point x="401" y="445" type="line"/>
      <point x="581" y="600" type="line"/>
      <point x="473" y="600" type="line"/>
      <point x="345" y="491" type="line"/>
      <point x="194" y="621" type="line"/>
      <point x="39" y="497" type="line"/>
      <point x="87" y="437" type="line"/>
      <point x="195" y="526" type="line"/>
      <point x="290" y="445" type="line"/>
      <point x="127" y="311" type="line"/>
      <point x="290" y="164" type="line"/>
      <point x="191" y="73" type="line"/>
      <point x="87" y="159" type="line"/>
      <point x="39" y="99" type="line"/>
    </contour>
    <contour>
      <point x="345" y="215" type="line"/>
      <point x="242" y="310" type="line"/>
      <point x="345" y="397" type="line"/>
      <point x="450" y="310" type="line"/>
    </contour>
  </outline>
</glyph>
<glyph name="uni10CCF_10CDB.ltr" format="2">
  <advance width="621"/>
  <outline>
    <contour>
      <point x="427" y="-25" type="line"/>
      <point x="582" y="99" type="line"/>
      <point x="534" y="159" type="line"/>
      <point x="430" y="73" type="line"/>
      <point x="331" y="164" type="line"/>
      <point x="494" y="311" type="line"/>
      <point x="331" y="445" type="line"/>
      <point x="426" y="526" type="line"/>
      <point x="534" y="437" type="line"/>
      <point x="582" y="497" type="line"/>
      <point x="427" y="621" type="line"/>
      <point x="276" y="491" type="line"/>
      <point x="148" y="600" type="line"/>
      <point x="40" y="600" type="line"/>
      <point x="220" y="445" type="line"/>
      <point x="58" y="311" type="line"/>
      <point x="221" y="164" type="line"/>
      <point x="42" y="0" type="line"/>
      <point x="149" y="0" type="line"/>
      <point x="276" y="115" type="line"/>
    </contour>
    <contour>
      <point x="276" y="215" type="line"/>
      <point x="171" y="310" type="line"/>
      <point x="276" y="397" type="line"/>
      <point x="379" y="310" type="line"/>
    </contour>
  </outline>
</glyph>
<glyph name="uni10CD0_10CD2" format="2">
  <advance width="494"/>
  <outline>
    <contour>
      <point x="225" y="0" type="line"/>
      <point x="312" y="0" type="line"/>
      <point x="312" y="255" type="line"/>
      <point x="463" y="339" type="line"/>
      <point x="434" y="402" type="line"/>
      <point x="312" y="335" type="line"/>
      <point x="312" y="600" type="line"/>
      <point x="235" y="600" type="line"/>
      <point x="11" y="383" type="line"/>
      <point x="65" y="331" type="line"/>
      <point x="225" y="485" type="line"/>
      <point x="225" y="287" type="line"/>
      <point x="74" y="204" type="line"/>
      <point x="109" y="142" type="line"/>
      <point x="225" y="207" type="line"/>
    </contour>
  </outline>
</glyph>
<glyph name="uni10CD0_10CD2.ltr" format="2">
  <advance width="494"/>
  <outline>
    <contour>
      <point x="182" y="0" type="line"/>
      <point x="269" y="0" type="line"/>
      <point x="269" y="207" type="line"/>
      <point x="385" y="142" type="line"/>
      <point x="420" y="204" type="line"/>
      <point x="269" y="287" type="line"/>
      <point x="269" y="485" type="line"/>
      <point x="429" y="331" type="line"/>
      <point x="483" y="383" type="line"/>
      <point x="259" y="600" type="line"/>
      <point x="182" y="600" type="line"/>
      <point x="182" y="335" type="line"/>
      <point x="60" y="402" type="line"/>
      <point x="31" y="339" type="line"/>
      <point x="182" y="255" type="line"/>
    </contour>
  </outline>
</glyph>
<glyph name="uni10CD0_10CE6" format="2">
  <advance width="559"/>
  <outline>
    <contour>
      <point x="325" y="0" type="line"/>
      <point x="412" y="0" type="line"/>
      <point x="412" y="451" type="line"/>
      <point x="528" y="483" type="line"/>
      <point x="513" y="549" type="line"/>
      <point x="412" y="521" type="line"/>
      <point x="412" y="600" type="line"/>
      <point x="325" y="600" type="line"/>
      <point x="325" y="497" type="line"/>
      <point x="227" y="470" type="line"/>
      <point x="244" y="404" type="line"/>
      <point x="325" y="427" type="line"/>
      <point x="325" y="251" type="line"/>
      <point x="86" y="526" type="line"/>
      <point x="18" y="477" type="line"/>
      <point x="325" y="130" type="line"/>
    </contour>
  </outline>
</glyph>
<glyph name="uni10CD0_10CE6.ltr" format="2">
  <advance width="559"/>
  <outline>
    <contour>
      <point x="147" y="0" type="line"/>
      <point x="234" y="0" type="line"/>
      <point x="234" y="130" type="line"/>
      <point x="541" y="477" type="line"/>
      <point x="473" y="526" type="line"/>
      <point x="234" y="251" type="line"/>
      <point x="234" y="427" type="line"/>
      <point x="315" y="404" type="line"/>
      <point x="332" y="470" type="line"/>
      <point x="234" y="497" type="line"/>
      <point x="234" y="600" type="line"/>
      <point x="147" y="600" type="line"/>
      <point x="147" y="521" type="line"/>
      <point x="46" y="549" type="line"/>
      <point x="31" y="483" type="line"/>
      <point x="147" y="451" type="line"/>
    </contour>
  </outline>
</glyph>
<glyph name="uni10CD1_10CE2_10CE6" format="2">
  <advance width="784"/>
  <outline>
    <contour>
      <point x="235" y="0" type="line"/>
      <point x="322" y="0" type="line"/>
      <point x="322" y="175" type="line"/>
      <point x="585" y="345" type="line"/>
      <point x="585" y="0" type="line"/>
      <point x="672" y="0" type="line"/>
      <point x="672" y="581" type="line"/>
      <point x="770" y="621" type="line"/>
      <point x="747" y="685" type="line"/>
      <point x="472" y="573" type="line"/>
      <point x="497" y="510" type="line"/>
      <point x="585" y="546" type="line"/>
      <point x="585" y="434" type="line"/>
      <point x="322" y="264" type="line"/>
      <point x="322" y="600" type="line"/>
      <point x="235" y="600" type="line"/>
      <point x="235" y="434" type="line"/>
      <point x="83" y="624" type="line"/>
      <point x="18" y="567" type="line"/>
      <point x="235" y="302" type="line"/>
    </contour>
  </outline>
</glyph>
<glyph name="uni10CD1_10CE2_10CE6.ltr" format="2">
  <advance width="784"/>
  <outline>
    <contour>
      <point x="112" y="0" type="line"/>
      <point x="199" y="0" type="line"/>
      <point x="199" y="345" type="line"/>
      <point x="462" y="175" type="line"/>
      <point x="462" y="0" type="line"/>
      <point x="549" y="0" type="line"/>
      <point x="549" y="302" type="line"/>
      <point x="766" y="567" type="line"/>
      <point x="701" y="624" type="line"/>
      <point x="549" y="434" type="line"/>
      <point x="549" y="600" type="line"/>
      <point x="462" y="600" type="line"/>
      <point x="462" y="264" type="line"/>
      <point x="199" y="434" type="line"/>
      <point x="199" y="546" type="line"/>
      <point x="287" y="510" type="line"/>
      <point x="312" y="573" type="line"/>
      <point x="37" y="685" type="line"/>
      <point x="14" y="621" type="line"/>
      <point x="112" y="581" type="line"/>
    </contour>
  </outline>
</glyph>
<glyph name="uni10CD1_10CE6" format="2">
  <advance width="541"/>
  <outline>
    <contour>
      <point x="342" y="0" type="line"/>
      <point x="429" y="0" type="line"/>
      <point x="429" y="581" type="line"/>
      <point x="527" y="621" type="line"/>
      <point x="504" y="685" type="line"/>
      <point x="229" y="573" type="line"/>
      <point x="254" y="510" type="line"/>
      <point x="342" y="546" type="line"/>
      <point x="342" y="334" type="line"/>
      <point x="70" y="624" type="line"/>
      <point x="5" y="567" type="line"/>
      <point x="342" y="204" type="line"/>
    </contour>
  </outline>
</glyph>
<glyph name="uni10CD1_10CE6.ltr" format="2">
  <advance width="541"/>
  <outline>
    <contour>
      <point x="112" y="0" type="line"/>
      <point x="199" y="0" type="line"/>
      <point x="199" y="204" type="line"/>
      <point x="536" y="567" type="line"/>
      <point x="471" y="624" type="line"/>
      <point x="199" y="334" type="line"/>
      <point x="199" y="546" type="line"/>
      <point x="287" y="510" type="line"/>
      <point x="312" y="573" type="line"/>
      <point x="37" y="685" type="line"/>
      <point x="14" y="621" type="line"/>
      <point x="112" y="581" type="line"/>
    </contour>
  </outline>
</glyph>
<glyph name="uni10CD3_10CE5" format="2">
  <advance width="549"/>
  <outline>
    <contour>
      <point x="219" y="0" type="line"/>
      <point x="331" y="0" type="line"/>
      <point x="516" y="304" type="line"/>
      <point x="331" y="600" type="line"/>
      <point x="219" y="600" type="line"/>
      <point x="33" y="304" type="line"/>
    </contour>
    <contour>
      <point x="238" y="104" type="line"/>
      <point x="126" y="303" type="line"/>
      <point x="238" y="496" type="line"/>
    </contour>
    <contour>
      <point x="314" y="107" type="line"/>
      <point x="314" y="493" type="line"/>
      <point x="423" y="303" type="line"/>
    </contour>
  </outline>
</glyph>
<glyph name="uni10CD3_10CEE" format="2">
  <advance width="662"/>
  <outline>
    <contour>
      <point x="95" y="0" type="line"/>
      <point x="180" y="0" type="line"/>
      <point x="180" y="345" type="line"/>
      <point x="298" y="226" type="line"/>
      <point x="365" y="226" type="line"/>
      <point x="482" y="344" type="line"/>
      <point x="482" y="0" type="line"/>
      <point x="567" y="0" type="line"/>
      <point x="567" y="430" type="line"/>
      <point x="372" y="624" type="line"/>
      <point x="291" y="624" type="line"/>
      <point x="95" y="430" type="line"/>
    </contour>
    <contour>
      <point x="331" y="291" type="line"/>
      <point x="200" y="423" type="line"/>
      <point x="331" y="554" type="line"/>
      <point x="462" y="423" type="line"/>
    </contour>
  </outline>
</glyph>
<glyph name="uni10CD6.ltr" format="2">
  <advance width="612"/>
  <outline>
    <contour>
      <point x="5" y="0" type="line"/>
      <point x="93" y="0" type="line"/>
      <point x="144" y="117" type="line"/>
      <point x="189" y="0" type="line"/>
      <point x="273" y="0" type="line"/>
      <point x="186" y="212" type="line"/>
      <point x="227" y="305" type="line"/>
      <point x="355" y="0" type="line"/>
      <point x="439" y="0" type="line"/>
      <point x="268" y="399" type="line"/>
      <point x="283" y="437"/>
      <point x="296" y="472"/>
      <point x="304" y="498" type="curve"/>
      <point x="308" y="498" type="line"/>
      <point x="318" y="466"/>
      <point x="332" y="428"/>
      <point x="357" y="371" type="curve" smooth="yes"/>
      <point x="522" y="0" type="line"/>
      <point x="607" y="0" type="line"/>
      <point x="342" y="600" type="line"/>
      <point x="271" y="600" type="line"/>
    </contour>
  </outline>
</glyph>
